<svg width="37" height="36" viewBox="0 0 37 36" fill="none" xmlns="http://www.w3.org/2000/svg">
  <path d="M35 18C35 17.5547 34.8045 17.1451 34.4491 16.8067L22.6494 4.99864C22.294 4.66019 21.9208 4.5 21.4943 4.5C20.6236 4.5 19.9305 5.14105 19.9305 6.03165C19.9305 6.45901 20.0905 6.88653 20.3748 7.15371L24.3554 11.2143L31.3926 17.6438L31.7658 16.7711L26.0436 16.4149L3.56374 16.4149C2.63978 16.4149 2 17.0739 2 18C2 18.9261 2.63978 19.5851 3.56374 19.5851L26.0436 19.5851L31.7658 19.2289L31.3926 18.3384L24.3554 24.7856L20.3748 28.8463C20.0905 29.1313 19.9305 29.5409 19.9305 29.9683C19.9305 30.8588 20.6236 31.5 21.4943 31.5C21.9208 31.5 22.294 31.3575 22.685 30.9657L34.4491 19.1932C34.8045 18.8549 35 18.4452 35 18Z" fill="#4B4B4B"/>
</svg>
