<svg width="48" height="48" viewBox="0 0 48 48" fill="none" xmlns="http://www.w3.org/2000/svg">
<path d="M38 17.5663L37.9797 37.9719C37.9797 39.1281 37.2282 39.9395 36.0095 39.9395H15.5762C14.4387 39.9395 13.6669 39.0672 13.6669 38.0936C13.6669 37.12 14.5403 36.2883 15.4949 36.2883H22.5633L32.4753 36.6129L28.6973 33.3066L8.56872 13.1646C8.20312 12.7995 8 12.3329 8 11.8866C8 10.913 8.87339 10.0003 9.88896 10.0003C10.3561 10.0003 10.803 10.1625 11.1686 10.548L31.3378 30.6697L34.6892 34.4628L34.3236 24.9901V17.4851C34.3236 16.5317 35.1564 15.6392 36.1517 15.6392C37.1266 15.6392 38 16.4708 38 17.5663Z" fill="#8FFF00"/>
</svg>
