<svg width="16" height="16" viewBox="0 0 16 16" fill="none" xmlns="http://www.w3.org/2000/svg">
  <path d="M8.10533 11.7034C8.27276 11.7034 8.44013 11.6365 8.55402 11.5092L13.737 6.19894C13.8509 6.0851 13.9178 5.93778 13.9178 5.77037C13.9178 5.42215 13.6566 5.1543 13.3085 5.1543C13.141 5.1543 12.987 5.22126 12.8732 5.32841L7.74372 10.5717H8.46025L3.33077 5.32841C3.22363 5.22126 3.06961 5.1543 2.89551 5.1543C2.54729 5.1543 2.28613 5.42215 2.28613 5.77037C2.28613 5.93778 2.3531 6.0851 2.46694 6.20564L7.64997 11.5092C7.77721 11.6365 7.93122 11.7034 8.10533 11.7034Z" fill="black" fill-opacity="0.85"/>
</svg>
