<svg width="37" height="36" viewBox="0 0 37 36" fill="none" xmlns="http://www.w3.org/2000/svg">
  <path d="M2 18C2 18.4453 2.19548 18.8549 2.55089 19.1933L14.3506 31.0014C14.706 31.3398 15.0792 31.5 15.5057 31.5C16.3764 31.5 17.0695 30.8589 17.0695 29.9684C17.0695 29.541 16.9095 29.1135 16.6252 28.8463L12.6446 24.7857L5.60744 18.3562L5.23425 19.2289L10.9564 19.5851H33.4363C34.3602 19.5851 35 18.9261 35 18C35 17.0739 34.3602 16.4149 33.4363 16.4149H10.9564L5.23425 16.7711L5.60744 17.6616L12.6446 11.2144L16.6252 7.15369C16.9095 6.86873 17.0695 6.4591 17.0695 6.03166C17.0695 5.14116 16.3764 4.5 15.5057 4.5C15.0792 4.5 14.706 4.64248 14.315 5.0343L2.55089 16.8068C2.19548 17.1451 2 17.5548 2 18Z" fill="#4B4B4B"/>
</svg>
