<svg width="28" height="28" viewBox="0 0 28 28" fill="none" xmlns="http://www.w3.org/2000/svg">
<rect width="28" height="28" rx="12" fill="#7DDD04"/>
<path d="M12.3127 18.7285C12.2154 18.7285 12.1184 18.7075 12.0217 18.6655C11.9244 18.6242 11.834 18.5619 11.7507 18.4785L8.33371 15.0615C8.19505 14.9229 8.12905 14.7599 8.13571 14.5725C8.14238 14.3845 8.20838 14.2212 8.33371 14.0825C8.47238 13.9439 8.63571 13.8745 8.82371 13.8745C9.01105 13.8745 9.16705 13.9439 9.29171 14.0825L12.3547 17.1445L19.3957 10.1035C19.521 9.9642 19.674 9.89453 19.8547 9.89453C20.0354 9.89453 20.188 9.9642 20.3127 10.1035C20.452 10.2422 20.5217 10.3985 20.5217 10.5725C20.5217 10.7459 20.452 10.9019 20.3127 11.0405L12.8757 18.4785C12.7924 18.5619 12.702 18.6242 12.6047 18.6655C12.5074 18.7075 12.41 18.7285 12.3127 18.7285Z" fill="white"/>
</svg>
