<svg width="45" height="44" viewBox="0 0 45 44" fill="none" xmlns="http://www.w3.org/2000/svg">
  <path d="M12.5 21.9939C12.5 22.5875 12.997 23.072 13.5788 23.072H21.4212V30.9097C21.4212 31.4912 21.9061 31.9878 22.5 31.9878C23.094 31.9878 23.591 31.4912 23.591 30.9097V23.072H31.4213C32.0031 23.072 32.5 22.5875 32.5 21.9939C32.5 21.4003 32.0031 20.9037 31.4213 20.9037H23.591V13.0781C23.591 12.4967 23.094 12 22.5 12C21.9061 12 21.4212 12.4967 21.4212 13.0781V20.9037H13.5788C12.997 20.9037 12.5 21.4003 12.5 21.9939Z" fill="currentColor"/>
</svg>
