<svg width="108" height="16" viewBox="0 0 108 16" fill="none" xmlns="http://www.w3.org/2000/svg">
<path d="M0 14.5055V1.4035H1.55069V13.0981H7.50333V14.5055H0Z" fill="#191919"/>
<path d="M11.4551 1.4035V14.5055H9.90439V1.4035H11.4551Z" fill="#191919"/>
<path d="M24.7188 1.4035V14.5055H23.2181L16.24 4.21839H16.115V14.5055H14.5643V1.4035H16.0649L23.068 11.7162H23.1931V1.4035H24.7188Z" fill="#191919"/>
<path d="M27.8217 14.5055V1.4035H29.3724V7.90333H29.5225L35.275 1.4035H37.3009L31.9235 7.31476L37.3009 14.5055H35.4251L30.9731 8.41512L29.3724 10.2576V14.5055H27.8217Z" fill="#191919"/>
<path d="M46.6681 5.12209L46.734 3.44901C46.7512 3.01399 46.6844 2.57976 46.5376 2.17113C46.3907 1.7625 46.1666 1.38747 45.8781 1.06745C45.5896 0.747428 45.2422 0.488686 44.856 0.305995C44.4697 0.123304 44.0521 0.0202424 43.6269 0.00269418C43.2017 -0.0148541 42.7773 0.0534548 42.3779 0.203721C41.9785 0.353987 41.612 0.583267 41.2992 0.87847C40.9864 1.17367 40.7335 1.52902 40.555 1.92422C40.3764 2.31942 40.2757 2.74673 40.2585 3.18176L40.1266 6.52791C40.1094 6.96294 40.1762 7.39718 40.323 7.80582C40.4699 8.21446 40.694 8.5895 40.9825 8.90952C41.271 9.22955 41.6184 9.48829 42.0046 9.67097C42.3909 9.85366 42.8086 9.9567 43.2337 9.97423C43.4137 9.97505 43.5869 9.90448 43.717 9.77734C43.8471 9.65021 43.924 9.47641 43.9315 9.29249C43.9385 9.10854 43.8756 8.92898 43.7559 8.79153C43.6362 8.65409 43.4691 8.56947 43.2897 8.55546C43.0465 8.54581 42.8075 8.48715 42.5865 8.38283C42.3655 8.27851 42.1668 8.13059 42.0018 7.94755C41.8367 7.76451 41.7086 7.54995 41.6248 7.31616C41.541 7.08237 41.5031 6.83395 41.5133 6.58514L41.6452 3.23899C41.6789 2.74705 41.8987 2.28791 42.2578 1.95897C42.6169 1.63003 43.0871 1.45717 43.5688 1.47705C44.0504 1.49692 44.5055 1.70798 44.8375 2.06544C45.1696 2.4229 45.3524 2.89866 45.3474 3.39178L45.2814 5.06486C45.2806 5.24894 45.3496 5.42618 45.4738 5.55931C45.5981 5.69244 45.768 5.77111 45.9477 5.77877C46.1275 5.78595 46.303 5.72154 46.4373 5.59908C46.5717 5.47661 46.6544 5.30564 46.6681 5.12209ZM43.0522 14.5785C42.809 14.5689 42.57 14.5102 42.349 14.4059C42.128 14.3016 41.9293 14.1537 41.7643 13.9706C41.5993 13.7876 41.4712 13.573 41.3873 13.3392C41.3035 13.1054 41.2656 12.857 41.2758 12.6082L41.3418 10.9351C41.3426 10.7511 41.2736 10.5738 41.1493 10.4407C41.0251 10.3076 40.8552 10.2289 40.6754 10.2212C40.4957 10.2141 40.3202 10.2785 40.1858 10.4009C40.0515 10.5234 39.9688 10.6944 39.9551 10.8779L39.8891 12.551C39.872 12.986 39.9387 13.4202 40.0856 13.8289C40.2325 14.2375 40.4566 14.6125 40.7451 14.9326C41.3278 15.5789 42.1376 15.9619 42.9963 15.9973C43.855 16.0327 44.6923 15.7177 45.324 15.1215C45.9557 14.5253 46.33 13.6968 46.3647 12.8182L46.4966 9.47209C46.5138 9.03705 46.447 8.60282 46.3001 8.19418C46.1533 7.78554 45.9292 7.4105 45.6407 7.09048C45.3521 6.77045 45.0048 6.51171 44.6185 6.32903C44.2323 6.14634 43.8146 6.0433 43.3894 6.02577C43.2095 6.02495 43.0363 6.09552 42.9062 6.22266C42.776 6.34979 42.6991 6.52358 42.6917 6.70751C42.6846 6.89146 42.7476 7.07102 42.8673 7.20847C42.987 7.34591 43.1541 7.43053 43.3335 7.44454C43.5767 7.45419 43.8156 7.51285 44.0367 7.61717C44.2577 7.72149 44.4564 7.8694 44.6214 8.05245C44.7864 8.23549 44.9145 8.45005 44.9984 8.68384C45.0822 8.91763 45.1201 9.16605 45.1099 9.41486L44.978 12.761C44.9685 13.0098 44.9112 13.2543 44.8092 13.4805C44.7073 13.7066 44.5627 13.9099 44.3838 14.0787C44.2049 14.2476 43.9952 14.3786 43.7667 14.4644C43.5382 14.5502 43.2954 14.589 43.0522 14.5785Z" fill="#191919"/>
<path d="M64.3244 5.49788H62.7737C62.682 5.04153 62.5215 4.64062 62.2922 4.29516C62.0671 3.94969 61.792 3.65968 61.4669 3.4251C61.1459 3.18626 60.7895 3.00713 60.3977 2.88771C60.0058 2.7683 59.5973 2.70859 59.1721 2.70859C58.3968 2.70859 57.6944 2.90904 57.0649 3.30995C56.4396 3.71086 55.9415 4.30155 55.5705 5.08205C55.2037 5.86254 55.0203 6.82002 55.0203 7.95451C55.0203 9.08899 55.2037 10.0465 55.5705 10.827C55.9415 11.6075 56.4396 12.1982 57.0649 12.5991C57.6944 13 58.3968 13.2004 59.1721 13.2004C59.5973 13.2004 60.0058 13.1407 60.3977 13.0213C60.7895 12.9019 61.1459 12.7249 61.4669 12.4903C61.792 12.2515 62.0671 11.9593 62.2922 11.6139C62.5215 11.2641 62.682 10.8632 62.7737 10.4111H64.3244C64.2077 11.0807 63.9951 11.68 63.6866 12.2088C63.3781 12.7377 62.9946 13.1876 62.5361 13.5587C62.0776 13.9255 61.5628 14.2048 60.9917 14.3968C60.4247 14.5887 59.8182 14.6846 59.1721 14.6846C58.08 14.6846 57.1087 14.4117 56.2583 13.8658C55.4079 13.3198 54.7389 12.5436 54.2512 11.5371C53.7635 10.5306 53.5196 9.33636 53.5196 7.95451C53.5196 6.57265 53.7635 5.37846 54.2512 4.37193C54.7389 3.36539 55.4079 2.58917 56.2583 2.04325C57.1087 1.49733 58.08 1.22437 59.1721 1.22437C59.8182 1.22437 60.4247 1.32034 60.9917 1.51226C61.5628 1.70418 62.0776 1.98567 62.5361 2.35672C62.9946 2.72351 63.3781 3.17133 63.6866 3.70019C63.9951 4.22478 64.2077 4.82401 64.3244 5.49788Z" fill="#191919"/>
<path d="M66.8302 14.5055V1.4035H68.3809V13.0981H74.3335V14.5055H66.8302Z" fill="#191919"/>
<path d="M76.7346 14.5055V1.4035H84.463V2.81094H78.2853V7.23799H84.0628V8.64543H78.2853V13.0981H84.563V14.5055H76.7346Z" fill="#191919"/>
<path d="M87.258 14.5055V1.4035H91.5849C92.5854 1.4035 93.4066 1.57837 94.0485 1.92809C94.6905 2.27356 95.1657 2.7491 95.4741 3.35473C95.7826 3.96036 95.9368 4.64915 95.9368 5.42111C95.9368 6.19307 95.7826 6.8776 95.4741 7.4747C95.1657 8.07179 94.6925 8.54094 94.0548 8.88214C93.417 9.21907 92.602 9.38754 91.6099 9.38754H88.1084V7.95451H91.5599C92.2435 7.95451 92.7938 7.85215 93.2106 7.64743C93.6317 7.44271 93.936 7.15269 94.1235 6.77737C94.3153 6.39779 94.4112 5.9457 94.4112 5.42111C94.4112 4.89652 94.3153 4.43803 94.1235 4.04566C93.9318 3.65328 93.6254 3.35046 93.2044 3.13722C92.7834 2.9197 92.2269 2.81094 91.5349 2.81094H88.8087V14.5055H87.258ZM93.2857 8.61984L96.4371 14.5055H94.6363L91.5349 8.61984H93.2857Z" fill="#191919"/>
<path d="M98.5208 14.5055V1.4035H100.071V7.90333H100.222L105.974 1.4035H108L102.623 7.31476L108 14.5055H106.124L101.672 8.41512L100.071 10.2576V14.5055H98.5208Z" fill="#191919"/>
</svg>
