<svg width="24" height="24" viewBox="0 0 24 24" fill="none" xmlns="http://www.w3.org/2000/svg">
  <path d="M6 12.0067C6 12.2946 6.11249 12.5824 6.32623 12.7782L15.2454 21.6901C15.4366 21.8858 15.6841 22.001 15.9652 22.001C16.5501 22.001 17 21.5519 17 20.9532C17 20.6653 16.8875 20.4005 16.7076 20.2047L7.90084 11.385V12.617L16.7076 3.79717C16.8875 3.61294 17 3.34812 17 3.04876C17 2.45003 16.5501 2.00098 15.9652 2.00098C15.6841 2.00098 15.4366 2.11612 15.2342 2.31186L6.32623 11.2238C6.11249 11.4425 6 11.7074 6 12.0067Z" fill="currentColor" fill-opacity="0.85"/>
</svg>
