<svg width="24" height="24" viewBox="0 0 24 24" fill="none" xmlns="http://www.w3.org/2000/svg">
  <path d="M18 11.9952C18 11.7073 17.8875 11.4196 17.6738 11.2237L8.7546 2.31185C8.56339 2.11613 8.31594 2.00098 8.03477 2.00098C7.4499 2.00098 7 2.45009 7 3.04875C7 3.33663 7.11248 3.60143 7.29243 3.79725L16.0992 12.617V11.385L7.29243 20.2048C7.11248 20.389 7 20.6538 7 20.9532C7 21.5519 7.4499 22.001 8.03477 22.001C8.31594 22.001 8.56339 21.8858 8.76585 21.6901L17.6738 12.7782C17.8875 12.5594 18 12.2946 18 11.9952Z" fill="currentColor" fill-opacity="0.85"/>
</svg>
