<svg width="49" height="48" viewBox="0 0 49 48" fill="none" xmlns="http://www.w3.org/2000/svg">
<path d="M24.4999 14.261L26.4463 18.841L27.3893 21.061L29.7972 21.261L34.7535 21.681L30.9811 24.941L29.1551 26.521L29.6969 28.881L30.8206 33.701L26.5666 31.141L24.4999 29.861L22.4331 31.101L18.1792 33.661L19.3028 28.841L19.8446 26.481L18.0186 24.901L14.2463 21.641L19.2025 21.221L21.6104 21.021L22.5535 18.801L24.4999 14.261V14.261ZM24.4999 4.00098L18.8614 17.261L4.43408 18.481L15.39 27.941L12.0992 42.001L24.4999 34.541L36.9005 42.001L33.6097 27.941L44.5657 18.481L30.1384 17.261L24.4999 4.00098Z" fill="#DBDBDB"/>
</svg>
