<svg width="72" height="25" viewBox="0 0 72 25" fill="none" xmlns="http://www.w3.org/2000/svg">
<path d="M72 11.8778H69.2209C67.4318 11.8778 66.4737 13.261 66.4737 15.5656V23.8944H61.2026V11.8778H58.9675C57.1784 11.8778 56.2204 13.261 56.2204 15.5656V23.8944H50.9491V7.43363H56.2204V9.9361C57.0824 7.99329 58.2644 7.43363 60.0215 7.43363H66.4737V9.9361C67.3359 7.99329 68.5179 7.43363 70.275 7.43363H72V11.8778ZM49.7959 16.9477H38.8106C39.0987 18.7916 40.2167 19.8449 42.1008 19.8449C43.5068 19.8449 44.4969 19.2522 44.8158 18.1989L49.4801 19.5491C48.33 22.4133 45.4869 24.1582 42.1008 24.1582C36.3835 24.1582 33.7634 19.5831 33.7634 15.6646C33.7634 11.8119 36.0635 7.20383 41.7817 7.20383C47.851 7.20383 49.8631 11.8778 49.8631 15.3347C49.8631 16.0923 49.8311 16.5859 49.7959 16.9477ZM44.6848 13.7558C44.5578 12.3396 43.5667 11.0234 41.7786 11.0234C40.1176 11.0234 39.1276 11.78 38.8075 13.7558H44.6848ZM24.561 23.8954H29.1931L34.9744 7.4347H29.6752L26.8641 17.0104L23.989 7.4347H18.7219L24.561 23.8954ZM2.96701 23.8954H8.20625V11.8778H13.1894V23.8944H18.3956V7.43363H8.20625V6.41327C8.20625 5.29398 8.97226 4.60452 10.1863 4.60452H13.1894V0.158203H9.32739C5.52623 0.158203 2.97011 2.56172 2.97011 6.08452V7.43363H0V11.8778H2.97011L2.96701 23.8954Z" fill="white"/>
</svg>
