<svg width="142" height="25" viewBox="0 0 142 25" fill="none" xmlns="http://www.w3.org/2000/svg">
<path d="M12 18.1975L17.2143 16.8595L19.3929 23.6582L12 18.1975ZM24 9.40978H14.8214L12 0.658203L9.17857 9.40978H0L7.42858 14.8343L4.60714 23.5859L12.0357 18.1613L16.6071 14.8343L24 9.40978Z" fill="#7DDD04"/>
<path d="M141.753 5.54667V8.01488H133.983V5.54667H141.753ZM135.902 2.30273H139.087V15.014C139.087 15.443 139.152 15.7721 139.281 16.0013C139.416 16.2246 139.592 16.3774 139.809 16.4597C140.026 16.542 140.266 16.5831 140.53 16.5831C140.73 16.5831 140.912 16.5684 141.076 16.539C141.246 16.5096 141.375 16.4832 141.463 16.4597L142 18.9543C141.83 19.0131 141.586 19.0778 141.269 19.1483C140.958 19.2188 140.577 19.2599 140.125 19.2717C139.328 19.2952 138.609 19.1747 137.97 18.9103C137.33 18.6399 136.823 18.2227 136.447 17.6585C136.078 17.0944 135.896 16.3892 135.902 15.5429V2.30273Z" fill="white"/>
<path d="M125.824 19.3459C124.504 19.3459 123.36 19.055 122.392 18.4732C121.424 17.8914 120.673 17.0775 120.14 16.0314C119.612 14.9854 119.348 13.763 119.348 12.3644C119.348 10.9657 119.612 9.74043 120.14 8.6885C120.673 7.63658 121.424 6.81972 122.392 6.23792C123.36 5.65613 124.504 5.36523 125.824 5.36523C127.144 5.36523 128.288 5.65613 129.256 6.23792C130.224 6.81972 130.972 7.63658 131.5 8.6885C132.034 9.74043 132.301 10.9657 132.301 12.3644C132.301 13.763 132.034 14.9854 131.5 16.0314C130.972 17.0775 130.224 17.8914 129.256 18.4732C128.288 19.055 127.144 19.3459 125.824 19.3459ZM125.842 16.7895C126.557 16.7895 127.156 16.5927 127.637 16.1989C128.118 15.7993 128.476 15.2645 128.71 14.5946C128.951 13.9246 129.071 13.1783 129.071 12.3556C129.071 11.5269 128.951 10.7777 128.71 10.1077C128.476 9.43191 128.118 8.89419 127.637 8.49457C127.156 8.09496 126.557 7.89515 125.842 7.89515C125.108 7.89515 124.498 8.09496 124.011 8.49457C123.53 8.89419 123.17 9.43191 122.929 10.1077C122.694 10.7777 122.577 11.5269 122.577 12.3556C122.577 13.1783 122.694 13.9246 122.929 14.5946C123.17 15.2645 123.53 15.7993 124.011 16.1989C124.498 16.5927 125.108 16.7895 125.842 16.7895Z" fill="white"/>
<path d="M116.653 1.03125V19.0845H113.468V1.03125H116.653Z" fill="white"/>
<path d="M107.007 19.0841V5.54419H110.192V19.0841H107.007ZM108.608 3.62251C108.104 3.62251 107.67 3.45503 107.306 3.12006C106.942 2.77921 106.76 2.37078 106.76 1.89477C106.76 1.41288 106.942 1.00445 107.306 0.669475C107.67 0.328627 108.104 0.158203 108.608 0.158203C109.119 0.158203 109.553 0.328627 109.91 0.669475C110.274 1.00445 110.456 1.41288 110.456 1.89477C110.456 2.37078 110.274 2.77921 109.91 3.12006C109.553 3.45503 109.119 3.62251 108.608 3.62251Z" fill="white"/>
<path d="M91.5195 24.1589V5.54153H94.6522V7.78055H94.837C95.0012 7.45146 95.2329 7.1018 95.5321 6.73156C95.8313 6.35546 96.2361 6.03518 96.7465 5.77072C97.2568 5.5004 97.908 5.36523 98.6999 5.36523C99.7442 5.36523 100.686 5.63262 101.525 6.1674C102.369 6.6963 103.038 7.48084 103.531 8.52102C104.03 9.55532 104.279 10.8247 104.279 12.3291C104.279 13.8159 104.035 15.0794 103.548 16.1196C103.062 17.1598 102.399 17.9531 101.56 18.4996C100.721 19.0462 99.7706 19.3194 98.7087 19.3194C97.9344 19.3194 97.292 19.1902 96.7816 18.9316C96.2713 18.673 95.8606 18.3615 95.5497 17.9972C95.2447 17.627 95.0071 17.2773 94.837 16.9482H94.705V24.1589H91.5195ZM94.6434 12.3115C94.6434 13.1871 94.7666 13.954 95.0129 14.6122C95.2652 15.2704 95.626 15.7846 96.0953 16.1548C96.5705 16.5192 97.1454 16.7014 97.82 16.7014C98.524 16.7014 99.1135 16.5133 99.5887 16.1372C100.064 15.7552 100.422 15.2351 100.662 14.5769C100.909 13.9129 101.032 13.1577 101.032 12.3115C101.032 11.4711 100.912 10.7248 100.671 10.0725C100.431 9.42015 100.073 8.90888 99.5975 8.53865C99.1223 8.16842 98.5298 7.9833 97.82 7.9833C97.1395 7.9833 96.5617 8.16254 96.0865 8.52102C95.6113 8.8795 95.2505 9.38195 95.0041 10.0284C94.7636 10.6748 94.6434 11.4359 94.6434 12.3115Z" fill="white"/>
<path d="M88.8554 5.54667V8.01488H81.0854V5.54667H88.8554ZM83.0037 2.30273H86.1892V15.014C86.1892 15.443 86.2537 15.7721 86.3828 16.0013C86.5177 16.2246 86.6937 16.3774 86.9107 16.4597C87.1278 16.542 87.3683 16.5831 87.6323 16.5831C87.8318 16.5831 88.0136 16.5684 88.1779 16.539C88.348 16.5096 88.4771 16.4832 88.565 16.4597L89.1018 18.9543C88.9317 19.0131 88.6882 19.0778 88.3715 19.1483C88.0605 19.2188 87.6792 19.2599 87.2275 19.2717C86.4297 19.2952 85.7111 19.1747 85.0716 18.9103C84.4322 18.6399 83.9248 18.2227 83.5493 17.6585C83.1797 17.0944 82.9979 16.3892 83.0037 15.5429V2.30273Z" fill="white"/>
<path d="M79.1892 9.12044L76.2853 9.43778C76.2032 9.14395 76.0595 8.86774 75.8542 8.60917C75.6547 8.35059 75.3849 8.14197 75.0446 7.9833C74.7044 7.82463 74.2879 7.74529 73.7951 7.74529C73.1322 7.74529 72.5749 7.88927 72.1232 8.17723C71.6773 8.46519 71.4573 8.83836 71.4632 9.29674C71.4573 9.69048 71.6011 10.0108 71.8944 10.2576C72.1936 10.5044 72.6863 10.7071 73.3727 10.8658L75.6782 11.3595C76.957 11.6357 77.9074 12.0735 78.5292 12.6729C79.1569 13.2723 79.4737 14.0569 79.4796 15.0265C79.4737 15.8786 79.2244 16.6309 78.7316 17.2832C78.2447 17.9296 77.5671 18.435 76.6989 18.7994C75.8307 19.1637 74.8334 19.3459 73.7071 19.3459C72.0528 19.3459 70.7211 18.9992 69.7121 18.3057C68.7031 17.6064 68.1018 16.6338 67.9082 15.3879L71.0144 15.0882C71.1552 15.6994 71.4544 16.1607 71.912 16.4722C72.3696 16.7836 72.965 16.9394 73.6983 16.9394C74.455 16.9394 75.0622 16.7836 75.5198 16.4722C75.9832 16.1607 76.215 15.7758 76.215 15.3174C76.215 14.9296 76.0654 14.6093 75.7662 14.3566C75.4729 14.1039 75.0153 13.9099 74.3935 13.7748L72.088 13.29C70.7915 13.0196 69.8324 12.5642 69.2105 11.9236C68.5887 11.2772 68.2807 10.4603 68.2866 9.47304C68.2807 8.63855 68.5066 7.91572 68.9641 7.30454C69.4276 6.68749 70.07 6.21148 70.8912 5.87651C71.7184 5.53566 72.6717 5.36523 73.7511 5.36523C75.335 5.36523 76.5816 5.70314 77.4909 6.37896C78.406 7.05478 78.9721 7.96861 79.1892 9.12044Z" fill="white"/>
<path d="M62.0454 13.3884V5.54297H65.2308V19.0829H62.1422V16.6764H62.0014C61.6964 17.4345 61.1948 18.0545 60.4967 18.5363C59.8045 19.0182 58.9509 19.2592 57.936 19.2592C57.0502 19.2592 56.267 19.0623 55.5865 18.6686C54.9119 18.2689 54.3839 17.6901 54.0026 16.932C53.6213 16.168 53.4307 15.2454 53.4307 14.1641V5.54297H56.6161V13.6704C56.6161 14.5284 56.8507 15.2101 57.3201 15.7155C57.7894 16.2209 58.4053 16.4736 59.168 16.4736C59.6373 16.4736 60.0919 16.359 60.5319 16.1298C60.9719 15.9006 61.3326 15.5598 61.6142 15.1073C61.9017 14.6489 62.0454 14.0759 62.0454 13.3884Z" fill="white"/>
<path d="M43.606 19.0834V5.54354H46.6946V7.80019H46.8354C47.0818 7.01859 47.5041 6.41623 48.1025 5.99311C48.7067 5.56411 49.396 5.34961 50.1704 5.34961C50.3464 5.34961 50.5429 5.35842 50.76 5.37605C50.9829 5.38781 51.1677 5.40838 51.3143 5.43776V8.37317C51.1794 8.32615 50.9653 8.28502 50.672 8.24976C50.3845 8.20862 50.1059 8.18805 49.836 8.18805C49.2553 8.18805 48.7331 8.3144 48.2697 8.5671C47.8121 8.81392 47.4513 9.15771 47.1874 9.59846C46.9234 10.0392 46.7914 10.5475 46.7914 11.1235V19.0834H43.606Z" fill="white"/>
<path d="M28 3.77273V1.03125H42.3784V3.77273H36.8083V19.0845H33.5701V3.77273H28Z" fill="white"/>
</svg>
