<svg width="48" height="48" viewBox="0 0 48 48" fill="none" xmlns="http://www.w3.org/2000/svg">
<path d="M10 17.5663L10.0203 37.9719C10.0203 39.1281 10.7718 39.9395 11.9905 39.9395H32.4238C33.5613 39.9395 34.3331 39.0672 34.3331 38.0936C34.3331 37.12 33.4597 36.2883 32.5051 36.2883H25.4367L15.5247 36.6129L19.3027 33.3066L39.4313 13.1646C39.7969 12.7995 40 12.3329 40 11.8866C40 10.913 39.1266 10.0003 38.111 10.0003C37.6439 10.0003 37.197 10.1625 36.8314 10.548L16.6622 30.6697L13.3108 34.4628L13.6764 24.9901V17.4851C13.6764 16.5317 12.8436 15.6392 11.8483 15.6392C10.8734 15.6392 10 16.4708 10 17.5663Z" fill="#8FFF00"/>
</svg>
