<svg width="124" height="100" viewBox="0 0 124 100" fill="none" xmlns="http://www.w3.org/2000/svg">
<path d="M73.1555 28.8719L50.1505 28.9517L50.8445 71.1281L73.8495 71.0484L73.1555 28.8719Z" fill="#FF5F00"/>
<path d="M51.6655 50.1245C51.5237 41.5462 55.3615 33.9239 61.3721 28.9797C56.8357 25.4146 51.1484 23.2709 44.9831 23.2922C30.3771 23.3426 18.7586 35.393 19.0038 50.2372C19.249 65.0814 31.2644 77.0503 45.8704 76.9998C52.0357 76.9786 57.6515 74.7958 62.0696 71.1999C55.8975 66.3723 51.8072 58.7028 51.6655 50.1245Z" fill="#EB001B"/>
<path d="M104.996 49.7628C105.241 64.607 93.6229 76.6574 79.0169 76.7078C72.8516 76.7291 67.1643 74.5854 62.6279 71.0204C68.7119 66.0759 72.4763 58.4538 72.3345 49.8755C72.1928 41.2972 68.1037 33.7023 61.9304 28.8001C66.3485 25.2042 71.9643 23.0214 78.1297 23.0002C92.7356 22.9497 104.752 34.9932 104.996 49.7628Z" fill="#F79E1B"/>
</svg>
