<svg width="124" height="100" viewBox="0 0 124 100" fill="none" xmlns="http://www.w3.org/2000/svg">
<path d="M77.8049 24.0193C77.8049 24.275 77.8048 24.5308 77.5514 24.7865C75.5236 35.0156 68.9332 38.3401 60.315 38.3401H56.0059C54.992 38.3401 53.9781 39.1073 53.9781 40.1302L51.6968 54.451L51.1899 58.5427C51.1899 59.3099 51.6968 59.8213 52.2038 59.8213H60.0615C61.0754 59.8213 61.8358 59.0541 61.8358 58.287V57.7755L63.3567 48.5692V48.0578C63.6102 47.0349 64.3706 46.5234 65.1311 46.5234H66.3984C74.0027 46.5234 79.8326 43.4547 81.3535 34.5042C82.1139 30.6682 81.607 27.5995 79.8327 25.5537C79.3257 25.0422 78.5653 24.5307 77.8049 24.0193Z" fill="#2199D6"/>
<path d="M75.777 23.2521C75.5235 23.2521 75.27 22.9964 74.7631 22.9964C74.5096 22.9964 74.0026 22.7406 73.7491 22.7406C72.4818 22.4849 71.2144 22.4849 69.947 22.4849H58.2871C58.0336 22.4849 57.7802 22.4849 57.5267 22.7406C57.0197 22.9964 56.5128 23.5078 56.5128 24.0193L53.978 39.8745V40.3859C54.2315 39.363 54.9919 38.5958 56.0058 38.5958H60.3149C68.9331 38.5958 75.5235 35.0156 77.5513 25.0422C77.5513 24.7865 77.5513 24.5307 77.8048 24.275C77.2978 24.0193 76.7909 23.7635 76.2839 23.5078C76.0304 23.2521 75.777 23.2521 75.777 23.2521Z" fill="#252C5E"/>
<path d="M56.5128 24.0193C56.5128 23.5078 57.0197 22.9964 57.5267 22.7406C57.7802 22.7406 58.0336 22.4849 58.2871 22.4849H69.947C71.2144 22.4849 72.7352 22.4849 73.7491 22.7406C74.0026 22.7406 74.5096 22.7406 74.7631 22.9964C75.0165 22.9964 75.27 23.2521 75.777 23.2521C76.0304 23.2521 76.0304 23.2521 76.2839 23.5078C76.7909 23.7635 77.2978 24.0193 77.8048 24.275C78.3117 20.4391 77.8048 17.8818 75.777 15.5802C73.4957 13.0229 69.4401 12 64.3705 12H49.4155C48.4016 12 47.3876 12.7672 47.3876 13.7901L41.3042 53.1723C41.3042 53.9395 41.8112 54.7067 42.5716 54.7067H51.6967L53.978 39.8745L56.5128 24.0193Z" fill="#263577"/>
<path d="M35.3724 66.7837C34.3822 66.0969 33.0901 65.7527 31.496 65.7527H25.3247C24.836 65.7527 24.5661 65.9992 24.5148 66.4919L22.0079 82.3683C21.9818 82.5242 22.0205 82.6668 22.1235 82.7964C22.226 82.9263 22.3548 82.9909 22.5092 82.9909H25.4405C25.9546 82.9909 26.2372 82.7449 26.2891 82.2517L26.9832 77.9715C27.0086 77.764 27.099 77.5954 27.2533 77.4655C27.4076 77.3358 27.6004 77.251 27.8319 77.2122C28.0633 77.1737 28.2815 77.1542 28.4876 77.1542C28.6931 77.1542 28.9372 77.1674 29.2205 77.1932C29.5031 77.219 29.6833 77.2317 29.7605 77.2317C31.9717 77.2317 33.7074 76.6031 34.9675 75.3445C36.2271 74.0866 36.8576 72.3422 36.8576 70.1106C36.8576 68.58 36.3621 67.4715 35.3724 66.7837ZM32.1905 71.5508C32.0616 72.459 31.7277 73.0553 31.1877 73.3408C30.6476 73.6266 29.8763 73.7689 28.8736 73.7689L27.6007 73.8077L28.2565 69.6439C28.3077 69.3587 28.4747 69.216 28.7578 69.216H29.4909C30.5189 69.216 31.2651 69.3655 31.7279 69.6634C32.1905 69.9619 32.3449 70.5912 32.1905 71.5508Z" fill="#003087"/>
<path d="M100.498 65.7526H97.6443C97.3606 65.7526 97.1937 65.8954 97.1427 66.181L94.6356 82.3689L94.5969 82.4467C94.5969 82.5771 94.6483 82.6997 94.7515 82.8165C94.8537 82.9331 94.9829 82.9915 95.137 82.9915H97.683C98.1708 82.9915 98.4409 82.7455 98.4931 82.2523L101 66.3366V66.298C101 65.9346 100.832 65.7526 100.498 65.7526Z" fill="#009CDE"/>
<path d="M66.0166 72.0182C66.0166 71.8888 65.9649 71.7653 65.8627 71.6489C65.7596 71.5322 65.6438 71.4735 65.5155 71.4735H62.5456C62.2622 71.4735 62.0308 71.6038 61.8511 71.8625L57.7628 77.9332L56.0657 72.0962C55.9364 71.6815 55.654 71.4735 55.2172 71.4735H52.3239C52.195 71.4735 52.0794 71.532 51.9772 71.6489C51.874 71.7653 51.8228 71.889 51.8228 72.0182C51.8228 72.0704 52.0736 72.8355 52.5749 74.3141C53.0762 75.7933 53.6162 77.3888 54.1948 79.1011C54.7734 80.813 55.0753 81.7215 55.1012 81.8244C52.9925 84.7304 51.9386 86.2868 51.9386 86.494C51.9386 86.8316 52.1054 87 52.44 87H55.4099C55.6926 87 55.9239 86.8706 56.1043 86.6111L65.94 72.2905C65.991 72.2391 66.0166 72.1488 66.0166 72.0182Z" fill="#003087"/>
<path d="M93.6719 71.4736H90.7405C90.3801 71.4736 90.1624 71.9018 90.0851 72.7581C89.4157 71.7206 88.1952 71.2012 86.4206 71.2012C84.5693 71.2012 82.9941 71.9018 81.6959 73.3027C80.3972 74.7036 79.7482 76.3514 79.7482 78.245C79.7482 79.7759 80.1917 80.9951 81.0786 81.9027C81.9657 82.8113 83.1548 83.2647 84.6467 83.2647C85.3923 83.2647 86.1508 83.1088 86.9222 82.7977C87.6936 82.4865 88.2973 82.0716 88.7353 81.5525C88.7353 81.5786 88.709 81.6949 88.6582 81.9024C88.6062 82.1103 88.5808 82.2664 88.5808 82.3693C88.5808 82.7849 88.7475 82.9919 89.0824 82.9919H91.7439C92.2319 82.9919 92.515 82.7459 92.5919 82.2526L94.1736 72.0961C94.1989 71.9403 94.1605 71.798 94.0578 71.6681C93.9544 71.5387 93.8261 71.4736 93.6719 71.4736ZM88.6386 79.1399C87.9829 79.7885 87.1921 80.1126 86.2665 80.1126C85.5204 80.1126 84.9167 79.9054 84.4536 79.4901C83.9906 79.0759 83.7591 78.5051 83.7591 77.7779C83.7591 76.8187 84.0806 76.0073 84.7237 75.3459C85.3657 74.6843 86.1636 74.3537 87.1149 74.3537C87.8343 74.3537 88.4323 74.5676 88.9085 74.9955C89.3837 75.4237 89.6223 76.0139 89.6223 76.7664C89.6221 77.7002 89.2942 78.4917 88.6386 79.1399Z" fill="#009CDE"/>
<path d="M49.8555 71.4736H46.9241C46.5635 71.4736 46.3454 71.9018 46.2682 72.7581C45.5739 71.7206 44.3524 71.2012 42.604 71.2012C40.7526 71.2012 39.1774 71.9018 37.879 73.3027C36.5803 74.7036 35.9313 76.3514 35.9313 78.245C35.9313 79.7759 36.3749 80.9951 37.2621 81.9027C38.1492 82.8113 39.3382 83.2647 40.8298 83.2647C41.5494 83.2647 42.2955 83.1088 43.0668 82.7977C43.8382 82.4865 44.4554 82.0716 44.9182 81.5525C44.8151 81.8636 44.7639 82.1361 44.7639 82.3693C44.7639 82.7849 44.9309 82.9919 45.2653 82.9919H47.9266C48.4148 82.9919 48.698 82.7459 48.7752 82.2526L50.3565 72.0961C50.3819 71.9403 50.3434 71.798 50.2409 71.6681C50.1379 71.5387 50.0096 71.4736 49.8555 71.4736ZM44.822 79.1592C44.1662 79.7955 43.3622 80.1126 42.4114 80.1126C41.6653 80.1126 41.0674 79.9054 40.6178 79.4901C40.1676 79.0759 39.9427 78.5051 39.9427 77.7779C39.9427 76.8187 40.264 76.0073 40.9071 75.3459C41.5495 74.6843 42.3467 74.3535 43.2985 74.3535C44.0181 74.3535 44.6159 74.5676 45.0921 74.9955C45.5674 75.4237 45.8056 76.0139 45.8056 76.7664C45.8055 77.7263 45.4777 78.5243 44.822 79.1592Z" fill="#003087"/>
<path d="M79.1888 66.7836C78.1987 66.0969 76.9069 65.7526 75.3125 65.7526H69.1797C68.6653 65.7526 68.3823 65.9992 68.3312 66.4919L65.8241 82.3682C65.798 82.5242 65.8367 82.6668 65.9398 82.7964C66.0418 82.9263 66.171 82.9909 66.3254 82.9909H69.488C69.7965 82.9909 70.0021 82.8225 70.1053 82.4851L70.7996 77.9714C70.8251 77.764 70.9151 77.5953 71.0697 77.4654C71.224 77.3358 71.4166 77.251 71.6483 77.2122C71.8795 77.1737 72.0977 77.1542 72.3039 77.1542C72.5095 77.1542 72.7535 77.1674 73.0366 77.1932C73.3193 77.219 73.4999 77.2317 73.5766 77.2317C75.7882 77.2317 77.5235 76.6031 78.7837 75.3445C80.0438 74.0865 80.6737 72.3421 80.6737 70.1105C80.6738 68.58 80.1785 67.4713 79.1888 66.7836ZM75.2354 73.185C74.6697 73.574 73.8209 73.7685 72.6899 73.7685L71.4554 73.8075L72.1111 69.6436C72.1621 69.3586 72.3292 69.2156 72.6124 69.2156H73.3065C73.8722 69.2156 74.3221 69.2417 74.6569 69.2934C74.9906 69.3455 75.3125 69.5074 75.6211 69.7797C75.9298 70.0521 76.0839 70.448 76.0839 70.9666C76.0839 72.0566 75.8007 72.7955 75.2354 73.185Z" fill="#009CDE"/>
</svg>
