<svg width="124" height="100" viewBox="0 0 124 100" fill="none" xmlns="http://www.w3.org/2000/svg">
<path d="M96 50.0148C95.9926 69.3457 80.3142 85.0092 60.9852 85C41.6561 84.9926 25.9926 69.3161 26 49.9852C26.0074 30.6617 41.6728 15.0019 60.9963 15C80.3272 14.9981 95.9981 30.6691 96 50V50.0148Z" fill="#F7931A"/>
<path d="M67.3803 43.2106C67.3803 47.6832 60.3584 47.1612 58.1239 47.1612V39.2563C60.3584 39.2526 67.371 38.5417 67.371 43.2069L67.3803 43.2106ZM69.2204 55.5067C69.2204 60.4218 60.8064 59.8627 58.1221 59.8646V51.1488C60.8064 51.147 69.2223 50.375 69.2223 55.503L69.2204 55.5067ZM74.7594 41.4371C74.3096 36.7478 70.2608 35.1761 65.1513 34.7281V28.2246H61.1933V34.5578C60.1529 34.5578 59.0885 34.5781 58.0314 34.6004V28.2265H54.0752V34.7281C53.2181 34.7448 52.3758 34.7614 51.5557 34.7614V34.7411H46.0944V38.9749C46.0944 38.9749 49.0176 38.9194 48.9694 38.9749C50.0746 38.8324 51.091 39.6062 51.2465 40.7095V48.1146C51.3853 48.1146 51.526 48.1238 51.6649 48.1424H51.2465V58.5224C51.2002 59.2944 50.5393 59.8812 49.7692 59.8349H49.7655C49.8155 59.8794 46.8886 59.8349 46.8886 59.8349L46.1018 64.5631H51.2539C52.2129 64.5631 53.1551 64.5797 54.0808 64.5871V71.1647H58.0351V64.6556C59.1199 64.6779 60.1714 64.6871 61.197 64.6871V71.1665H65.1495V64.6001C71.814 64.2187 76.4644 62.5415 77.042 56.2916C77.5085 51.258 75.1408 49.0125 71.3642 48.1053C73.8801 46.9131 75.2741 44.1733 74.7594 41.4371Z" fill="white"/>
</svg>
