<svg width="36" height="24" viewBox="0 0 36 24" fill="none" xmlns="http://www.w3.org/2000/svg">
<g clip-path="url(#clip0_106_2159)">
<path d="M0 0H36V24H0V0Z" fill="white"/>
<path d="M0 0H36V1.84561H0V0ZM0 3.69123H36V5.53684H0V3.69123ZM0 7.38246H36V9.22807H0V7.38246ZM0 11.0737H36V12.9193H0V11.0737ZM0 14.7719H36V16.6175H0V14.7719ZM0 18.4632H36V20.3088H0V18.4632ZM0 22.1544H36V24H0V22.1544Z" fill="#D91C3E"/>
<path d="M0 0H18V12.9193H0V0Z" fill="#375298"/>
<path d="M3.35368 9.74743L3.07298 8.84919L2.76421 9.74743H1.83789L2.58877 10.2878L2.30807 11.186L3.07298 10.6316L3.81684 11.186L3.52912 10.2878L4.29403 9.74743H3.35368ZM7.30456 9.74743L7.01684 8.84919L6.7221 9.74743H5.79579L6.54666 10.2878L6.26596 11.186L7.01684 10.6316L7.77473 11.186L7.49403 10.2878L8.24491 9.74743H7.30456ZM11.2695 9.74743L10.9677 8.84919L10.687 9.74743H9.73965L10.5116 10.2878L10.2168 11.186L10.9677 10.6316L11.7396 11.186L11.4449 10.2878L12.1958 9.74743H11.2695ZM15.2133 9.74743L14.9326 8.84919L14.6379 9.74743H13.7046L14.4625 10.2878L14.1818 11.186L14.9326 10.6316L15.6905 11.186L15.3888 10.2878L16.1607 9.74743H15.2133ZM7.01684 5.28428L6.7221 6.18252H5.79579L6.54666 6.73691L6.26596 7.62112L7.01684 7.07375L7.77473 7.62112L7.49403 6.73691L8.24491 6.18252H7.30456L7.01684 5.28428ZM3.07298 5.28428L2.76421 6.18252H1.83789L2.58877 6.73691L2.30807 7.62112L3.07298 7.07375L3.81684 7.62112L3.52912 6.73691L4.29403 6.18252H3.35368L3.07298 5.28428ZM10.9677 5.28428L10.687 6.18252H9.73965L10.5116 6.73691L10.2168 7.62112L10.9677 7.07375L11.7396 7.62112L11.4449 6.73691L12.1958 6.18252H11.2695L10.9677 5.28428ZM14.9326 5.28428L14.6379 6.18252H13.7046L14.4625 6.73691L14.1818 7.62112L14.9326 7.07375L15.6905 7.62112L15.3888 6.73691L16.1607 6.18252H15.2133L14.9326 5.28428ZM3.07298 1.7334L2.76421 2.61761H1.83789L2.58877 3.17199L2.30807 4.06322L3.07298 3.50884L3.81684 4.06322L3.52912 3.17199L4.29403 2.61761H3.35368L3.07298 1.7334ZM7.01684 1.7334L6.7221 2.61761H5.79579L6.54666 3.17199L6.26596 4.06322L7.01684 3.50884L7.77473 4.06322L7.49403 3.17199L8.24491 2.61761H7.30456L7.01684 1.7334ZM10.9677 1.7334L10.687 2.61761H9.73965L10.5116 3.17199L10.2168 4.06322L10.9677 3.50884L11.7396 4.06322L11.4449 3.17199L12.1958 2.61761H11.2695L10.9677 1.7334ZM14.9326 1.7334L14.6379 2.61761H13.7046L14.4625 3.17199L14.1818 4.06322L14.9326 3.50884L15.6905 4.06322L15.3888 3.17199L16.1607 2.61761H15.2133L14.9326 1.7334Z" fill="white"/>
</g>
<defs>
<clipPath id="clip0_106_2159">
<rect width="36" height="24" fill="white"/>
</clipPath>
</defs>
</svg>
