<svg width="200" height="30" viewBox="0 0 200 30" fill="none" xmlns="http://www.w3.org/2000/svg">
<path d="M0 27.1978V2.63157H2.87164V24.5589H13.895V27.1978H0Z" fill="white"/>
<path d="M21.2131 2.63157V27.1978H18.3415V2.63157H21.2131Z" fill="white"/>
<path d="M45.7755 2.63157V27.1978H42.9965L30.0741 7.90947H29.8425V27.1978H26.9709V2.63157H29.7499L42.7186 21.9679H42.9502V2.63157H45.7755Z" fill="white"/>
<path d="M51.5217 27.1978V2.63157H54.3933V14.8187H54.6712L65.3241 2.63157H69.0758L59.1176 13.7152L69.0758 27.1978H65.602L57.3576 15.7784L54.3933 19.233V27.1978H51.5217Z" fill="white"/>
<path d="M86.4224 9.60392L86.5445 6.4669C86.5763 5.65122 86.4527 4.83705 86.1807 4.07087C85.9087 3.30469 85.4937 2.6015 84.9594 2.00147C84.4251 1.40143 83.7819 0.916286 83.0666 0.573741C82.3513 0.231196 81.5779 0.0379546 80.7905 0.00505159C80.0031 -0.0278514 79.2172 0.100228 78.4776 0.381976C77.738 0.663725 77.0592 1.09363 76.48 1.64713C75.9007 2.20064 75.4324 2.86691 75.1018 3.60791C74.7711 4.34891 74.5846 5.15012 74.5528 5.9658L74.3085 12.2398C74.2767 13.0555 74.4003 13.8697 74.6723 14.6359C74.9442 15.4021 75.3592 16.1053 75.8935 16.7054C76.4278 17.3054 77.071 17.7905 77.7863 18.1331C78.5017 18.4756 79.2751 18.6688 80.0625 18.7017C80.3957 18.7032 80.7165 18.5709 80.9574 18.3325C81.1984 18.0941 81.3408 17.7683 81.3547 17.4234C81.3676 17.0785 81.2511 16.7418 81.0294 16.4841C80.8078 16.2264 80.4983 16.0678 80.1661 16.0415C79.7157 16.0234 79.2732 15.9134 78.8639 15.7178C78.4546 15.5222 78.0866 15.2449 77.781 14.9017C77.4754 14.5585 77.2382 14.1561 77.083 13.7178C76.9277 13.2794 76.8576 12.8137 76.8764 12.3471L77.1207 6.0731C77.1832 5.15071 77.5902 4.28983 78.2552 3.67307C78.9202 3.05631 79.791 2.73219 80.6829 2.76946C81.5747 2.80673 82.4175 3.20246 83.0324 3.8727C83.6473 4.54295 83.986 5.43498 83.9766 6.35959L83.8544 9.49661C83.853 9.84177 83.9807 10.1741 84.2108 10.4237C84.4409 10.6733 84.7555 10.8208 85.0884 10.8352C85.4213 10.8486 85.7463 10.7279 85.9951 10.4983C86.2439 10.2687 86.397 9.94808 86.4224 9.60392ZM79.7263 27.3348C79.2759 27.3167 78.8334 27.2067 78.4242 27.0111C78.0149 26.8155 77.6469 26.5381 77.3413 26.1949C77.0357 25.8517 76.7985 25.4494 76.6432 25.0111C76.488 24.5727 76.4178 24.1069 76.4367 23.6404L76.5588 20.5034C76.5603 20.1582 76.4326 19.8259 76.2025 19.5763C75.9724 19.3267 75.6578 19.1792 75.3249 19.1648C74.992 19.1514 74.667 19.2721 74.4182 19.5017C74.1694 19.7313 74.0163 20.0519 73.9909 20.3961L73.8687 23.5331C73.837 24.3488 73.9606 25.1629 74.2326 25.9291C74.5046 26.6953 74.9196 27.3985 75.4539 27.9985C76.533 29.2104 78.0325 29.9285 79.6227 29.9949C81.213 30.0614 82.7635 29.4707 83.9333 28.3529C85.1031 27.235 85.7963 25.6815 85.8605 24.0342L86.1048 17.7602C86.1366 16.9445 86.013 16.1303 85.741 15.3641C85.469 14.5979 85.0541 13.8947 84.5197 13.2946C83.9854 12.6946 83.3423 12.2095 82.6269 11.8669C81.9116 11.5244 81.1382 11.3312 80.3508 11.2983C80.0176 11.2968 79.6968 11.4291 79.4558 11.6675C79.2149 11.9059 79.0725 12.2317 79.0586 12.5766C79.0456 12.9215 79.1622 13.2582 79.3839 13.5159C79.6055 13.7736 79.915 13.9322 80.2472 13.9585C80.6976 13.9766 81.1401 14.0866 81.5494 14.2822C81.9586 14.4778 82.3266 14.7551 82.6322 15.0983C82.9378 15.4415 83.1751 15.8438 83.3303 16.2822C83.4855 16.7206 83.5557 17.1863 83.5369 17.6529L83.2925 23.9269C83.2751 24.3935 83.1689 24.8519 82.9801 25.2759C82.7913 25.6998 82.5236 26.081 82.1923 26.3976C81.861 26.7142 81.4726 26.96 81.0494 27.1208C80.6263 27.2816 80.1767 27.3543 79.7263 27.3348Z" fill="white"/>
<path d="M119.119 10.3085H116.248C116.078 9.45286 115.781 8.70116 115.356 8.05342C114.939 7.40568 114.43 6.86189 113.828 6.42207C113.233 5.97424 112.573 5.63838 111.848 5.41446C111.122 5.19055 110.365 5.0786 109.578 5.0786C108.142 5.0786 106.841 5.45445 105.676 6.20615C104.518 6.95785 103.595 8.06541 102.908 9.52883C102.229 10.9923 101.889 12.7875 101.889 14.9147C101.889 17.0419 102.229 18.8371 102.908 20.3006C103.595 21.764 104.518 22.8715 105.676 23.6232C106.841 24.3749 108.142 24.7508 109.578 24.7508C110.365 24.7508 111.122 24.6388 111.848 24.4149C112.573 24.191 113.233 23.8592 113.828 23.4193C114.43 22.9715 114.939 22.4237 115.356 21.776C115.781 21.1202 116.078 20.3685 116.248 19.5209H119.119C118.903 20.7764 118.509 21.8999 117.938 22.8915C117.367 23.8831 116.657 24.7268 115.808 25.4225C114.958 26.1103 114.005 26.6341 112.948 26.9939C111.898 27.3538 110.774 27.5337 109.578 27.5337C107.555 27.5337 105.757 27.0219 104.182 25.9983C102.607 24.9747 101.368 23.5193 100.465 21.632C99.562 19.7448 99.1104 17.5057 99.1104 14.9147C99.1104 12.3237 99.562 10.0846 100.465 8.19736C101.368 6.31011 102.607 4.85469 104.182 3.83109C105.757 2.8075 107.555 2.2957 109.578 2.2957C110.774 2.2957 111.898 2.47563 112.948 2.83549C114.005 3.19534 114.958 3.72313 115.808 4.41886C116.657 5.10659 117.367 5.94625 117.938 6.93786C118.509 7.92147 118.903 9.04502 119.119 10.3085Z" fill="white"/>
<path d="M123.76 27.1978V2.63157H126.631V24.5589H137.655V27.1978H123.76Z" fill="white"/>
<path d="M142.101 27.1978V2.63157H156.413V5.27052H144.973V13.5712H155.672V16.2102H144.973V24.5589H156.598V27.1978H142.101Z" fill="white"/>
<path d="M161.589 27.1978V2.63157H169.602C171.454 2.63157 172.975 2.95944 174.164 3.61518C175.353 4.26292 176.233 5.15457 176.804 6.29012C177.375 7.42567 177.661 8.71716 177.661 10.1646C177.661 11.612 177.375 12.8955 176.804 14.0151C176.233 15.1346 175.357 16.0143 174.175 16.654C172.994 17.2858 171.485 17.6016 169.648 17.6016H163.164V14.9147H169.555C170.821 14.9147 171.84 14.7228 172.612 14.3389C173.392 13.9551 173.955 13.4113 174.303 12.7076C174.658 11.9959 174.835 11.1482 174.835 10.1646C174.835 9.18097 174.658 8.32131 174.303 7.5856C173.948 6.8499 173.38 6.28212 172.601 5.88228C171.821 5.47444 170.79 5.27052 169.509 5.27052H164.461V27.1978H161.589ZM172.751 16.1622L178.587 27.1978H175.252L169.509 16.1622H172.751Z" fill="white"/>
<path d="M182.446 27.1978V2.63157H185.318V14.8187H185.595L196.248 2.63157H200L190.042 13.7152L200 27.1978H196.526L188.282 15.7784L185.318 19.233V27.1978H182.446Z" fill="white"/>
</svg>
