<svg width="44" height="44" viewBox="0 0 44 44" fill="none" xmlns="http://www.w3.org/2000/svg">
<g clip-path="url(#clip0_1275_1194)">
<path d="M7.88943 35.4105C8.6199 36.1624 9.88748 36.1409 10.6179 35.4105L21.6179 24.3889L32.6394 35.4105C33.3699 36.1409 34.6161 36.1624 35.3465 35.4105C36.1199 34.6585 36.0985 33.4124 35.3465 32.682L24.3465 21.6604L35.3465 10.6604C36.0985 9.92996 36.1199 8.66238 35.3465 7.93191C34.6161 7.17996 33.3699 7.20145 32.6394 7.93191L21.6179 18.9534L10.6179 7.93191C9.88748 7.20145 8.6199 7.17996 7.88943 7.93191C7.13748 8.66238 7.15896 9.92996 7.88943 10.6604L18.9109 21.6604L7.88943 32.682C7.15896 33.4124 7.13748 34.6585 7.88943 35.4105Z" fill="#4B4B4B"/>
</g>
<defs>
<clipPath id="clip0_1275_1194">
<rect width="28.585" height="28.6334" fill="white" transform="translate(7.3335 7.33301)"/>
</clipPath>
</defs>
</svg>
