<svg width="25" height="24" viewBox="0 0 25 24" fill="none" xmlns="http://www.w3.org/2000/svg">
<path d="M20 19C20 19.2199 19.883 19.4892 19.5396 19.7936C19.1969 20.0975 18.6723 20.394 17.9813 20.6532C16.6029 21.1701 14.6651 21.5 12.5 21.5C10.3349 21.5 8.39713 21.1701 7.01871 20.6532C6.32765 20.394 5.80314 20.0975 5.46038 19.7936C5.11704 19.4892 5 19.2199 5 19C5 18.7801 5.11704 18.5108 5.46038 18.2064C5.80314 17.9025 6.32765 17.606 7.01871 17.3468C8.39713 16.8299 10.3349 16.5 12.5 16.5C14.6651 16.5 16.6029 16.8299 17.9813 17.3468C18.6723 17.606 19.1969 17.9025 19.5396 18.2064C19.883 18.5108 20 18.7801 20 19Z" stroke="#8FFF00"/>
<path d="M12.5 18L12.1407 18.3477L12.5 18.719L12.8593 18.3477L12.5 18ZM12.5 18C12.8593 18.3477 12.8594 18.3476 12.8595 18.3475L12.8598 18.3472L12.8609 18.3461L12.8646 18.3422L12.8784 18.3278L12.9305 18.273C12.9758 18.2252 13.0417 18.155 13.1252 18.0645C13.2922 17.8836 13.5299 17.6213 13.8148 17.2937C14.3841 16.6391 15.1441 15.7208 15.9052 14.6679C16.6652 13.6166 17.4334 12.4213 18.0133 11.2132C18.5896 10.0124 19 8.75836 19 7.6C19 5.97061 18.3062 4.41556 17.0838 3.27467C15.8626 2.13488 14.2132 1.5 12.5 1.5C10.7868 1.5 9.13741 2.13488 7.9162 3.27467C6.69382 4.41556 6 5.97061 6 7.6C6 8.75836 6.41035 10.0124 6.98674 11.2132C7.56662 12.4213 8.33476 13.6166 9.09479 14.6679C9.85592 15.7208 10.6159 16.6391 11.1852 17.2937C11.4701 17.6213 11.7078 17.8836 11.8748 18.0645C11.9583 18.155 12.0242 18.2252 12.0695 18.273L12.1216 18.3278L12.1354 18.3422L12.1391 18.3461L12.1402 18.3472L12.1405 18.3475C12.1406 18.3476 12.1407 18.3477 12.5 18ZM12.5 9.1C12.0536 9.1 11.6318 8.93416 11.3259 8.64869C11.0212 8.3643 10.8571 7.98626 10.8571 7.6C10.8571 7.21374 11.0212 6.8357 11.3259 6.55131C11.6318 6.26584 12.0536 6.1 12.5 6.1C12.9464 6.1 13.3682 6.26584 13.6741 6.55131C13.9788 6.8357 14.1429 7.21374 14.1429 7.6C14.1429 7.792 14.1024 7.98305 14.0227 8.16254C13.943 8.34215 13.8252 8.50767 13.6741 8.64869C13.5229 8.78977 13.3416 8.90335 13.1397 8.9814C12.9378 9.05946 12.7204 9.1 12.5 9.1Z" fill="#8FFF00" stroke="#191919"/>
</svg>
