<svg width="21" height="20" viewBox="0 0 21 20" fill="none" xmlns="http://www.w3.org/2000/svg">
<path fill-rule="evenodd" clip-rule="evenodd" d="M6.54133 8.33268C6.54133 7.28287 6.95837 6.27605 7.7007 5.53372C8.44303 4.79139 9.44985 4.37435 10.4997 4.37435C11.5495 4.37435 12.5563 4.79139 13.2986 5.53372C14.041 6.27605 14.458 7.28287 14.458 8.33268C14.458 9.3825 14.041 10.3893 13.2986 11.1316C12.5563 11.874 11.5495 12.291 10.4997 12.291C9.44985 12.291 8.44303 11.874 7.7007 11.1316C6.95837 10.3893 6.54133 9.3825 6.54133 8.33268ZM10.4997 5.62435C9.78137 5.62435 9.09249 5.90969 8.58458 6.4176C8.07667 6.92551 7.79133 7.61439 7.79133 8.33268C7.79133 9.05098 8.07667 9.73985 8.58458 10.2478C9.09249 10.7557 9.78137 11.041 10.4997 11.041C11.218 11.041 11.9068 10.7557 12.4147 10.2478C12.9227 9.73985 13.208 9.05098 13.208 8.33268C13.208 7.61439 12.9227 6.92551 12.4147 6.4176C11.9068 5.90969 11.218 5.62435 10.4997 5.62435Z" fill="#7F7F7F"/>
<path fill-rule="evenodd" clip-rule="evenodd" d="M3.43633 7.38018C3.57877 5.65252 4.36568 4.04159 5.64084 2.86724C6.916 1.6929 8.58614 1.04101 10.3197 1.04102H10.6797C12.4132 1.04101 14.0833 1.6929 15.3585 2.86724C16.6336 4.04159 17.4206 5.65252 17.563 7.38018C17.7215 9.30459 17.127 11.2154 15.9047 12.7102L11.9105 17.5944C11.7396 17.8034 11.5243 17.9718 11.2803 18.0875C11.0363 18.2031 10.7697 18.2631 10.4997 18.2631C10.2296 18.2631 9.963 18.2031 9.719 18.0875C9.47501 17.9718 9.25976 17.8034 9.08883 17.5944L5.09466 12.7102C3.87226 11.2154 3.27773 9.3046 3.43633 7.38018ZM10.3197 2.29102C8.90006 2.29123 7.53244 2.82521 6.48826 3.78695C5.44408 4.74869 4.79969 6.06789 4.683 7.48268C4.551 9.08423 5.04573 10.6745 6.063 11.9185L10.0572 16.8035C10.1109 16.8692 10.1785 16.9222 10.2552 16.9586C10.3318 16.9949 10.4156 17.0138 10.5005 17.0138C10.5854 17.0138 10.6692 16.9949 10.7458 16.9586C10.8225 16.9222 10.8901 16.8692 10.9438 16.8035L14.938 11.9185C15.9547 10.6743 16.4488 9.08401 16.3163 7.48268C16.1996 6.06775 15.5551 4.74843 14.5108 3.78667C13.4664 2.8249 12.0986 2.29102 10.6788 2.29102H10.3188H10.3197Z" fill="#7F7F7F"/>
</svg>
