<svg width="117" height="54" viewBox="0 0 117 54" fill="none" xmlns="http://www.w3.org/2000/svg">
<path d="M21 6.5H26.773L32.8703 20.6094H33.1297L39.227 6.5H45V27.5H40.4595V13.8315H40.2757L34.5459 27.3975H31.4541L25.7243 13.7803H25.5405V27.5H21V6.5Z" fill="white"/>
<path d="M7.5625 27.5H0V6.5H7.625C9.77083 6.5 11.6181 6.92041 13.1667 7.76123C14.7153 8.59521 15.9063 9.79492 16.7396 11.3604C17.5799 12.9258 18 14.7988 18 16.9795C18 19.167 17.5799 21.0469 16.7396 22.6191C15.9063 24.1914 14.7083 25.398 13.1458 26.2388C11.5903 27.0796 9.72917 27.5 7.5625 27.5ZM4.51042 23.6958H7.375C8.70833 23.6958 9.82986 23.4634 10.7396 22.9985C11.6562 22.5269 12.3437 21.7988 12.8021 20.8145C13.2674 19.8232 13.5 18.5449 13.5 16.9795C13.5 15.4277 13.2674 14.1597 12.8021 13.1753C12.3437 12.1909 11.6597 11.4663 10.75 11.0015C9.84028 10.5366 8.71875 10.3042 7.38542 10.3042H4.51042V23.6958Z" fill="white"/>
<rect x="54" y="1" width="33" height="32" rx="16" stroke="white" stroke-width="2"/>
<path d="M79.5 13.9358H75.2222C75.1441 13.3702 74.9845 12.8679 74.7436 12.4287C74.5027 11.9829 74.1934 11.6036 73.8158 11.2909C73.4381 10.9781 73.0019 10.7386 72.5071 10.5722C72.0187 10.4059 71.4881 10.3227 70.9151 10.3227C69.8798 10.3227 68.978 10.5856 68.2097 11.1112C67.4414 11.6302 66.8456 12.3888 66.4224 13.3869C65.9992 14.3783 65.7876 15.5827 65.7876 17C65.7876 18.4572 65.9992 19.6816 66.4224 20.673C66.8521 21.6644 67.4512 22.413 68.2195 22.9187C68.9878 23.4244 69.8766 23.6773 70.8858 23.6773C71.4523 23.6773 71.9764 23.6008 72.4582 23.4477C72.9466 23.2947 73.3795 23.0718 73.7572 22.779C74.1348 22.4796 74.4474 22.1169 74.6948 21.6911C74.9487 21.2652 75.1245 20.7795 75.2222 20.2338L79.5 20.2538C79.3893 21.192 79.1126 22.097 78.6698 22.9686C78.2336 23.8337 77.6443 24.6088 76.9021 25.2942C76.1663 25.9729 75.2873 26.5119 74.2651 26.9111C73.2493 27.3037 72.1001 27.5 70.8174 27.5C69.0334 27.5 67.4381 27.0875 66.0317 26.2624C64.6319 25.4373 63.525 24.2429 62.7111 22.6792C61.9037 21.1155 61.5 19.2224 61.5 17C61.5 14.7709 61.9102 12.8745 62.7306 11.3108C63.551 9.74715 64.6644 8.55608 66.0708 7.73764C67.4772 6.91255 69.0594 6.5 70.8174 6.5C71.9764 6.5 73.0507 6.66635 74.0404 6.99905C75.0366 7.33175 75.9189 7.81749 76.6872 8.45627C77.4555 9.0884 78.0806 9.86359 78.5624 10.7818C79.0507 11.7001 79.3633 12.7514 79.5 13.9358Z" fill="#8FFF00"/>
<path d="M100.944 27.5H96L103.533 6.5H109.478L117 27.5H112.056L106.591 11.2988H106.42L100.944 27.5ZM100.635 19.2456H112.312V22.7114H100.635V19.2456Z" fill="white"/>
<path d="M86.4919 53.7529H84.0283V46.1035H86.57C87.3156 46.1035 87.956 46.2567 88.491 46.5629C89.0261 46.8667 89.4361 47.3037 89.721 47.8739C90.0083 48.4417 90.152 49.1227 90.152 49.917C90.152 50.7138 90.0071 51.3986 89.7173 51.9713C89.4299 52.544 89.0137 52.9847 88.4688 53.2935C87.9238 53.5997 87.2648 53.7529 86.4919 53.7529ZM85.1765 52.7444H86.4288C87.0084 52.7444 87.4902 52.6349 87.8742 52.4157C88.2582 52.1941 88.5455 51.8742 88.7363 51.4558C88.927 51.035 89.0224 50.5221 89.0224 49.917C89.0224 49.3169 88.927 48.8077 88.7363 48.3894C88.548 47.971 88.2669 47.6536 87.8928 47.4369C87.5187 47.2203 87.0542 47.112 86.4994 47.112H85.1765V52.7444Z" fill="white"/>
<path d="M77.4619 53.7529V46.1035H82.2331V47.097H78.6101V49.4277H81.9841V50.4175H78.6101V52.7594H82.2776V53.7529H77.4619Z" fill="white"/>
<path d="M70.0098 47.097V46.1035H75.8994V47.097H73.525V53.7529H72.3805V47.097H70.0098Z" fill="white"/>
<path d="M68.7495 48.5921H67.5901C67.5456 48.3431 67.4626 48.124 67.3412 47.9348C67.2198 47.7455 67.0712 47.5849 66.8953 47.4529C66.7194 47.321 66.5225 47.2214 66.3045 47.1541C66.0889 47.0869 65.8598 47.0533 65.617 47.0533C65.1786 47.0533 64.7859 47.1641 64.4391 47.3857C64.0948 47.6073 63.8223 47.9323 63.6216 48.3605C63.4234 48.7888 63.3244 49.3117 63.3244 49.9293C63.3244 50.5518 63.4234 51.0772 63.6216 51.5054C63.8223 51.9337 64.096 52.2574 64.4428 52.4766C64.7896 52.6957 65.1798 52.8052 65.6133 52.8052C65.8536 52.8052 66.0815 52.7729 66.297 52.7081C66.515 52.6409 66.712 52.5425 66.8879 52.4131C67.0637 52.2836 67.2124 52.1255 67.3338 51.9387C67.4576 51.7495 67.5431 51.5328 67.5901 51.2888L68.7495 51.2926C68.6876 51.6685 68.5674 52.0147 68.3891 52.3309C68.2132 52.6446 67.9865 52.916 67.7091 53.1451C67.4341 53.3717 67.1195 53.5473 66.7652 53.6718C66.411 53.7963 66.0245 53.8585 65.6059 53.8585C64.9469 53.8585 64.3598 53.7017 63.8446 53.3879C63.3293 53.0717 62.923 52.6197 62.6258 52.0321C62.331 51.4444 62.1836 50.7435 62.1836 49.9293C62.1836 49.1125 62.3322 48.4116 62.6295 47.8264C62.9268 47.2388 63.333 46.7881 63.8483 46.4744C64.3636 46.1581 64.9494 46 65.6059 46C66.0097 46 66.3862 46.0585 66.7355 46.1755C67.0873 46.2901 67.4031 46.4594 67.683 46.6835C67.963 46.9051 68.1946 47.1765 68.3779 47.4978C68.5612 47.8165 68.6851 48.1813 68.7495 48.5921Z" fill="white"/>
<path d="M55.8623 53.7529V46.1035H60.6334V47.097H57.0105V49.4277H60.3845V50.4175H57.0105V52.7594H60.678V53.7529H55.8623Z" fill="white"/>
<path d="M48.4092 47.097V46.1035H54.2988V47.097H51.9244V53.7529H50.7799V47.097H48.4092Z" fill="white"/>
<path d="M47.4192 49.9293C47.4192 50.746 47.2706 51.4482 46.9733 52.0358C46.676 52.621 46.2685 53.0717 45.7508 53.3879C45.2355 53.7017 44.6497 53.8585 43.9932 53.8585C43.3343 53.8585 42.7459 53.7017 42.2282 53.3879C41.7129 53.0717 41.3066 52.6197 41.0094 52.0321C40.7121 51.4444 40.5635 50.7435 40.5635 49.9293C40.5635 49.1125 40.7121 48.4116 41.0094 47.8264C41.3066 47.2388 41.7129 46.7881 42.2282 46.4744C42.7459 46.1581 43.3343 46 43.9932 46C44.6497 46 45.2355 46.1581 45.7508 46.4744C46.2685 46.7881 46.676 47.2388 46.9733 47.8264C47.2706 48.4116 47.4192 49.1125 47.4192 49.9293ZM46.2822 49.9293C46.2822 49.3068 46.1818 48.7826 45.9812 48.3568C45.783 47.9285 45.5105 47.6048 45.1637 47.3857C44.8194 47.1641 44.4292 47.0533 43.9932 47.0533C43.5547 47.0533 43.1633 47.1641 42.819 47.3857C42.4747 47.6048 42.2022 47.9285 42.0015 48.3568C41.8033 48.7826 41.7042 49.3068 41.7042 49.9293C41.7042 50.5518 41.8033 51.0772 42.0015 51.5054C42.2022 51.9312 42.4747 52.2549 42.819 52.4766C43.1633 52.6957 43.5547 52.8052 43.9932 52.8052C44.4292 52.8052 44.8194 52.6957 45.1637 52.4766C45.5105 52.2549 45.783 51.9312 45.9812 51.5054C46.1818 51.0772 46.2822 50.5518 46.2822 49.9293Z" fill="white"/>
<path d="M33.8027 53.7529V46.1035H36.5153C37.1049 46.1035 37.5941 46.2056 37.9831 46.4098C38.3745 46.614 38.6668 46.8966 38.86 47.2576C39.0532 47.6162 39.1498 48.0308 39.1498 48.5014C39.1498 48.9695 39.052 49.3816 38.8563 49.7377C38.6631 50.0913 38.3707 50.3664 37.9793 50.5632C37.5904 50.7599 37.1012 50.8582 36.5116 50.8582H34.4567V49.8647H36.4075C36.7791 49.8647 37.0813 49.8112 37.3142 49.7041C37.5495 49.597 37.7217 49.4414 37.8307 49.2372C37.9397 49.033 37.9942 48.7878 37.9942 48.5014C37.9942 48.2126 37.9385 47.9623 37.827 47.7507C37.718 47.539 37.5458 47.3772 37.3105 47.2651C37.0776 47.1506 36.7717 47.0933 36.3927 47.0933H34.9509V53.7529H33.8027ZM37.5595 50.3017L39.4397 53.7529H38.1317L36.2886 50.3017H37.5595Z" fill="white"/>
<path d="M26.8477 53.7529V46.1035H29.5602C30.1523 46.1035 30.6428 46.2118 31.0317 46.4285C31.4206 46.6451 31.7117 46.9414 31.9049 47.3174C32.0981 47.6909 32.1948 48.1117 32.1948 48.5798C32.1948 49.0505 32.0969 49.4738 31.9012 49.8498C31.708 50.2233 31.4157 50.5196 31.0243 50.7387C30.6353 50.9553 30.1461 51.0636 29.5565 51.0636H27.6912V50.0851H29.4525C29.8265 50.0851 30.13 50.0203 30.3628 49.8908C30.5957 49.7589 30.7666 49.5796 30.8756 49.353C30.9846 49.1264 31.0391 48.8687 31.0391 48.5798C31.0391 48.291 30.9846 48.0345 30.8756 47.8104C30.7666 47.5863 30.5945 47.4108 30.3591 47.2838C30.1263 47.1568 29.8191 47.0933 29.4376 47.0933H27.9959V53.7529H26.8477Z" fill="white"/>
</svg>
