<svg width="132" height="34" viewBox="0 0 132 34" fill="none" xmlns="http://www.w3.org/2000/svg">
<path d="M90 16.6496H86.5261C84.2898 16.6496 83.0922 18.3785 83.0922 21.2592V31.6702H76.5032V16.6496H73.7094C71.473 16.6496 70.2755 18.3785 70.2755 21.2592V31.6702H63.6864V11.0943H70.2755V14.2224C71.353 11.7939 72.8305 11.0943 75.0269 11.0943H83.0922V14.2224C84.1698 11.7939 85.6474 11.0943 87.8437 11.0943H90V16.6496ZM62.2449 22.9869H48.5133C48.8733 25.2917 50.2708 26.6084 52.626 26.6084C54.3835 26.6084 55.6211 25.8675 56.0198 24.5509L61.8501 26.2387C60.4125 29.8189 56.8587 32 52.626 32C45.4794 32 42.2043 26.2812 42.2043 21.3829C42.2043 16.5671 45.0793 10.807 52.2272 10.807C59.8138 10.807 62.3289 16.6496 62.3289 20.9706C62.3289 21.9176 62.2889 22.5346 62.2449 22.9869ZM55.856 18.997C55.6972 17.2267 54.4584 15.5816 52.2233 15.5816C50.147 15.5816 48.9094 16.5272 48.5094 18.997H55.856ZM30.7012 31.6715H36.4914L43.718 11.0956H37.094L33.5801 23.0653L29.9863 11.0956H23.4023L30.7012 31.6715ZM3.70876 31.6715H10.2578V16.6496H16.4868V31.6702H22.9945V11.0943H10.2578V9.81884C10.2578 8.41972 11.2153 7.5579 12.7329 7.5579H16.4868V2H11.6592C6.90779 2 3.71264 5.00439 3.71264 9.4079V11.0943H0V16.6496H3.71264L3.70876 31.6715Z" fill="white"/>
</svg>
