<svg width="93" height="106" viewBox="0 0 93 106" fill="none" xmlns="http://www.w3.org/2000/svg">
<path opacity="0.1" d="M46.4727 21.396L0.666626 29.2884V49H92.6666V1L46.4727 21.396Z" fill="#8FFF00"/>
<rect x="92.6691" y="49" width="1" height="90" transform="rotate(90 92.6691 49)" fill="#7F7F7F"/>
<rect x="92.6666" y="35" width="1" height="89" transform="rotate(90 92.6666 35)" fill="#7F7F7F"/>
<rect x="92.6666" y="17" width="1" height="90" transform="rotate(90 92.6666 17)" fill="#7F7F7F"/>
<rect x="92.6666" y="1" width="1" height="90" transform="rotate(90 92.6666 1)" fill="#7F7F7F"/>
<path d="M2.95633 44.7795L46.2539 33.1009L89.0131 15.8272" stroke="#8FFF00" stroke-width="5" stroke-linecap="round" stroke-linejoin="round"/>
<rect x="15.6666" y="98" width="4" height="8" rx="2" fill="#8FFF00"/>
<rect x="27.6666" y="91" width="4" height="15" rx="2" fill="#8FFF00"/>
<rect x="39.6666" y="91" width="4" height="15" rx="2" fill="#8FFF00"/>
<rect x="51.6666" y="92" width="4" height="14" rx="2" fill="#8FFF00"/>
<rect x="63.6666" y="81" width="4" height="25" rx="2" fill="#8FFF00"/>
<rect x="75.6666" y="65" width="4" height="41" rx="2" fill="#8FFF00"/>
</svg>
