<svg width="132" height="34" viewBox="0 0 132 34" fill="none" xmlns="http://www.w3.org/2000/svg">
<g clip-path="url(#clip0_1155_13616)">
<path d="M12 22.5393L17.2143 21.2013L19.3929 28L12 22.5393ZM24 13.7516H14.8214L12 5L9.17857 13.7516H0L7.42858 19.1761L4.60714 27.9277L12.0357 22.5031L16.6071 19.1761L24 13.7516Z" fill="#219653"/>
<path d="M132.036 10.4616V12.715H124.93V10.4616H132.036ZM126.684 7.5H129.597V19.1049C129.597 19.4966 129.656 19.797 129.774 20.0063C129.898 20.2102 130.059 20.3497 130.257 20.4248C130.456 20.4999 130.676 20.5374 130.917 20.5374C131.1 20.5374 131.266 20.524 131.416 20.4972C131.572 20.4704 131.69 20.4462 131.77 20.4248L132.261 22.7023C132.106 22.756 131.883 22.815 131.593 22.8793C131.309 22.9437 130.96 22.9813 130.547 22.992C129.817 23.0135 129.16 22.9035 128.575 22.6621C127.991 22.4153 127.526 22.0343 127.183 21.5193C126.845 21.0042 126.679 20.3604 126.684 19.5878V7.5Z" fill="white"/>
<path d="M117.467 23.0607C116.26 23.0607 115.214 22.7951 114.328 22.264C113.443 21.7328 112.756 20.9897 112.268 20.0347C111.785 19.0797 111.544 17.9637 111.544 16.6868C111.544 15.4099 111.785 14.2913 112.268 13.3309C112.756 12.3705 113.443 11.6248 114.328 11.0936C115.214 10.5625 116.26 10.2969 117.467 10.2969C118.674 10.2969 119.721 10.5625 120.606 11.0936C121.491 11.6248 122.175 12.3705 122.658 13.3309C123.146 14.2913 123.39 15.4099 123.39 16.6868C123.39 17.9637 123.146 19.0797 122.658 20.0347C122.175 20.9897 121.491 21.7328 120.606 22.264C119.721 22.7951 118.674 23.0607 117.467 23.0607ZM117.483 20.7268C118.138 20.7268 118.685 20.5471 119.125 20.1876C119.565 19.8228 119.892 19.3346 120.107 18.7229C120.327 18.1113 120.437 17.4299 120.437 16.6788C120.437 15.9223 120.327 15.2382 120.107 14.6266C119.892 14.0096 119.565 13.5187 119.125 13.1538C118.685 12.789 118.138 12.6066 117.483 12.6066C116.813 12.6066 116.255 12.789 115.809 13.1538C115.369 13.5187 115.039 14.0096 114.819 14.6266C114.605 15.2382 114.497 15.9223 114.497 16.6788C114.497 17.4299 114.605 18.1113 114.819 18.7229C115.039 19.3346 115.369 19.8228 115.809 20.1876C116.255 20.5471 116.813 20.7268 117.483 20.7268Z" fill="white"/>
<path d="M109.079 6.33984V22.8217H106.166V6.33984H109.079Z" fill="white"/>
<path d="M100.258 22.8216V10.4602H103.171V22.8216H100.258ZM101.722 8.70576C101.261 8.70576 100.864 8.55285 100.531 8.24703C100.199 7.93585 100.032 7.56297 100.032 7.12839C100.032 6.68844 100.199 6.31556 100.531 6.00974C100.864 5.69856 101.261 5.54297 101.722 5.54297C102.189 5.54297 102.586 5.69856 102.913 6.00974C103.246 6.31556 103.412 6.68844 103.412 7.12839C103.412 7.56297 103.246 7.93585 102.913 8.24703C102.586 8.55285 102.189 8.70576 101.722 8.70576Z" fill="white"/>
<path d="M86.0928 27.4548V10.4578H88.9578V12.502H89.1268C89.277 12.2015 89.4889 11.8823 89.7626 11.5443C90.0362 11.2009 90.4064 10.9085 90.8732 10.6671C91.3399 10.4203 91.9355 10.2969 92.6598 10.2969C93.6148 10.2969 94.4759 10.541 95.2431 11.0292C96.0157 11.5121 96.6273 12.2283 97.078 13.178C97.5341 14.1223 97.7621 15.2811 97.7621 16.6546C97.7621 18.012 97.5394 19.1656 97.0941 20.1152C96.6488 21.0648 96.0425 21.7891 95.2753 22.2881C94.5081 22.7871 93.6389 23.0365 92.6678 23.0365C91.9596 23.0365 91.3721 22.9185 90.9054 22.6824C90.4386 22.4464 90.063 22.162 89.7787 21.8294C89.4997 21.4914 89.2824 21.1721 89.1268 20.8717H89.0061V27.4548H86.0928ZM88.9497 16.6385C88.9497 17.438 89.0624 18.1381 89.2878 18.739C89.5185 19.3399 89.8484 19.8094 90.2776 20.1474C90.7122 20.48 91.238 20.6463 91.855 20.6463C92.4988 20.6463 93.038 20.4747 93.4726 20.1313C93.9072 19.7825 94.2345 19.3077 94.4544 18.7068C94.6798 18.1006 94.7924 17.4111 94.7924 16.6385C94.7924 15.8713 94.6825 15.1899 94.4625 14.5944C94.2425 13.9989 93.9152 13.5321 93.4807 13.1941C93.0461 12.8561 92.5042 12.6871 91.855 12.6871C91.2326 12.6871 90.7042 12.8507 90.2696 13.178C89.835 13.5053 89.505 13.964 89.2797 14.5542C89.0597 15.1443 88.9497 15.8391 88.9497 16.6385Z" fill="white"/>
<path d="M83.657 10.4616V12.715H76.5508V10.4616H83.657ZM78.3052 7.5H81.2185V19.1049C81.2185 19.4966 81.2775 19.797 81.3956 20.0063C81.519 20.2102 81.6799 20.3497 81.8784 20.4248C82.0769 20.4999 82.2969 20.5374 82.5383 20.5374C82.7208 20.5374 82.8871 20.524 83.0373 20.4972C83.1929 20.4704 83.3109 20.4462 83.3914 20.4248L83.8823 22.7023C83.7267 22.7559 83.5041 22.815 83.2144 22.8793C82.93 22.9437 82.5813 22.9813 82.1681 22.992C81.4385 23.0135 80.7812 22.9035 80.1964 22.6621C79.6116 22.4153 79.1475 22.0343 78.8042 21.5193C78.4662 21.0042 78.2998 20.3604 78.3052 19.5878V7.5Z" fill="white"/>
<path d="M74.8163 13.7252L72.1605 14.015C72.0854 13.7467 71.954 13.4945 71.7662 13.2585C71.5838 13.0224 71.337 12.8319 71.0258 12.6871C70.7146 12.5422 70.3337 12.4698 69.883 12.4698C69.2767 12.4698 68.767 12.6012 68.3539 12.8641C67.9462 13.127 67.745 13.4677 67.7503 13.8862C67.745 14.2457 67.8764 14.5381 68.1447 14.7634C68.4183 14.9887 68.869 15.1738 69.4967 15.3187L71.6052 15.7694C72.7748 16.0215 73.644 16.4213 74.2127 16.9685C74.7868 17.5158 75.0765 18.232 75.0819 19.1173C75.0765 19.8952 74.8485 20.582 74.3978 21.1775C73.9525 21.7677 73.3328 22.2291 72.5388 22.5617C71.7447 22.8944 70.8326 23.0607 69.8025 23.0607C68.2895 23.0607 67.0716 22.7441 66.1488 22.111C65.226 21.4726 64.6761 20.5846 64.499 19.4472L67.3399 19.1736C67.4687 19.7316 67.7423 20.1527 68.1608 20.4371C68.5793 20.7215 69.1238 20.8636 69.7945 20.8636C70.4866 20.8636 71.0419 20.7215 71.4604 20.4371C71.8842 20.1527 72.0961 19.8013 72.0961 19.3828C72.0961 19.0287 71.9593 18.7363 71.6857 18.5056C71.4174 18.2749 70.999 18.0979 70.4303 17.9745L68.3217 17.5318C67.136 17.285 66.2588 16.8692 65.6901 16.2844C65.1214 15.6943 64.8397 14.9485 64.8451 14.0471C64.8397 13.2853 65.0463 12.6254 65.4648 12.0674C65.8886 11.504 66.4761 11.0695 67.2272 10.7636C67.9837 10.4525 68.8556 10.2969 69.8428 10.2969C71.2914 10.2969 72.4315 10.6054 73.2631 11.2224C74.1001 11.8394 74.6178 12.6737 74.8163 13.7252Z" fill="white"/>
<path d="M59.1366 17.6215V10.459H62.0499V22.8204H59.2251V20.6234H59.0964C58.8174 21.3155 58.3587 21.8815 57.7202 22.3214C57.0871 22.7614 56.3065 22.9814 55.3783 22.9814C54.5681 22.9814 53.8519 22.8016 53.2295 22.4422C52.6125 22.0773 52.1297 21.5489 51.7809 20.8567C51.4322 20.1593 51.2578 19.3169 51.2578 18.3297V10.459H54.1711V17.8791C54.1711 18.6624 54.3857 19.2847 54.8149 19.7461C55.2442 20.2076 55.8075 20.4383 56.505 20.4383C56.9342 20.4383 57.35 20.3336 57.7524 20.1244C58.1548 19.9152 58.4847 19.604 58.7423 19.1908C59.0052 18.7724 59.1366 18.2493 59.1366 17.6215Z" fill="white"/>
<path d="M42.2725 22.8197V10.4583H45.0972V12.5185H45.226C45.4513 11.805 45.8376 11.255 46.3849 10.8687C46.9375 10.4771 47.5679 10.2812 48.2761 10.2812C48.4371 10.2812 48.6168 10.2893 48.8153 10.3054C49.0192 10.3161 49.1882 10.3349 49.3223 10.3617V13.0416C49.1989 12.9987 49.0031 12.9612 48.7348 12.929C48.472 12.8914 48.2171 12.8726 47.9703 12.8726C47.4391 12.8726 46.9616 12.988 46.5378 13.2187C46.1193 13.444 45.7893 13.7579 45.5479 14.1603C45.3065 14.5627 45.1858 15.0268 45.1858 15.5526V22.8197H42.2725Z" fill="white"/>
<path d="M28 8.84271V6.33984H41.1501V8.84271H36.0558V22.8217H33.0943V8.84271H28Z" fill="white"/>
</g>
<defs>
<clipPath id="clip0_1155_13616">
<rect width="132" height="34" fill="white"/>
</clipPath>
</defs>
</svg>
