<svg width="132" height="34" viewBox="0 0 132 34" fill="none" xmlns="http://www.w3.org/2000/svg">
<path d="M12.6882 15.4922H9.88849C9.83736 15.13 9.73295 14.8082 9.57528 14.527C9.41761 14.2415 9.2152 13.9986 8.96804 13.7983C8.72088 13.598 8.43537 13.4446 8.11151 13.3381C7.7919 13.2315 7.4446 13.1783 7.0696 13.1783C6.39205 13.1783 5.80185 13.3466 5.29901 13.6832C4.79617 14.0156 4.40625 14.5014 4.12926 15.1406C3.85227 15.7756 3.71378 16.5469 3.71378 17.4545C3.71378 18.3878 3.85227 19.1719 4.12926 19.8068C4.41051 20.4418 4.80256 20.9212 5.3054 21.245C5.80824 21.5689 6.38992 21.7308 7.05043 21.7308C7.42117 21.7308 7.7642 21.6818 8.07955 21.5838C8.39915 21.4858 8.68253 21.343 8.92969 21.1555C9.17685 20.9638 9.38139 20.7315 9.54332 20.4588C9.70952 20.1861 9.82457 19.875 9.88849 19.5256L12.6882 19.5384C12.6158 20.1392 12.4347 20.7188 12.1449 21.277C11.8594 21.831 11.4737 22.3274 10.9879 22.7663C10.5064 23.201 9.93111 23.5462 9.26207 23.8018C8.5973 24.0533 7.84517 24.179 7.00568 24.179C5.83807 24.179 4.79403 23.9148 3.87358 23.3864C2.95739 22.858 2.23295 22.093 1.70028 21.0916C1.17188 20.0902 0.90767 18.8778 0.90767 17.4545C0.90767 16.027 1.17614 14.8125 1.71307 13.8111C2.25 12.8097 2.97869 12.0469 3.89915 11.5227C4.8196 10.9943 5.85511 10.7301 7.00568 10.7301C7.7642 10.7301 8.46733 10.8366 9.11506 11.0497C9.76705 11.2628 10.3445 11.5739 10.8473 11.983C11.3501 12.3878 11.7592 12.8842 12.0746 13.4723C12.3942 14.0604 12.5987 14.7337 12.6882 15.4922ZM17.3448 10.9091V24H14.6218V10.9091H17.3448ZM25.8223 19.8196V14.1818H28.5453V24H25.9309V22.2166H25.8287C25.6071 22.7919 25.2385 23.2543 24.7228 23.6037C24.2115 23.9531 23.5872 24.1278 22.85 24.1278C22.1937 24.1278 21.6163 23.9787 21.1177 23.6804C20.6191 23.3821 20.2292 22.9581 19.948 22.4084C19.671 21.8587 19.5304 21.2003 19.5261 20.4332V14.1818H22.2491V19.9474C22.2534 20.527 22.4089 20.9851 22.7157 21.3217C23.0225 21.6584 23.4338 21.8267 23.9494 21.8267C24.2775 21.8267 24.5843 21.7521 24.8699 21.603C25.1554 21.4496 25.3855 21.2237 25.5602 20.9254C25.7392 20.6271 25.8265 20.2585 25.8223 19.8196ZM35.9457 14.1818V16.2273H30.033V14.1818H35.9457ZM31.3754 11.8295H34.0984V20.983C34.0984 21.2344 34.1367 21.4304 34.2134 21.571C34.2901 21.7074 34.3967 21.8033 34.533 21.8587C34.6737 21.9141 34.8356 21.9418 35.0188 21.9418C35.1467 21.9418 35.2745 21.9311 35.4023 21.9098C35.5302 21.8842 35.6282 21.8651 35.6964 21.8523L36.1246 23.8786C35.9883 23.9212 35.7965 23.9702 35.5494 24.0256C35.3022 24.0852 35.0018 24.1214 34.6481 24.1342C33.9918 24.1598 33.4165 24.0724 32.9222 23.8722C32.4322 23.6719 32.0508 23.3608 31.7781 22.9389C31.5053 22.517 31.3711 21.9844 31.3754 21.3409V11.8295ZM42.0501 24.1918C41.0444 24.1918 40.1793 23.9787 39.4549 23.5526C38.7347 23.1222 38.1808 22.5256 37.793 21.7628C37.4094 21 37.2177 20.1222 37.2177 19.1293C37.2177 18.1236 37.4116 17.2415 37.7994 16.483C38.1914 15.7202 38.7475 15.1257 39.4677 14.6996C40.1879 14.2692 41.0444 14.054 42.0373 14.054C42.8938 14.054 43.6438 14.2095 44.2873 14.5206C44.9308 14.8317 45.44 15.2685 45.815 15.831C46.19 16.3935 46.3967 17.054 46.435 17.8125H43.8654C43.793 17.3224 43.6012 16.9283 43.2901 16.63C42.9833 16.3274 42.5806 16.1761 42.082 16.1761C41.6602 16.1761 41.2915 16.2912 40.9762 16.5213C40.6651 16.7472 40.4222 17.0774 40.2475 17.5121C40.0728 17.9467 39.9854 18.473 39.9854 19.0909C39.9854 19.7173 40.0707 20.25 40.2411 20.6889C40.4158 21.1278 40.6609 21.4624 40.9762 21.6925C41.2915 21.9226 41.6602 22.0376 42.082 22.0376C42.3931 22.0376 42.6722 21.9737 42.9194 21.8459C43.1708 21.718 43.3775 21.5327 43.5394 21.2898C43.7056 21.0426 43.8143 20.7464 43.8654 20.4013H46.435C46.3924 21.1513 46.1879 21.8118 45.8214 22.3828C45.4592 22.9496 44.9585 23.3928 44.3192 23.7124C43.68 24.032 42.9237 24.1918 42.0501 24.1918ZM50.9015 18.3239V24H48.1784V10.9091H50.8248V15.9141H50.9398C51.1614 15.3345 51.5194 14.8807 52.0137 14.5526C52.508 14.2202 53.128 14.054 53.8738 14.054C54.5556 14.054 55.15 14.2031 55.6571 14.5014C56.1685 14.7955 56.5648 15.2195 56.8461 15.7734C57.1316 16.3232 57.2722 16.9815 57.2679 17.7486V24H54.5449V18.2344C54.5492 17.6293 54.3958 17.1584 54.0847 16.8217C53.7779 16.4851 53.3475 16.3168 52.7935 16.3168C52.4228 16.3168 52.0946 16.3956 51.8091 16.5533C51.5279 16.7109 51.3063 16.9411 51.1444 17.2436C50.9867 17.5419 50.9057 17.902 50.9015 18.3239ZM61.0025 24.1662C60.5806 24.1662 60.2184 24.017 59.9158 23.7188C59.6175 23.4162 59.4684 23.054 59.4684 22.6321C59.4684 22.2145 59.6175 21.8565 59.9158 21.5582C60.2184 21.2599 60.5806 21.1108 61.0025 21.1108C61.4116 21.1108 61.7695 21.2599 62.0763 21.5582C62.3832 21.8565 62.5366 22.2145 62.5366 22.6321C62.5366 22.9134 62.4641 23.1712 62.3192 23.4055C62.1786 23.6357 61.9933 23.821 61.7631 23.9616C61.533 24.098 61.2795 24.1662 61.0025 24.1662ZM69.2083 24.1918C68.2026 24.1918 67.3375 23.9787 66.6131 23.5526C65.8929 23.1222 65.339 22.5256 64.9512 21.7628C64.5676 21 64.3759 20.1222 64.3759 19.1293C64.3759 18.1236 64.5698 17.2415 64.9576 16.483C65.3496 15.7202 65.9057 15.1257 66.6259 14.6996C67.3461 14.2692 68.2026 14.054 69.1955 14.054C70.052 14.054 70.802 14.2095 71.4455 14.5206C72.089 14.8317 72.5982 15.2685 72.9732 15.831C73.3482 16.3935 73.5549 17.054 73.5932 17.8125H71.0236C70.9512 17.3224 70.7594 16.9283 70.4483 16.63C70.1415 16.3274 69.7388 16.1761 69.2402 16.1761C68.8184 16.1761 68.4498 16.2912 68.1344 16.5213C67.8233 16.7472 67.5804 17.0774 67.4057 17.5121C67.231 17.9467 67.1436 18.473 67.1436 19.0909C67.1436 19.7173 67.2289 20.25 67.3993 20.6889C67.574 21.1278 67.8191 21.4624 68.1344 21.6925C68.4498 21.9226 68.8184 22.0376 69.2402 22.0376C69.5513 22.0376 69.8304 21.9737 70.0776 21.8459C70.329 21.718 70.5357 21.5327 70.6976 21.2898C70.8638 21.0426 70.9725 20.7464 71.0236 20.4013H73.5932C73.5506 21.1513 73.3461 21.8118 72.9796 22.3828C72.6174 22.9496 72.1167 23.3928 71.4775 23.7124C70.8382 24.032 70.0819 24.1918 69.2083 24.1918ZM79.7727 24.1918C78.7798 24.1918 77.9212 23.9808 77.1967 23.5589C76.4766 23.1328 75.9205 22.5405 75.5284 21.782C75.1364 21.0192 74.9403 20.1349 74.9403 19.1293C74.9403 18.1151 75.1364 17.2287 75.5284 16.4702C75.9205 15.7074 76.4766 15.1151 77.1967 14.6932C77.9212 14.267 78.7798 14.054 79.7727 14.054C80.7656 14.054 81.6222 14.267 82.3423 14.6932C83.0668 15.1151 83.625 15.7074 84.017 16.4702C84.4091 17.2287 84.6051 18.1151 84.6051 19.1293C84.6051 20.1349 84.4091 21.0192 84.017 21.782C83.625 22.5405 83.0668 23.1328 82.3423 23.5589C81.6222 23.9808 80.7656 24.1918 79.7727 24.1918ZM79.7855 22.0824C80.2372 22.0824 80.6143 21.9545 80.9169 21.6989C81.2195 21.4389 81.4474 21.0852 81.6009 20.6378C81.7585 20.1903 81.8374 19.6811 81.8374 19.1101C81.8374 18.5391 81.7585 18.0298 81.6009 17.5824C81.4474 17.1349 81.2195 16.7812 80.9169 16.5213C80.6143 16.2614 80.2372 16.1314 79.7855 16.1314C79.3295 16.1314 78.946 16.2614 78.6349 16.5213C78.3281 16.7812 78.0959 17.1349 77.9382 17.5824C77.7848 18.0298 77.7081 18.5391 77.7081 19.1101C77.7081 19.6811 77.7848 20.1903 77.9382 20.6378C78.0959 21.0852 78.3281 21.4389 78.6349 21.6989C78.946 21.9545 79.3295 22.0824 79.7855 22.0824Z" fill="white"/>
</svg>
