<svg width="132" height="34" viewBox="0 0 132 34" fill="none" xmlns="http://www.w3.org/2000/svg">
<path d="M1.13778 24V10.9091H6.37926C7.34233 10.9091 8.1456 11.0518 8.78906 11.3374C9.43253 11.6229 9.91619 12.0192 10.2401 12.5263C10.5639 13.0291 10.7259 13.6087 10.7259 14.2649C10.7259 14.7763 10.6236 15.2259 10.419 15.6136C10.2145 15.9972 9.93324 16.3125 9.57528 16.5597C9.22159 16.8026 8.81676 16.9751 8.3608 17.0774V17.2053C8.85938 17.2266 9.32599 17.3672 9.76065 17.6271C10.1996 17.8871 10.5554 18.2514 10.8281 18.7202C11.1009 19.1847 11.2372 19.7386 11.2372 20.3821C11.2372 21.0767 11.0646 21.6967 10.7195 22.2422C10.3786 22.7834 9.87358 23.2116 9.20455 23.527C8.53551 23.8423 7.71094 24 6.73082 24H1.13778ZM3.90554 21.7372H6.16193C6.93324 21.7372 7.49574 21.5902 7.84943 21.2962C8.20313 20.9979 8.37997 20.6016 8.37997 20.1072C8.37997 19.745 8.29261 19.4254 8.1179 19.1484C7.94318 18.8714 7.69389 18.6541 7.37003 18.4964C7.05043 18.3388 6.66903 18.2599 6.22585 18.2599H3.90554V21.7372ZM3.90554 16.3871H5.95739C6.33665 16.3871 6.6733 16.321 6.96733 16.1889C7.26563 16.0526 7.5 15.8608 7.67045 15.6136C7.84517 15.3665 7.93253 15.0703 7.93253 14.7251C7.93253 14.2521 7.7642 13.8707 7.42756 13.581C7.09517 13.2912 6.62216 13.1463 6.00852 13.1463H3.90554V16.3871ZM15.71 10.9091V24H12.987V10.9091H15.71ZM20.6911 24.1854C20.0646 24.1854 19.5064 24.0767 19.0163 23.8594C18.5263 23.6378 18.1385 23.3118 17.853 22.8814C17.5717 22.4467 17.4311 21.9055 17.4311 21.2578C17.4311 20.7124 17.5313 20.2543 17.7315 19.8835C17.9318 19.5128 18.2045 19.2145 18.5497 18.9886C18.8949 18.7628 19.2869 18.5923 19.7259 18.4773C20.169 18.3622 20.6335 18.2812 21.1193 18.2344C21.6903 18.1747 22.1506 18.1193 22.5 18.0682C22.8494 18.0128 23.103 17.9318 23.2607 17.8253C23.4183 17.7187 23.4972 17.5611 23.4972 17.3523V17.3139C23.4972 16.9091 23.3693 16.5959 23.1136 16.3743C22.8622 16.1527 22.5043 16.0419 22.0398 16.0419C21.5497 16.0419 21.1598 16.1506 20.87 16.3679C20.5803 16.581 20.3885 16.8494 20.2947 17.1733L17.7763 16.9688C17.9041 16.3722 18.1555 15.8565 18.5305 15.4219C18.9055 14.983 19.3892 14.6463 19.9815 14.4119C20.5781 14.1733 21.2685 14.054 22.0526 14.054C22.598 14.054 23.12 14.1179 23.6186 14.2457C24.1214 14.3736 24.5668 14.5717 24.9545 14.8402C25.3466 15.1087 25.6555 15.4538 25.8814 15.8757C26.1072 16.2933 26.2202 16.794 26.2202 17.3778V24H23.6378V22.6385H23.5611C23.4034 22.9453 23.1925 23.2159 22.9283 23.4503C22.6641 23.6804 22.3466 23.8615 21.9759 23.9936C21.6051 24.1214 21.1768 24.1854 20.6911 24.1854ZM21.4709 22.3061C21.8714 22.3061 22.2251 22.2273 22.532 22.0696C22.8388 21.9077 23.0795 21.6903 23.2543 21.4176C23.429 21.1449 23.5163 20.8359 23.5163 20.4908V19.4489C23.4311 19.5043 23.3139 19.5554 23.1648 19.6023C23.0199 19.6449 22.8558 19.6854 22.6726 19.7237C22.4893 19.7578 22.3061 19.7898 22.1229 19.8196C21.9396 19.8452 21.7734 19.8686 21.6243 19.8899C21.3047 19.9368 21.0256 20.0114 20.7869 20.1136C20.5483 20.2159 20.3629 20.3544 20.2308 20.5291C20.0987 20.6996 20.0327 20.9126 20.0327 21.1683C20.0327 21.5391 20.1669 21.8224 20.4354 22.0185C20.7081 22.2102 21.0533 22.3061 21.4709 22.3061ZM32.7688 24.1918C31.7631 24.1918 30.8981 23.9787 30.1737 23.5526C29.4535 23.1222 28.8995 22.5256 28.5117 21.7628C28.1282 21 27.9364 20.1222 27.9364 19.1293C27.9364 18.1236 28.1303 17.2415 28.5181 16.483C28.9102 15.7202 29.4663 15.1257 30.1864 14.6996C30.9066 14.2692 31.7631 14.054 32.756 14.054C33.6126 14.054 34.3626 14.2095 35.006 14.5206C35.6495 14.8317 36.1587 15.2685 36.5337 15.831C36.9087 16.3935 37.1154 17.054 37.1538 17.8125H34.5842C34.5117 17.3224 34.32 16.9283 34.0089 16.63C33.7021 16.3274 33.2994 16.1761 32.8008 16.1761C32.3789 16.1761 32.0103 16.2912 31.695 16.5213C31.3839 16.7472 31.141 17.0774 30.9663 17.5121C30.7915 17.9467 30.7042 18.473 30.7042 19.0909C30.7042 19.7173 30.7894 20.25 30.9599 20.6889C31.1346 21.1278 31.3796 21.4624 31.695 21.6925C32.0103 21.9226 32.3789 22.0376 32.8008 22.0376C33.1119 22.0376 33.391 21.9737 33.6381 21.8459C33.8896 21.718 34.0962 21.5327 34.2582 21.2898C34.4244 21.0426 34.533 20.7464 34.5842 20.4013H37.1538C37.1112 21.1513 36.9066 21.8118 36.5401 22.3828C36.1779 22.9496 35.6772 23.3928 35.038 23.7124C34.3988 24.032 33.6424 24.1918 32.7688 24.1918ZM41.3645 21.1747L41.3709 17.9084H41.7672L44.9121 14.1818H48.0378L43.8127 19.1165H43.1671L41.3645 21.1747ZM38.8972 24V10.9091H41.6202V24H38.8972ZM45.0336 24L42.1444 19.7237L43.9597 17.7997L48.2232 24H45.0336ZM49.4249 24V10.9091H52.1926V16.3104H57.8113V10.9091H60.5726V24H57.8113V18.5923H52.1926V24H49.4249ZM65.6032 24.1854C64.9767 24.1854 64.4185 24.0767 63.9284 23.8594C63.4384 23.6378 63.0506 23.3118 62.7651 22.8814C62.4838 22.4467 62.3432 21.9055 62.3432 21.2578C62.3432 20.7124 62.4434 20.2543 62.6436 19.8835C62.8439 19.5128 63.1167 19.2145 63.4618 18.9886C63.807 18.7628 64.199 18.5923 64.638 18.4773C65.0811 18.3622 65.5456 18.2812 66.0314 18.2344C66.6025 18.1747 67.0627 18.1193 67.4121 18.0682C67.7615 18.0128 68.0151 17.9318 68.1728 17.8253C68.3304 17.7187 68.4093 17.5611 68.4093 17.3523V17.3139C68.4093 16.9091 68.2814 16.5959 68.0257 16.3743C67.7743 16.1527 67.4164 16.0419 66.9519 16.0419C66.4618 16.0419 66.0719 16.1506 65.7821 16.3679C65.4924 16.581 65.3006 16.8494 65.2069 17.1733L62.6884 16.9688C62.8162 16.3722 63.0676 15.8565 63.4426 15.4219C63.8176 14.983 64.3013 14.6463 64.8936 14.4119C65.4902 14.1733 66.1806 14.054 66.9647 14.054C67.5101 14.054 68.0321 14.1179 68.5307 14.2457C69.0336 14.3736 69.4789 14.5717 69.8667 14.8402C70.2587 15.1087 70.5676 15.4538 70.7935 15.8757C71.0194 16.2933 71.1323 16.794 71.1323 17.3778V24H68.5499V22.6385H68.4732C68.3155 22.9453 68.1046 23.2159 67.8404 23.4503C67.5762 23.6804 67.2587 23.8615 66.888 23.9936C66.5172 24.1214 66.089 24.1854 65.6032 24.1854ZM66.383 22.3061C66.7836 22.3061 67.1373 22.2273 67.4441 22.0696C67.7509 21.9077 67.9917 21.6903 68.1664 21.4176C68.3411 21.1449 68.4284 20.8359 68.4284 20.4908V19.4489C68.3432 19.5043 68.226 19.5554 68.0769 19.6023C67.932 19.6449 67.7679 19.6854 67.5847 19.7237C67.4015 19.7578 67.2182 19.7898 67.035 19.8196C66.8517 19.8452 66.6855 19.8686 66.5364 19.8899C66.2168 19.9368 65.9377 20.0114 65.699 20.1136C65.4604 20.2159 65.275 20.3544 65.1429 20.5291C65.0108 20.6996 64.9448 20.9126 64.9448 21.1683C64.9448 21.5391 65.079 21.8224 65.3475 22.0185C65.6202 22.2102 65.9654 22.3061 66.383 22.3061ZM78.4672 14.1818V16.2273H72.5545V14.1818H78.4672ZM73.8968 11.8295H76.6199V20.983C76.6199 21.2344 76.6582 21.4304 76.7349 21.571C76.8116 21.7074 76.9181 21.8033 77.0545 21.8587C77.1951 21.9141 77.3571 21.9418 77.5403 21.9418C77.6681 21.9418 77.796 21.9311 77.9238 21.9098C78.0517 21.8842 78.1497 21.8651 78.2179 21.8523L78.6461 23.8786C78.5098 23.9212 78.318 23.9702 78.0708 24.0256C77.8237 24.0852 77.5233 24.1214 77.1696 24.1342C76.5133 24.1598 75.938 24.0724 75.4437 23.8722C74.9537 23.6719 74.5723 23.3608 74.2995 22.9389C74.0268 22.517 73.8926 21.9844 73.8968 21.3409V11.8295ZM83.1685 24L79.4228 10.9091H82.4462L84.6131 20.005H84.7218L87.1124 10.9091H89.7012L92.0854 20.0241H92.2005L94.3674 10.9091H97.3908L93.6451 24H90.9476L88.4547 15.4411H88.3525L85.8659 24H83.1685ZM102.202 24.1918C101.21 24.1918 100.351 23.9808 99.6264 23.5589C98.9063 23.1328 98.3501 22.5405 97.9581 21.782C97.5661 21.0192 97.37 20.1349 97.37 19.1293C97.37 18.1151 97.5661 17.2287 97.9581 16.4702C98.3501 15.7074 98.9063 15.1151 99.6264 14.6932C100.351 14.267 101.21 14.054 102.202 14.054C103.195 14.054 104.052 14.267 104.772 14.6932C105.496 15.1151 106.055 15.7074 106.447 16.4702C106.839 17.2287 107.035 18.1151 107.035 19.1293C107.035 20.1349 106.839 21.0192 106.447 21.782C106.055 22.5405 105.496 23.1328 104.772 23.5589C104.052 23.9808 103.195 24.1918 102.202 24.1918ZM102.215 22.0824C102.667 22.0824 103.044 21.9545 103.347 21.6989C103.649 21.4389 103.877 21.0852 104.031 20.6378C104.188 20.1903 104.267 19.6811 104.267 19.1101C104.267 18.5391 104.188 18.0298 104.031 17.5824C103.877 17.1349 103.649 16.7812 103.347 16.5213C103.044 16.2614 102.667 16.1314 102.215 16.1314C101.759 16.1314 101.376 16.2614 101.065 16.5213C100.758 16.7812 100.526 17.1349 100.368 17.5824C100.214 18.0298 100.138 18.5391 100.138 19.1101C100.138 19.6811 100.214 20.1903 100.368 20.6378C100.526 21.0852 100.758 21.4389 101.065 21.6989C101.376 21.9545 101.759 22.0824 102.215 22.0824ZM108.805 24V14.1818H111.445V15.8949H111.548C111.727 15.2855 112.027 14.8253 112.449 14.5142C112.871 14.1989 113.357 14.0412 113.906 14.0412C114.043 14.0412 114.19 14.0497 114.347 14.0668C114.505 14.0838 114.643 14.1072 114.763 14.1371V16.5533C114.635 16.5149 114.458 16.4808 114.232 16.451C114.006 16.4212 113.8 16.4062 113.612 16.4062C113.212 16.4062 112.854 16.4936 112.538 16.6683C112.227 16.8388 111.98 17.0774 111.797 17.3842C111.618 17.6911 111.528 18.0447 111.528 18.4453V24H108.805ZM118.894 10.9091V24H116.171V10.9091H118.894ZM124.693 24.1598C123.947 24.1598 123.272 23.968 122.667 23.5845C122.066 23.1967 121.588 22.6278 121.235 21.8778C120.885 21.1236 120.711 20.1989 120.711 19.1037C120.711 17.9787 120.892 17.0433 121.254 16.2976C121.616 15.5476 122.098 14.9872 122.699 14.6165C123.304 14.2415 123.966 14.054 124.686 14.054C125.236 14.054 125.694 14.1477 126.061 14.3352C126.431 14.5185 126.73 14.7486 126.956 15.0256C127.186 15.2983 127.36 15.5668 127.48 15.831H127.563V10.9091H130.279V24H127.595V22.4276H127.48C127.352 22.7003 127.171 22.9709 126.936 23.2393C126.706 23.5036 126.406 23.723 126.035 23.8977C125.669 24.0724 125.221 24.1598 124.693 24.1598ZM125.556 21.9929C125.995 21.9929 126.365 21.8736 126.668 21.6349C126.975 21.392 127.209 21.0533 127.371 20.6186C127.537 20.1839 127.62 19.6747 127.62 19.0909C127.62 18.5071 127.539 18 127.377 17.5696C127.216 17.1392 126.981 16.8068 126.674 16.5724C126.368 16.3381 125.995 16.2209 125.556 16.2209C125.108 16.2209 124.731 16.3423 124.424 16.5852C124.118 16.8281 123.885 17.1648 123.728 17.5952C123.57 18.0256 123.491 18.5241 123.491 19.0909C123.491 19.6619 123.57 20.1669 123.728 20.6058C123.89 21.0405 124.122 21.3814 124.424 21.6286C124.731 21.8714 125.108 21.9929 125.556 21.9929Z" fill="white"/>
</svg>
