<svg width="52" height="69" viewBox="0 0 52 69" fill="none" xmlns="http://www.w3.org/2000/svg">
<path fill-rule="evenodd" clip-rule="evenodd" d="M9.50805 26.3919C9.50804 17.0129 6.51872 1 16.1765 1H35.2621C42.3904 2.14378 43.3102 8.3202 42.3904 26.3919C44.4599 26.3157 49.0589 26.6207 50.8984 28.4507C51.0824 31.0128 50.9751 54.0714 50.8984 65.2805C45.6097 68.4831 2.83957 69.3066 1 65.2805V28.4507C1.22996 27.9932 3.25352 26.941 9.50805 26.3919ZM17.3262 7.63393C14.9348 6.71891 15.5633 19.3005 16.1765 25.7057H35.7219C35.7219 19.0717 37.5615 6.71891 34.1123 7.63393C29.9733 7.17642 20.5455 7.17642 17.3262 7.63393ZM25.1444 47.895C25.3284 48.078 23.8414 51.0214 23.0749 52.4701H28.5936C28.4403 52.1651 27.8578 50.8231 26.754 47.895C29.9733 45.3787 28.9768 42.4811 27.9038 41.7186C26.984 40.8036 23.8107 40.3461 23.0749 43.0911C22.1551 46.5225 24.9145 47.6663 25.1444 47.895Z" stroke="white" stroke-width="2"/>
</svg>
