<svg width="24" height="24" viewBox="0 0 24 24" fill="none" xmlns="http://www.w3.org/2000/svg">
  <path fill-rule="evenodd" clip-rule="evenodd" d="M12 22C17.5228 22 22 17.5228 22 12C22 6.47715 17.5228 2 12 2C6.47715 2 2 6.47715 2 12C2 17.5228 6.47715 22 12 22ZM17.4713 8.05706C18.0057 7.97294 18.5215 7.79706 19 7.52941C18.6396 8.19471 18.1922 8.77588 17.6702 9.23471C17.6764 9.38 17.6764 9.51765 17.6764 9.66294C17.6764 13.9988 14.9857 19 10.0889 19C8.58509 19 7.18069 18.4571 6 17.5241C6.21128 17.5547 6.42256 17.57 6.63384 17.57C7.83566 17.5771 9.00369 17.0809 9.94598 16.1629C9.3901 16.1505 8.85136 15.9239 8.40551 15.5152C7.95965 15.1064 7.62911 14.536 7.46033 13.8841C7.85809 13.9806 8.26862 13.9623 8.65966 13.8306C7.44168 13.5324 6.52199 12.2018 6.52199 10.6112V10.5882C6.88241 10.8176 7.29254 10.9706 7.73375 10.9706C7.01291 10.3971 6.54685 9.38765 6.54685 8.24824C6.54685 7.65176 6.67734 7.08588 6.90727 6.60412C8.21845 8.58471 10.1883 9.89235 12.4006 10.03C12.3571 9.79294 12.3322 9.54059 12.3322 9.28059C12.3322 7.46824 13.5253 6 14.9857 6C15.7686 6 16.4584 6.38235 16.9493 7.04C17.5521 6.88706 18.1238 6.61941 18.6396 6.23706C18.4407 7.00941 18.0182 7.65176 17.4713 8.05706Z" fill="white"/>
</svg>
