<svg width="64" height="64" viewBox="0 0 64 64" fill="none" xmlns="http://www.w3.org/2000/svg">
<path d="M48 16C53.52 21.44 55.6 29.04 54.2933 36.1333C55.3867 38.0533 56 40.2933 56 42.6667C56 46.2029 54.5952 49.5943 52.0948 52.0948C49.5943 54.5952 46.2029 56 42.6667 56C40.2933 56 38.0533 55.3867 36.1333 54.2933C29.04 55.6 21.44 53.52 16 48C10.48 42.56 8.4 34.96 9.70667 27.8667C8.61333 25.9467 8 23.7067 8 21.3333C8 17.7971 9.40476 14.4057 11.9052 11.9052C14.4057 9.40476 17.7971 8 21.3333 8C23.7067 8 25.9467 8.61333 27.8667 9.70667C34.96 8.4 42.56 10.48 48 16ZM32.1067 45.76C39.76 45.76 43.5733 42.08 43.5733 37.12C43.5733 33.9467 42.08 30.56 36.2933 29.2533L30.9867 28.08C28.96 27.6267 26.6667 27.0133 26.6667 25.12C26.6667 23.2 28.2667 21.8667 31.2 21.8667C37.1467 21.8667 36.5867 25.9467 39.5467 25.9467C41.0933 25.9467 42.4267 25.04 42.4267 23.4667C42.4267 19.8133 36.5867 17.0667 31.6267 17.0667C26.2667 17.0667 20.5333 19.36 20.5333 25.44C20.5333 28.3733 21.5733 31.4933 27.3333 32.9333L34.5067 34.7467C36.6667 35.28 37.2 36.48 37.2 37.6C37.2 39.4133 35.3867 41.2 32.1067 41.2C25.68 41.2 26.56 36.2667 23.12 36.2667C21.5733 36.2667 20.4533 37.3333 20.4533 38.8533C20.4533 41.8133 24 45.76 32.1067 45.76Z" fill="#191919"/>
</svg>
