<svg width="64" height="64" viewBox="0 0 64 64" fill="none" xmlns="http://www.w3.org/2000/svg">
<path d="M32.0007 5.33301C17.2807 5.33301 5.33398 17.2797 5.33398 31.9997C5.33398 46.7197 17.2807 58.6663 32.0007 58.6663C46.7207 58.6663 58.6673 46.7197 58.6673 31.9997C58.6673 17.2797 46.7207 5.33301 32.0007 5.33301ZM44.374 23.4663C43.974 27.6797 42.2407 37.9197 41.3607 42.6397C40.9873 44.6397 40.2407 45.3063 39.5473 45.3863C38.0007 45.5197 36.8273 44.373 35.334 43.3863C32.9873 41.8397 31.654 40.8797 29.3873 39.3863C26.7473 37.653 28.454 36.693 29.974 35.1463C30.374 34.7463 37.2007 28.533 37.334 27.973C37.3525 27.8882 37.35 27.8001 37.3268 27.7165C37.3036 27.6328 37.2603 27.5561 37.2007 27.493C37.0407 27.3597 36.8273 27.413 36.6407 27.4397C36.4007 27.493 32.6673 29.973 25.3873 34.8797C24.3207 35.5997 23.3607 35.973 22.5073 35.9463C21.5473 35.9197 19.734 35.413 18.374 34.9597C16.694 34.4263 15.3873 34.133 15.494 33.1997C15.5473 32.7197 16.214 32.2397 17.4673 31.733C25.254 28.3463 30.4273 26.1063 33.014 25.0397C40.4273 21.9463 41.9473 21.413 42.9607 21.413C43.174 21.413 43.6807 21.4663 44.0007 21.733C44.2673 21.9463 44.3473 22.2397 44.374 22.453C44.3473 22.613 44.4007 23.093 44.374 23.4663Z" fill="#191919"/>
</svg>
