<svg width="36" height="36" viewBox="0 0 36 36" fill="none" xmlns="http://www.w3.org/2000/svg">
<path fill-rule="evenodd" clip-rule="evenodd" d="M36 0.770363V35.1407C36 35.5555 35.643 35.9111 35.2264 35.9111H29.0975C28.919 36.0296 28.681 36.0296 28.443 35.9111H7.08099C6.90248 36.0296 6.66446 36.0296 6.42644 35.9111H0.773551C0.357022 35.9111 0 35.5555 0 35.1407V0.770363C0 0.355548 0.357022 0 0.773551 0H35.286C35.643 0 36 0.355548 36 0.770363ZM34.5124 1.54074H12.0198V5.98519H34.5124V4.56295H19.5174C19.1008 4.56295 18.7438 4.2074 18.7438 3.79259C18.7438 3.37777 19.1008 3.02223 19.5174 3.02223H34.5124V1.54074ZM1.54711 1.54074V5.98519H10.5322V1.54074H1.54711ZM29.6331 34.4889H34.5124V11.3185H7.55702C7.14049 11.3185 6.72396 10.963 6.72396 10.5481C6.72396 10.1333 7.14049 9.77778 7.55702 9.77778H34.5124V7.52591H1.54711V34.3704H6.00992V33.1259C6.00992 32.7704 6.24793 32.4741 6.60496 32.4148L9.34215 31.8222C9.52066 31.1704 9.75868 30.5185 10.1157 29.9259L8.6281 27.5556C8.44959 27.2593 8.50909 26.8444 8.74711 26.6074L10.2347 25.1259C10.4727 24.8889 10.8297 24.8296 11.1868 25.0074L13.5074 26.4889C14.1025 26.1926 14.8165 25.8963 15.4711 25.7185L16.0661 23.0518C16.1256 22.6963 16.4231 22.4593 16.7802 22.4593H18.8628C19.2198 22.4593 19.5174 22.6963 19.5769 23.0518L20.1719 25.7185C20.8264 25.8963 21.481 26.1333 22.1355 26.4889L24.4562 25.0074C24.7537 24.8296 25.1702 24.8889 25.4083 25.1259L26.8364 26.5481C27.0744 26.8444 27.1339 27.2 26.9554 27.4963L25.4678 29.8667C25.8248 30.5185 26.1223 31.1111 26.3008 31.8222L29.038 32.4148C29.395 32.4741 29.6331 32.7704 29.6331 33.1259V34.4889ZM17.8512 31.4667C16.1851 31.4667 14.8165 32.7704 14.638 34.3704H21.005C20.8264 32.7704 19.4579 31.4667 17.8512 31.4667ZM11.5438 30.2222C11.1273 30.9333 10.7702 31.7037 10.5917 32.5333C10.5322 32.7704 10.3537 33.0074 10.0562 33.0667L7.49752 33.6592V34.3111H13.0314C13.2099 31.8815 15.2926 29.8667 17.7917 29.8667C20.2909 29.8667 22.3736 31.8815 22.5521 34.3111H28.0859V33.6592L25.5273 33.0667C25.2893 33.0074 25.0512 32.8296 24.9917 32.5333C24.8132 31.7037 24.5157 30.9333 24.0397 30.2222C23.8612 29.9259 23.8612 29.6296 24.0397 29.3926L25.4083 27.2L24.7537 26.5481L22.5521 27.9111C22.314 28.0889 22.0165 28.0889 21.7785 27.9111C21.005 27.437 20.2314 27.1407 19.3983 26.963C19.1603 26.9037 18.9223 26.7259 18.8628 26.4296L18.2678 23.8815H17.3752L16.7802 26.4296C16.7207 26.6667 16.5421 26.9037 16.2446 26.963C15.4116 27.1407 14.638 27.437 13.8645 27.9111C13.6264 28.0889 13.3289 28.0889 13.0909 27.9111L10.8893 26.5481L10.2347 27.2L11.6033 29.4518C11.7818 29.6889 11.7818 29.9852 11.5438 30.2222Z" fill="#7DDD04"/>
<path fill-rule="evenodd" clip-rule="evenodd" d="M19.5174 14.5792C19.5174 15.5866 18.6844 16.4755 17.6728 16.4755H4.87942C3.86785 16.4755 3.03479 15.5866 3.03479 14.5792C3.03479 13.5718 3.86785 12.7422 4.87942 12.7422H17.6728C18.6844 12.7422 19.5174 13.5718 19.5174 14.5792ZM18.0298 14.5792C18.0298 14.4015 17.8513 14.2237 17.6728 14.2237H4.87942C4.7009 14.2237 4.52239 14.4015 4.52239 14.5792C4.52239 14.757 4.7009 14.9348 4.87942 14.9348H17.6728C17.8513 14.9348 18.0298 14.757 18.0298 14.5792Z" fill="#7DDD04"/>
<path fill-rule="evenodd" clip-rule="evenodd" d="M19.5174 19.0851C19.5174 20.0925 18.6844 20.9221 17.6728 20.9221H4.87942C3.86785 20.9221 3.03479 20.0925 3.03479 19.0851C3.03479 18.0777 3.86785 17.248 4.87942 17.248H17.6728C18.6844 17.248 19.5174 18.0777 19.5174 19.0851ZM18.0298 19.0851C18.0298 18.9073 17.8513 18.7295 17.6728 18.7295H4.87942C4.7009 18.7295 4.52239 18.9073 4.52239 19.0851C4.52239 19.2628 4.7009 19.4406 4.87942 19.4406H17.6728C17.8513 19.4406 18.0298 19.2628 18.0298 19.0851Z" fill="#7DDD04"/>
<path d="M3.80834 11.2614H5.29594C5.71247 11.2614 6.0695 10.9059 6.0695 10.4911C6.0695 10.0763 5.71247 9.7207 5.29594 9.7207H3.80834C3.39181 9.7207 3.03479 10.0763 3.03479 10.4911C3.03479 10.9059 3.39181 11.2614 3.80834 11.2614Z" fill="#7DDD04"/>
<path d="M3.03478 3.02154H4.52238V4.50302H3.03478V3.02154Z" fill="#7DDD04"/>
<path d="M5.29594 3.02154H6.78355V4.50302H5.29594V3.02154Z" fill="#7DDD04"/>
<path d="M7.49755 3.02154H9.04465V4.50302H7.49755V3.02154Z" fill="#7DDD04"/>
</svg>
