<svg width="36" height="36" viewBox="0 0 36 36" fill="none" xmlns="http://www.w3.org/2000/svg">
<g clip-path="url(#clip0_128_7108)">
<path fill-rule="evenodd" clip-rule="evenodd" d="M27.6918 18.3496C27.6918 18.8558 27.2934 19.2354 26.8286 19.2354H21.7816V31.1295H26.0317C26.4965 31.1295 26.895 31.5091 26.895 31.952C26.895 32.3949 26.4965 32.7745 26.0317 32.7745H20.9847C20.5199 32.7745 20.1214 32.3949 20.1214 31.952V19.2354H17.5315C17.3987 19.8681 17.0003 20.3742 16.469 20.8171C17.1995 21.4497 17.6644 22.2722 17.6644 23.2212C17.6644 24.9927 16.137 26.3845 14.2776 26.3845H10.0939V28.156C10.8244 28.4091 11.3557 28.9152 11.6213 29.6111H17.6644C18.1292 29.6111 18.5276 29.9907 18.5276 30.4336C18.5276 30.8765 18.1292 31.2561 17.6644 31.2561H11.6213C11.2892 32.2051 10.3595 32.8378 9.29703 32.8378C8.1681 32.8378 7.23839 32.2051 6.90636 31.2561H0.929699C0.464847 31.2561 0 30.8765 0 30.4336C0 29.9907 0.464847 29.6111 0.929699 29.6111H6.90636C7.17199 28.9152 7.70324 28.4091 8.50013 28.156V26.3845H4.25006C2.39066 26.3845 0.929699 24.9927 0.929699 23.2212C0.929699 22.2722 1.39456 21.3865 2.05863 20.8171C0.531263 19.5517 0.531263 17.2741 2.05863 16.0088C1.39456 15.3761 0.929699 14.5536 0.929699 13.6046C0.929699 11.8332 2.39066 10.378 4.25006 10.378H14.2776C16.137 10.378 17.6644 11.8332 17.6644 13.6046C17.6644 14.5536 17.1995 15.4394 16.469 16.0088C17.0003 16.4516 17.3323 16.9578 17.5315 17.5905H20.1214V5.63303C20.1214 5.19016 20.5199 4.81055 20.9847 4.81055H26.0317C26.4965 4.81055 26.895 5.19016 26.895 5.63303C26.895 6.07589 26.4965 6.45549 26.0317 6.45549H21.848V17.5905H26.895C27.2934 17.5905 27.6918 17.9068 27.6918 18.3496ZM10.1603 30.3071C10.1603 29.8642 9.76188 29.4846 9.29703 29.4846C8.83217 29.4846 8.36733 29.8642 8.36733 30.3071C8.36733 30.7499 8.83217 31.1295 9.29703 31.1295C9.76188 31.1295 10.1603 30.7499 10.1603 30.3071ZM4.25006 15.1863H14.2776C15.2073 15.1863 15.9378 14.4904 15.9378 13.6046C15.9378 12.7189 15.2073 12.023 14.2776 12.023H4.25006C3.32036 12.023 2.58988 12.7189 2.58988 13.6046C2.58988 14.4904 3.32036 15.1863 4.25006 15.1863ZM14.2776 21.5763H4.25006C3.32036 21.5763 2.58988 22.2722 2.58988 23.1579C2.58988 24.0437 3.32036 24.7396 4.25006 24.7396H14.2776C15.2073 24.7396 15.9378 24.0437 15.9378 23.1579C15.9378 22.2722 15.2073 21.5763 14.2776 21.5763ZM14.2776 19.9946C15.2073 19.9946 15.9378 19.2986 15.9378 18.3496C15.9378 17.4639 15.2073 16.768 14.2776 16.768H4.25006C3.32036 16.768 2.58988 17.4639 2.58988 18.3496C2.58988 19.2986 3.32036 19.9946 4.25006 19.9946H14.2776Z" fill="#7DDD04"/>
<path fill-rule="evenodd" clip-rule="evenodd" d="M35.9927 4.11234V6.51649C35.9927 8.28796 34.5317 9.67983 32.6059 9.67983C30.7465 9.67983 29.2856 8.28796 29.2856 6.51649V4.11234C29.2856 3.66947 29.684 3.28988 30.1489 3.28988V2.40415C30.1489 1.07555 31.2778 0 32.6723 0C34.1333 0 35.2622 1.07555 35.2622 2.40415V3.28988C35.6607 3.28988 36.0591 3.60621 35.9927 4.11234ZM31.9419 2.40415V3.28988H33.6684V2.40415C33.6684 1.96128 33.27 1.58167 32.7387 1.58167C32.2739 1.58167 31.8755 1.96128 31.8755 2.40415H31.9419ZM34.3989 4.87155H31.0121V6.45322C31.0121 7.33896 31.7426 8.03489 32.6723 8.03489C33.6684 8.03489 34.3989 7.33896 34.3989 6.45322V4.87155Z" fill="#7DDD04"/>
<path fill-rule="evenodd" clip-rule="evenodd" d="M35.9927 16.8284V19.2958C35.9927 21.0672 34.5318 22.4591 32.6059 22.4591C30.7465 22.4591 29.2856 21.0672 29.2856 19.2958V16.8284C29.2856 16.3855 29.684 16.0059 30.1489 16.0059V15.1834C30.1489 13.8548 31.2778 12.7793 32.6723 12.7793C34.1333 12.7793 35.2622 13.8548 35.2622 15.1834V16.0059C35.6607 16.0059 36.0591 16.3222 35.9927 16.8284ZM31.9419 15.1834V16.0059H33.6685V15.1834C33.6685 14.7406 33.27 14.361 32.7388 14.361C32.2739 14.361 31.8755 14.7406 31.8755 15.1834H31.9419ZM34.3989 17.5876H31.0122V19.2325C31.0122 20.1183 31.7426 20.8142 32.6723 20.8142C33.6684 20.8142 34.3989 20.1183 34.3989 19.2325V17.5876Z" fill="#7DDD04"/>
<path fill-rule="evenodd" clip-rule="evenodd" d="M35.9927 30.3682V32.7724C35.9927 34.6071 34.5318 35.999 32.6059 35.999C30.7465 35.999 29.2856 34.6071 29.2856 32.7724V30.3682C29.2856 29.9253 29.684 29.5457 30.1489 29.5457V28.7233C30.1489 27.3947 31.2778 26.2559 32.6723 26.2559C34.1333 26.2559 35.2622 27.3947 35.2622 28.7233V29.5457C35.6607 29.5457 36.0591 29.9253 35.9927 30.3682ZM31.9419 28.7865V29.609H33.6685V28.7865C33.6685 28.3437 33.27 27.9641 32.7388 27.9641C32.2739 27.9641 31.8755 28.3437 31.8755 28.7865H31.9419ZM34.3989 31.1274H31.0122V32.7091C31.0122 33.5948 31.7426 34.354 32.6723 34.354C33.6684 34.354 34.3989 33.5948 34.3989 32.7091V31.1274Z" fill="#7DDD04"/>
<path d="M4.25006 12.8418H10.1603V14.4235H4.25006V12.8418Z" fill="#7DDD04"/>
<path d="M12.6173 12.8418H14.2775V14.4235H12.6173V12.8418Z" fill="#7DDD04"/>
<path d="M4.25006 17.5898H10.1603V19.2348H4.25006V17.5898Z" fill="#7DDD04"/>
<path d="M12.6173 17.5898H14.2775V19.2348H12.6173V17.5898Z" fill="#7DDD04"/>
<path d="M4.25006 22.3965H10.1603V23.9782H4.25006V22.3965Z" fill="#7DDD04"/>
<path d="M12.6173 22.3965H14.2775V23.9782H12.6173V22.3965Z" fill="#7DDD04"/>
</g>
<defs>
<clipPath id="clip0_128_7108">
<rect width="36" height="36" fill="white"/>
</clipPath>
</defs>
</svg>
