<svg width="93" height="106" viewBox="0 0 93 106" fill="none" xmlns="http://www.w3.org/2000/svg">
<path opacity="0.1" d="M46.1393 21.396L0.333252 29.2884V49H92.3333V1L46.1393 21.396Z" fill="#8FFF00"/>
<rect x="92.3357" y="49" width="1" height="90" transform="rotate(90 92.3357 49)" fill="#7F7F7F"/>
<rect x="92.3333" y="35" width="1" height="89" transform="rotate(90 92.3333 35)" fill="#7F7F7F"/>
<rect x="92.3333" y="17" width="1" height="90" transform="rotate(90 92.3333 17)" fill="#7F7F7F"/>
<rect x="92.3333" y="1" width="1" height="90" transform="rotate(90 92.3333 1)" fill="#7F7F7F"/>
<path d="M2.62296 44.7795L45.9205 33.1009L88.6797 15.8272" stroke="#8FFF00" stroke-width="5" stroke-linecap="round" stroke-linejoin="round"/>
<rect x="15.3333" y="103" width="4" height="3" rx="1.5" fill="#8FFF00"/>
<rect x="27.3333" y="102" width="4" height="4" rx="2" fill="#8FFF00"/>
<rect x="39.3333" y="98" width="4" height="8" rx="2" fill="#8FFF00"/>
<rect x="51.3333" y="98" width="4" height="8" rx="2" fill="#8FFF00"/>
<rect x="63.3333" y="87" width="4" height="19" rx="2" fill="#8FFF00"/>
<rect x="75.3333" y="65" width="4" height="41" rx="2" fill="#8FFF00"/>
</svg>
