<svg width="84" height="15" viewBox="0 0 84 15" fill="none" xmlns="http://www.w3.org/2000/svg">
<path d="M12.0437 5.65039H9.24396C9.19283 5.28817 9.08842 4.96644 8.93075 4.68519C8.77308 4.39968 8.57067 4.15678 8.32351 3.9565C8.07635 3.75621 7.79084 3.6028 7.46697 3.49627C7.14737 3.38974 6.80007 3.33647 6.42507 3.33647C5.74751 3.33647 5.15732 3.50479 4.65447 3.84144C4.15163 4.17383 3.76172 4.65962 3.48473 5.29883C3.20774 5.93377 3.06925 6.70508 3.06925 7.61275C3.06925 8.54599 3.20774 9.33008 3.48473 9.96502C3.76598 10.6 4.15803 11.0794 4.66087 11.4032C5.16371 11.7271 5.74538 11.889 6.40589 11.889C6.77663 11.889 7.11967 11.84 7.43501 11.742C7.75462 11.644 8.038 11.5012 8.28516 11.3137C8.53232 11.122 8.73686 10.8897 8.89879 10.617C9.06499 10.3443 9.18004 10.0332 9.24396 9.68377L12.0437 9.69656C11.9712 10.2974 11.7901 10.877 11.5004 11.4352C11.2148 11.9892 10.8292 12.4856 10.3434 12.9245C9.86186 13.3592 9.28658 13.7044 8.61754 13.96C7.95277 14.2115 7.20064 14.3372 6.36115 14.3372C5.19354 14.3372 4.1495 14.073 3.22905 13.5446C2.31286 13.0162 1.58842 12.2512 1.05575 11.2498C0.527344 10.2484 0.263139 9.03604 0.263139 7.61275C0.263139 6.18519 0.531605 4.9707 1.06854 3.96928C1.60547 2.96786 2.33416 2.20508 3.25462 1.68093C4.17507 1.15252 5.21058 0.888316 6.36115 0.888316C7.11967 0.888316 7.8228 0.99485 8.47053 1.20792C9.12251 1.42099 9.69993 1.73207 10.2028 2.14116C10.7056 2.54599 11.1147 3.04244 11.43 3.6305C11.7496 4.21857 11.9542 4.89187 12.0437 5.65039ZM16.7003 1.06729V14.1582H13.9773V1.06729H16.7003ZM25.1777 9.97781V4.34002H27.9007V14.1582H25.2864V12.3748H25.1841C24.9625 12.9501 24.5939 13.4125 24.0783 13.7619C23.5669 14.1113 22.9426 14.286 22.2054 14.286C21.5492 14.286 20.9718 14.1369 20.4732 13.8386C19.9746 13.5403 19.5847 13.1163 19.3034 12.5666C19.0265 12.0169 18.8858 11.3585 18.8816 10.5914V4.34002H21.6046V10.1056C21.6088 10.6852 21.7644 11.1433 22.0712 11.4799C22.378 11.8166 22.7892 11.9849 23.3049 11.9849C23.633 11.9849 23.9398 11.9103 24.2253 11.7612C24.5108 11.6078 24.7409 11.3819 24.9157 11.0836C25.0946 10.7853 25.182 10.4167 25.1777 9.97781ZM35.3011 4.34002V6.38548H29.3885V4.34002H35.3011ZM30.7308 1.98775H33.4538V11.1412C33.4538 11.3926 33.4922 11.5886 33.5689 11.7292C33.6456 11.8656 33.7521 11.9615 33.8885 12.0169C34.0291 12.0723 34.1911 12.1 34.3743 12.1C34.5021 12.1 34.63 12.0893 34.7578 12.068C34.8857 12.0424 34.9837 12.0233 35.0518 12.0105L35.4801 14.0368C35.3438 14.0794 35.152 14.1284 34.9048 14.1838C34.6577 14.2434 34.3572 14.2797 34.0036 14.2924C33.3473 14.318 32.772 14.2306 32.2777 14.0304C31.7876 13.8301 31.4063 13.519 31.1335 13.0971C30.8608 12.6752 30.7266 12.1426 30.7308 11.4991V1.98775ZM41.4055 14.35C40.3999 14.35 39.5348 14.1369 38.8104 13.7108C38.0902 13.2804 37.5362 12.6838 37.1484 11.921C36.7649 11.1582 36.5732 10.2804 36.5732 9.28746C36.5732 8.28178 36.767 7.39968 37.1548 6.64116C37.5469 5.87837 38.103 5.28391 38.8232 4.85778C39.5433 4.42738 40.3999 4.21218 41.3928 4.21218C42.2493 4.21218 42.9993 4.36772 43.6428 4.6788C44.2862 4.98988 44.7955 5.42667 45.1705 5.98917C45.5455 6.55167 45.7521 7.21218 45.7905 7.9707H43.2209C43.1484 7.48065 42.9567 7.08647 42.6456 6.78817C42.3388 6.48562 41.9361 6.33434 41.4375 6.33434C41.0156 6.33434 40.647 6.4494 40.3317 6.67951C40.0206 6.90536 39.7777 7.23562 39.603 7.67028C39.4283 8.10494 39.3409 8.63121 39.3409 9.24911C39.3409 9.87553 39.4261 10.4082 39.5966 10.8471C39.7713 11.286 40.0163 11.6206 40.3317 11.8507C40.647 12.0808 41.0156 12.1958 41.4375 12.1958C41.7486 12.1958 42.0277 12.1319 42.2749 12.0041C42.5263 11.8762 42.733 11.6909 42.8949 11.448C43.0611 11.2008 43.1697 10.9047 43.2209 10.5595H45.7905C45.7479 11.3095 45.5433 11.97 45.1768 12.541C44.8146 13.1078 44.3139 13.551 43.6747 13.8706C43.0355 14.1902 42.2791 14.35 41.4055 14.35ZM50.2569 8.48207V14.1582H47.5339V1.06729H50.1802V6.07227H50.2953C50.5169 5.49272 50.8748 5.03888 51.3691 4.71076C51.8635 4.37837 52.4835 4.21218 53.2292 4.21218C53.911 4.21218 54.5055 4.36133 55.0126 4.65962C55.524 4.95366 55.9203 5.37766 56.2015 5.93164C56.487 6.48136 56.6277 7.13974 56.6234 7.90678V14.1582H53.9004V8.39258C53.9047 7.78746 53.7512 7.31658 53.4402 6.97994C53.1333 6.64329 52.7029 6.47496 52.149 6.47496C51.7782 6.47496 51.4501 6.5538 51.1646 6.71147C50.8833 6.86914 50.6618 7.09925 50.4998 7.40181C50.3422 7.70011 50.2612 8.06019 50.2569 8.48207ZM60.358 14.3244C59.9361 14.3244 59.5739 14.1752 59.2713 13.877C58.973 13.5744 58.8239 13.2122 58.8239 12.7903C58.8239 12.3727 58.973 12.0147 59.2713 11.7164C59.5739 11.4181 59.9361 11.269 60.358 11.269C60.767 11.269 61.125 11.4181 61.4318 11.7164C61.7386 12.0147 61.892 12.3727 61.892 12.7903C61.892 13.0716 61.8196 13.3294 61.6747 13.5637C61.5341 13.7939 61.3487 13.9792 61.1186 14.1199C60.8885 14.2562 60.6349 14.3244 60.358 14.3244ZM68.5637 14.35C67.5581 14.35 66.693 14.1369 65.9686 13.7108C65.2484 13.2804 64.6944 12.6838 64.3066 11.921C63.9231 11.1582 63.7314 10.2804 63.7314 9.28746C63.7314 8.28178 63.9252 7.39968 64.313 6.64116C64.7051 5.87837 65.2612 5.28391 65.9814 4.85778C66.7015 4.42738 67.5581 4.21218 68.551 4.21218C69.4075 4.21218 70.1575 4.36772 70.801 4.6788C71.4444 4.98988 71.9537 5.42667 72.3287 5.98917C72.7037 6.55167 72.9103 7.21218 72.9487 7.9707H70.3791C70.3066 7.48065 70.1149 7.08647 69.8038 6.78817C69.497 6.48562 69.0943 6.33434 68.5957 6.33434C68.1738 6.33434 67.8052 6.4494 67.4899 6.67951C67.1788 6.90536 66.9359 7.23562 66.7612 7.67028C66.5865 8.10494 66.4991 8.63121 66.4991 9.24911C66.4991 9.87553 66.5843 10.4082 66.7548 10.8471C66.9295 11.286 67.1745 11.6206 67.4899 11.8507C67.8052 12.0808 68.1738 12.1958 68.5957 12.1958C68.9068 12.1958 69.1859 12.1319 69.4331 12.0041C69.6845 11.8762 69.8912 11.6909 70.0531 11.448C70.2193 11.2008 70.3279 10.9047 70.3791 10.5595H72.9487C72.9061 11.3095 72.7015 11.97 72.3351 12.541C71.9728 13.1078 71.4721 13.551 70.8329 13.8706C70.1937 14.1902 69.4373 14.35 68.5637 14.35ZM79.1282 14.35C78.1353 14.35 77.2766 14.139 76.5522 13.7172C75.832 13.291 75.2759 12.6987 74.8839 11.9402C74.4918 11.1774 74.2958 10.2931 74.2958 9.28746C74.2958 8.27326 74.4918 7.3869 74.8839 6.62837C75.2759 5.86559 75.832 5.27326 76.5522 4.85138C77.2766 4.42525 78.1353 4.21218 79.1282 4.21218C80.1211 4.21218 80.9776 4.42525 81.6978 4.85138C82.4222 5.27326 82.9805 5.86559 83.3725 6.62837C83.7646 7.3869 83.9606 8.27326 83.9606 9.28746C83.9606 10.2931 83.7646 11.1774 83.3725 11.9402C82.9805 12.6987 82.4222 13.291 81.6978 13.7172C80.9776 14.139 80.1211 14.35 79.1282 14.35ZM79.141 12.2406C79.5927 12.2406 79.9698 12.1127 80.2724 11.8571C80.5749 11.5971 80.8029 11.2434 80.9563 10.796C81.114 10.3485 81.1928 9.83931 81.1928 9.26829C81.1928 8.69727 81.114 8.18803 80.9563 7.74059C80.8029 7.29315 80.5749 6.93945 80.2724 6.67951C79.9698 6.41957 79.5927 6.28959 79.141 6.28959C78.685 6.28959 78.3015 6.41957 77.9904 6.67951C77.6836 6.93945 77.4513 7.29315 77.2937 7.74059C77.1403 8.18803 77.0636 8.69727 77.0636 9.26829C77.0636 9.83931 77.1403 10.3485 77.2937 10.796C77.4513 11.2434 77.6836 11.5971 77.9904 11.8571C78.3015 12.1127 78.685 12.2406 79.141 12.2406Z" fill="white"/>
</svg>
