<svg width="130" height="14" viewBox="0 0 130 14" fill="none" xmlns="http://www.w3.org/2000/svg">
<path d="M0.421964 13.1582V0.0672936H5.66344C6.62651 0.0672936 7.42978 0.210049 8.07324 0.495561C8.71671 0.781072 9.20037 1.17738 9.52424 1.68448C9.8481 2.18732 10.01 2.76687 10.01 3.42312C10.01 3.93448 9.90776 4.38406 9.70321 4.77184C9.49867 5.15536 9.21742 5.4707 8.85946 5.71786C8.50577 5.96076 8.10094 6.13334 7.64498 6.23562V6.36346C8.14355 6.38477 8.61017 6.52539 9.04483 6.78533C9.48375 7.04528 9.83958 7.40962 10.1123 7.87837C10.385 8.34286 10.5214 8.89684 10.5214 9.54031C10.5214 10.2349 10.3488 10.8549 10.0036 11.4004C9.66273 11.9416 9.15776 12.3699 8.48872 12.6852C7.81969 13.0005 6.99512 13.1582 6.015 13.1582H0.421964ZM3.18972 10.8954H5.44611C6.21742 10.8954 6.77992 10.7484 7.13361 10.4544C7.48731 10.1561 7.66415 9.75977 7.66415 9.26545C7.66415 8.90323 7.57679 8.58363 7.40208 8.30664C7.22736 8.02965 6.97807 7.81232 6.65421 7.65465C6.33461 7.49698 5.95321 7.41815 5.51003 7.41815H3.18972V10.8954ZM3.18972 5.54528H5.24157C5.62083 5.54528 5.95748 5.47923 6.25151 5.34712C6.54981 5.21076 6.78418 5.019 6.95463 4.77184C7.12935 4.52468 7.21671 4.22852 7.21671 3.88335C7.21671 3.41033 7.04838 3.02894 6.71174 2.73917C6.37935 2.4494 5.90634 2.30451 5.2927 2.30451H3.18972V5.54528ZM14.9942 0.0672936V13.1582H12.2712V0.0672936H14.9942ZM19.9752 13.3436C19.3488 13.3436 18.7906 13.2349 18.3005 13.0176C17.8105 12.796 17.4227 12.47 17.1372 12.0396C16.8559 11.6049 16.7153 11.0637 16.7153 10.416C16.7153 9.87056 16.8154 9.41246 17.0157 9.04173C17.216 8.67099 17.4887 8.37269 17.8339 8.14684C18.1791 7.92099 18.5711 7.75053 19.01 7.63548C19.4532 7.52042 19.9177 7.43945 20.4035 7.39258C20.9745 7.33292 21.4347 7.27752 21.7842 7.22638C22.1336 7.17099 22.3872 7.09002 22.5448 6.98349C22.7025 6.87695 22.7813 6.71928 22.7813 6.51048V6.47212C22.7813 6.06729 22.6535 5.75408 22.3978 5.53249C22.1464 5.3109 21.7884 5.20011 21.324 5.20011C20.8339 5.20011 20.444 5.30877 20.1542 5.5261C19.8644 5.73917 19.6727 6.00763 19.5789 6.3315L17.0605 6.12695C17.1883 5.53036 17.4397 5.01474 17.8147 4.58008C18.1897 4.14116 18.6734 3.80451 19.2657 3.57013C19.8623 3.3315 20.5526 3.21218 21.3367 3.21218C21.8822 3.21218 22.4042 3.2761 22.9028 3.40394C23.4056 3.53178 23.8509 3.72994 24.2387 3.9984C24.6308 4.26687 24.9397 4.61204 25.1656 5.03391C25.3914 5.45153 25.5043 5.95224 25.5043 6.53604V13.1582H22.922V11.7967H22.8453C22.6876 12.1035 22.4767 12.3741 22.2124 12.6085C21.9482 12.8386 21.6308 13.0197 21.26 13.1518C20.8893 13.2797 20.461 13.3436 19.9752 13.3436ZM20.7551 11.4643C21.1556 11.4643 21.5093 11.3855 21.8161 11.2278C22.123 11.0659 22.3637 10.8485 22.5384 10.5758C22.7132 10.3031 22.8005 9.99414 22.8005 9.64897V8.60707C22.7153 8.66246 22.5981 8.7136 22.449 8.76048C22.3041 8.80309 22.14 8.84357 21.9568 8.88192C21.7735 8.91602 21.5903 8.94798 21.407 8.97781C21.2238 9.00337 21.0576 9.02681 20.9085 9.04812C20.5889 9.09499 20.3097 9.16957 20.0711 9.27184C19.8325 9.37411 19.6471 9.51261 19.515 9.68732C19.3829 9.85778 19.3169 10.0708 19.3169 10.3265C19.3169 10.6973 19.4511 10.9806 19.7195 11.1767C19.9923 11.3684 20.3374 11.4643 20.7551 11.4643ZM32.053 13.35C31.0473 13.35 30.1823 13.1369 29.4578 12.7108C28.7377 12.2804 28.1837 11.6838 27.7959 10.921C27.4124 10.1582 27.2206 9.28036 27.2206 8.28746C27.2206 7.28178 27.4145 6.39968 27.8023 5.64116C28.1943 4.87837 28.7504 4.28391 29.4706 3.85778C30.1908 3.42738 31.0473 3.21218 32.0402 3.21218C32.8968 3.21218 33.6468 3.36772 34.2902 3.6788C34.9337 3.98988 35.4429 4.42667 35.8179 4.98917C36.1929 5.55167 36.3996 6.21218 36.4379 6.9707H33.8683C33.7959 6.48065 33.6041 6.08647 33.2931 5.78817C32.9862 5.48562 32.5835 5.33434 32.085 5.33434C31.6631 5.33434 31.2945 5.4494 30.9791 5.67951C30.6681 5.90536 30.4252 6.23562 30.2504 6.67028C30.0757 7.10494 29.9884 7.63121 29.9884 8.24911C29.9884 8.87553 30.0736 9.4082 30.2441 9.84712C30.4188 10.286 30.6638 10.6206 30.9791 10.8507C31.2945 11.0808 31.6631 11.1958 32.085 11.1958C32.396 11.1958 32.6752 11.1319 32.9223 11.0041C33.1737 10.8762 33.3804 10.6909 33.5423 10.448C33.7085 10.2008 33.8172 9.90465 33.8683 9.55948H36.4379C36.3953 10.3095 36.1908 10.97 35.8243 11.541C35.4621 12.1078 34.9614 12.551 34.3222 12.8706C33.683 13.1902 32.9266 13.35 32.053 13.35ZM40.6487 10.3329L40.6551 7.06658H41.0514L44.1963 3.34002H47.322L43.0969 8.27468H42.4513L40.6487 10.3329ZM38.1814 13.1582V0.0672936H40.9044V13.1582H38.1814ZM44.3177 13.1582L41.4285 8.88192L43.2439 6.95792L47.5074 13.1582H44.3177ZM48.7091 13.1582V0.0672936H51.4768V5.46857H57.0954V0.0672936H59.8568V13.1582H57.0954V7.75053H51.4768V13.1582H48.7091ZM64.8873 13.3436C64.2609 13.3436 63.7027 13.2349 63.2126 13.0176C62.7226 12.796 62.3348 12.47 62.0493 12.0396C61.768 11.6049 61.6274 11.0637 61.6274 10.416C61.6274 9.87056 61.7275 9.41246 61.9278 9.04173C62.1281 8.67099 62.4008 8.37269 62.746 8.14684C63.0912 7.92099 63.4832 7.75053 63.9221 7.63548C64.3653 7.52042 64.8298 7.43945 65.3156 7.39258C65.8866 7.33292 66.3469 7.27752 66.6963 7.22638C67.0457 7.17099 67.2993 7.09002 67.4569 6.98349C67.6146 6.87695 67.6934 6.71928 67.6934 6.51048V6.47212C67.6934 6.06729 67.5656 5.75408 67.3099 5.53249C67.0585 5.3109 66.7006 5.20011 66.2361 5.20011C65.746 5.20011 65.3561 5.30877 65.0663 5.5261C64.7765 5.73917 64.5848 6.00763 64.491 6.3315L61.9726 6.12695C62.1004 5.53036 62.3518 5.01474 62.7268 4.58008C63.1018 4.14116 63.5855 3.80451 64.1778 3.57013C64.7744 3.3315 65.4648 3.21218 66.2488 3.21218C66.7943 3.21218 67.3163 3.2761 67.8149 3.40394C68.3177 3.53178 68.7631 3.72994 69.1508 3.9984C69.5429 4.26687 69.8518 4.61204 70.0777 5.03391C70.3035 5.45153 70.4165 5.95224 70.4165 6.53604V13.1582H67.8341V11.7967H67.7574C67.5997 12.1035 67.3888 12.3741 67.1246 12.6085C66.8604 12.8386 66.5429 13.0197 66.1721 13.1518C65.8014 13.2797 65.3731 13.3436 64.8873 13.3436ZM65.6672 11.4643C66.0677 11.4643 66.4214 11.3855 66.7282 11.2278C67.0351 11.0659 67.2758 10.8485 67.4506 10.5758C67.6253 10.3031 67.7126 9.99414 67.7126 9.64897V8.60707C67.6274 8.66246 67.5102 8.7136 67.3611 8.76048C67.2162 8.80309 67.0521 8.84357 66.8689 8.88192C66.6856 8.91602 66.5024 8.94798 66.3192 8.97781C66.1359 9.00337 65.9697 9.02681 65.8206 9.04812C65.501 9.09499 65.2219 9.16957 64.9832 9.27184C64.7446 9.37411 64.5592 9.51261 64.4271 9.68732C64.295 9.85778 64.229 10.0708 64.229 10.3265C64.229 10.6973 64.3632 10.9806 64.6317 11.1767C64.9044 11.3684 65.2496 11.4643 65.6672 11.4643ZM77.7513 3.34002V5.38548H71.8387V3.34002H77.7513ZM73.181 0.987748H75.904V10.1412C75.904 10.3926 75.9424 10.5886 76.0191 10.7292C76.0958 10.8656 76.2023 10.9615 76.3387 11.0169C76.4793 11.0723 76.6412 11.1 76.8245 11.1C76.9523 11.1 77.0802 11.0893 77.208 11.068C77.3358 11.0424 77.4339 11.0233 77.502 11.0105L77.9303 13.0368C77.7939 13.0794 77.6022 13.1284 77.355 13.1838C77.1079 13.2434 76.8074 13.2797 76.4537 13.2924C75.7975 13.318 75.2222 13.2306 74.7279 13.0304C74.2378 12.8301 73.8564 12.519 73.5837 12.0971C73.311 11.6752 73.1768 11.1426 73.181 10.4991V0.987748ZM82.4527 13.1582L78.7069 0.0672936H81.7304L83.8973 9.16317H84.0059L86.3966 0.0672936H88.9854L91.3696 9.18235H91.4846L93.6515 0.0672936H96.675L92.9292 13.1582H90.2318L87.7389 4.59925H87.6366L85.1501 13.1582H82.4527ZM101.487 13.35C100.494 13.35 99.635 13.139 98.9106 12.7172C98.1904 12.291 97.6343 11.6987 97.2423 10.9402C96.8502 10.1774 96.6542 9.29315 96.6542 8.28746C96.6542 7.27326 96.8502 6.3869 97.2423 5.62837C97.6343 4.86559 98.1904 4.27326 98.9106 3.85138C99.635 3.42525 100.494 3.21218 101.487 3.21218C102.479 3.21218 103.336 3.42525 104.056 3.85138C104.781 4.27326 105.339 4.86559 105.731 5.62837C106.123 6.3869 106.319 7.27326 106.319 8.28746C106.319 9.29315 106.123 10.1774 105.731 10.9402C105.339 11.6987 104.781 12.291 104.056 12.7172C103.336 13.139 102.479 13.35 101.487 13.35ZM101.499 11.2406C101.951 11.2406 102.328 11.1127 102.631 10.8571C102.933 10.5971 103.161 10.2434 103.315 9.79599C103.472 9.34854 103.551 8.83931 103.551 8.26829C103.551 7.69727 103.472 7.18803 103.315 6.74059C103.161 6.29315 102.933 5.93945 102.631 5.67951C102.328 5.41957 101.951 5.28959 101.499 5.28959C101.043 5.28959 100.66 5.41957 100.349 5.67951C100.042 5.93945 99.8097 6.29315 99.6521 6.74059C99.4987 7.18803 99.422 7.69727 99.422 8.26829C99.422 8.83931 99.4987 9.34854 99.6521 9.79599C99.8097 10.2434 100.042 10.5971 100.349 10.8571C100.66 11.1127 101.043 11.2406 101.499 11.2406ZM108.09 13.1582V3.34002H110.729V5.05309H110.832C111.011 4.44371 111.311 3.98349 111.733 3.67241C112.155 3.35707 112.641 3.1994 113.19 3.1994C113.327 3.1994 113.474 3.20792 113.631 3.22496C113.789 3.24201 113.928 3.26545 114.047 3.29528V5.71147C113.919 5.67312 113.742 5.63903 113.516 5.6092C113.291 5.57937 113.084 5.56445 112.896 5.56445C112.496 5.56445 112.138 5.65181 111.823 5.82653C111.511 5.99698 111.264 6.23562 111.081 6.54244C110.902 6.84925 110.813 7.20295 110.813 7.60352V13.1582H108.09ZM118.178 0.0672936V13.1582H115.455V0.0672936H118.178ZM123.977 13.318C123.231 13.318 122.556 13.1262 121.951 12.7427C121.35 12.3549 120.873 11.786 120.519 11.036C120.169 10.2818 119.995 9.35707 119.995 8.2619C119.995 7.1369 120.176 6.20153 120.538 5.45579C120.9 4.70579 121.382 4.14542 121.983 3.77468C122.588 3.39968 123.25 3.21218 123.971 3.21218C124.52 3.21218 124.978 3.30593 125.345 3.49343C125.716 3.67667 126.014 3.90678 126.24 4.18377C126.47 4.4565 126.645 4.72496 126.764 4.98917H126.847V0.0672936H129.564V13.1582H126.879V11.5858H126.764C126.636 11.8585 126.455 12.1291 126.221 12.3975C125.991 12.6618 125.69 12.8812 125.319 13.0559C124.953 13.2306 124.505 13.318 123.977 13.318ZM124.84 11.1511C125.279 11.1511 125.65 11.0318 125.952 10.7931C126.259 10.5502 126.493 10.2115 126.655 9.77681C126.821 9.34215 126.905 8.83292 126.905 8.24911C126.905 7.66531 126.824 7.1582 126.662 6.7278C126.5 6.29741 126.265 5.96502 125.959 5.73065C125.652 5.49627 125.279 5.37908 124.84 5.37908C124.392 5.37908 124.015 5.50053 123.709 5.74343C123.402 5.98633 123.169 6.32298 123.012 6.75337C122.854 7.18377 122.775 7.68235 122.775 8.24911C122.775 8.82013 122.854 9.32511 123.012 9.76403C123.174 10.1987 123.406 10.5396 123.709 10.7868C124.015 11.0297 124.392 11.1511 124.84 11.1511Z" fill="white"/>
</svg>
