<svg width="124" height="100" viewBox="0 0 124 100" fill="none" xmlns="http://www.w3.org/2000/svg">
<path fill-rule="evenodd" clip-rule="evenodd" d="M93 70.4616C93 77.8565 86.5242 84 78.7292 84C75.0116 84 71.4139 82.6348 68.7756 80.1319C60.0213 83.3174 46.7099 83.2036 38.1954 79.7906C33.5184 77.9703 31 75.3536 31 72.5094V24.8409C31 21.9967 33.5184 19.38 38.1954 17.5598C46.9497 14.1467 60.9806 14.1467 69.735 17.5598C74.292 19.2663 76.8105 21.6554 77.0503 24.3858C77.1702 24.4996 77.1702 24.7271 77.1702 24.8409V57.0371C85.5648 56.127 93 62.3842 93 70.4616ZM64.8182 67.845C65.7776 63.0668 69.2553 59.1987 74.1721 57.6059V54.3066C72.9729 55.103 71.5339 55.8994 69.855 56.582C61.2205 59.995 47.1896 59.995 38.3153 56.582C36.6364 55.8994 35.1973 55.103 34.118 54.3066V61.8153C34.118 63.4081 36.0367 65.1146 39.3946 66.4798C46.47 69.4377 57.0232 69.6653 64.8182 67.845ZM33.9981 29.9605V37.1278C33.9981 38.7205 35.9169 40.5408 39.2747 41.906C47.4294 45.0915 60.6209 45.0915 68.5358 41.906C71.7737 40.5408 73.9323 38.7205 73.9323 37.1278C73.9323 36.9003 74.0522 36.7865 74.0522 36.6727V29.9605C72.7331 30.8706 71.4139 31.5532 69.735 32.2358C61.1006 35.6488 47.0696 35.6488 38.1954 32.2358C36.3965 31.4394 35.0774 30.6431 33.9981 29.9605ZM34.118 42.3611V49.3009C34.118 50.8937 36.0367 52.6002 39.3946 54.0792C47.5493 57.2647 60.7408 57.2647 68.6557 54.0792C71.8936 52.6002 74.0522 50.8937 74.0522 49.3009C74.0522 49.0734 74.1721 48.9596 74.1721 48.8458V42.2473C65.5377 48.7321 42.5126 48.6183 34.118 42.3611ZM33.9981 24.8409C33.9981 26.5474 35.9169 28.254 39.2747 29.6192C47.4294 32.8047 60.6209 32.8047 68.5358 29.6192C68.6557 29.6192 68.7757 29.5054 68.8956 29.5054C71.8937 28.2539 73.8124 26.7749 74.0522 25.1822C74.0522 25.1064 74.0522 24.9926 74.0522 24.8409C74.0522 23.2482 72.0136 21.5416 68.6557 20.1764C60.6209 16.9909 47.4294 16.9909 39.3946 20.1764C36.0367 21.4278 33.9981 23.2482 33.9981 24.8409ZM66.8569 77.8565C65.5377 75.9225 64.6982 73.5334 64.5783 70.9167C56.4236 72.6232 45.7505 72.2819 38.3153 69.324C36.6364 68.6414 35.1973 67.845 34.118 66.9349V72.5094C34.118 74.1022 36.0367 75.8087 39.3946 77.174C47.0696 80.1319 58.8221 80.2456 66.8569 77.8565ZM90.0019 70.4616C90.0019 64.5457 84.8452 59.7675 78.7292 59.7675C72.4932 59.7675 67.4565 64.432 67.4565 70.4616C67.4565 76.3775 72.4932 81.042 78.7292 81.042C84.8452 81.042 90.0019 76.2638 90.0019 70.4616Z" fill="#7DDD04"/>
<path d="M84.006 66.2587L76.6908 72.8573L73.3329 69.4443C72.7333 68.8754 71.8938 68.7616 71.1743 69.3305C70.5747 69.8993 70.4548 70.6957 71.0544 71.3783L75.3716 75.929C75.9712 76.4978 76.9306 76.6116 77.5302 76.0428L85.9248 68.5341C86.5244 67.9652 86.5244 66.9414 86.0447 66.3725C85.565 65.8037 84.6056 65.6899 84.006 66.2587Z" fill="#7DDD04"/>
<path d="M46.9502 38.6055H50.0682V41.6772H46.9502V38.6055Z" fill="#7DDD04"/>
<path d="M53.1855 38.6055H56.3036V41.6772H53.1855V38.6055Z" fill="#7DDD04"/>
<path d="M59.6611 38.6055H62.7791V41.6772H59.6611V38.6055Z" fill="#7DDD04"/>
<path d="M46.9502 50.6602H50.0682V53.7318H46.9502V50.6602Z" fill="#7DDD04"/>
<path d="M53.1855 50.6602H56.3036V53.7318H53.1855V50.6602Z" fill="#7DDD04"/>
<path d="M59.6611 50.6602H62.7791V53.7318H59.6611V50.6602Z" fill="#7DDD04"/>
</svg>
