<svg width="224" height="64" viewBox="0 0 224 64" fill="none" xmlns="http://www.w3.org/2000/svg">
<path d="M27.9 42.0913V39.0447V35.998H54V63.2727H46.75V61.8219C46.75 61.0385 46.6413 60.3711 46.4963 60.3711C46.315 60.4001 45.5538 60.8644 44.7563 61.4447C43.9587 62.025 42.4 62.8374 41.3125 63.2436C39.5725 63.911 38.8475 63.998 35.5125 63.998C32.2137 63.969 31.4888 63.882 29.93 63.2727C28.9513 62.8664 27.6463 62.083 27.03 61.5027C26.4138 60.9224 25.6888 59.9359 25.4712 59.3265C25.2175 58.7172 25 57.0923 25 55.7286C25 54.3649 25.2175 52.624 25.5438 51.8115C25.8338 50.9991 26.5225 49.9545 27.0663 49.4613C27.61 48.968 28.8063 48.2716 29.7125 47.8944C30.6188 47.5462 32.395 47.082 33.7 46.8499C35.005 46.6468 37.3612 46.4146 38.9563 46.2986C40.5513 46.2115 42.6175 46.0664 45.3 45.8633V42.0913H27.9Z" fill="#FF8800"/>
<path d="M60 63.1624V45.5955L60.036 28L68.4706 28.1714L68.6509 36.3121H81.6272V41.7393H89.1967V63.1624H80.5458V42.3106H68.6509V63.1624H60Z" fill="#191919"/>
<path d="M155.953 29.0283C156.493 28.7998 157.863 28.5142 159.016 28.3713C160.134 28.2285 163.522 28.1428 171.885 28.1999V33.6271L166.478 33.7128C162.765 33.7699 160.999 33.8842 160.819 34.1413C160.675 34.3127 160.566 34.8839 160.53 36.3407H170.623V42.0535H160.53V63.1909H151.88L151.988 48.2519C152.06 34.684 152.132 33.2272 152.709 32.0561C153.069 31.342 153.718 30.4565 154.15 30.0852C154.583 29.7138 155.412 29.2283 155.953 29.0283Z" fill="#191919"/>
<path d="M124.665 36.9977C125.675 36.6264 127.441 36.2265 128.63 36.0551C129.82 35.9123 132.343 35.8551 134.217 35.9408C136.128 36.0265 138.615 36.3407 139.804 36.6549C140.994 36.9406 142.508 37.5118 143.157 37.9117C143.805 38.2831 144.706 39.1686 145.211 39.8255C145.716 40.5111 146.365 41.9964 146.689 43.1961C147.122 44.71 147.23 46.1953 147.122 48.3376C147.013 49.9658 146.833 51.4797 146.725 51.6796C146.545 51.9653 144.094 52.051 126.287 52.051L126.504 53.5363C126.648 54.3646 126.936 55.4215 127.188 55.9071C127.441 56.3641 128.018 57.0211 128.45 57.3353C129.135 57.7923 129.856 57.9066 136.56 58.0494L138.903 56.0499H142.868C146.473 56.0499 146.833 56.0785 146.689 56.5355C146.581 56.8212 146.401 57.421 146.256 57.9066C146.148 58.3636 145.788 59.1348 145.499 59.6204C145.211 60.0775 144.382 60.9629 143.661 61.5342C142.904 62.1626 141.498 62.8767 140.345 63.2195C139.047 63.6194 137.137 63.8765 134.758 63.9622C132.631 64.0479 130.144 63.9907 128.63 63.7622C127.261 63.5908 125.314 63.1338 124.341 62.791C123.296 62.4197 121.926 61.6199 120.989 60.763C119.907 59.7918 119.15 58.7349 118.646 57.4781C118.105 56.0499 117.889 54.5646 117.745 51.0512C117.636 47.6521 117.709 45.9668 118.105 44.4815C118.393 43.3675 118.97 41.8821 119.403 41.1966C119.799 40.4825 120.772 39.3971 121.493 38.7687C122.25 38.1688 123.692 37.369 124.665 36.9977Z" fill="#191919"/>
<path d="M177.652 36.7406C178.445 36.4835 180.175 36.1693 181.437 36.0551C182.734 35.9408 184.681 35.8266 185.762 35.798C186.88 35.7694 189.042 35.8837 190.628 36.0265C192.214 36.1979 194.089 36.5121 194.773 36.7406C195.494 36.9691 196.504 37.5118 197.044 37.9403C197.585 38.3973 198.27 39.3971 198.558 40.1969C198.883 40.9681 199.135 42.1678 199.099 44.053H191.349L190.917 43.2818C190.664 42.8248 190.051 42.3106 189.583 42.1107C189.078 41.9107 187.384 41.7679 185.87 41.7679C183.96 41.7679 182.806 41.8821 182.266 42.1963C181.797 42.4249 181.365 43.0247 181.256 43.5389C181.148 44.053 181.22 44.8242 181.437 45.2527C181.653 45.6812 182.085 46.1668 182.446 46.3096C182.77 46.4524 185.005 46.7095 187.384 46.8809C189.763 47.0808 192.683 47.395 193.872 47.6521C195.062 47.8806 196.54 48.3091 197.116 48.5661C197.729 48.8518 198.63 49.6516 199.099 50.3371C199.928 51.5082 200 51.9081 200 54.9074C200 56.8212 199.82 58.7064 199.531 59.4776C199.243 60.1917 198.45 61.1915 197.729 61.7913C196.84 62.4768 195.675 63.0005 194.233 63.3623C192.503 63.7908 190.881 63.8765 186.123 63.905C182.554 63.905 179.634 63.7622 178.733 63.5623C177.94 63.3623 176.751 62.9053 176.03 62.5625C175.345 62.1912 174.408 61.3057 173.975 60.6202C173.507 59.9061 173.038 58.4493 172.606 55.4501L176.751 55.5358L176.809 55.537C180.753 55.6215 180.897 55.6245 181.004 56.2499C181.04 56.6212 181.545 57.1639 182.085 57.4781C182.915 57.9637 183.599 58.0494 186.591 58.0494C189.871 58.0494 190.196 57.9923 191.025 57.3353C191.601 56.8497 191.89 56.2784 191.89 55.6215C191.89 55.0502 191.746 54.3646 191.529 54.0504C191.349 53.7362 190.592 53.3649 189.835 53.1935C189.078 53.0507 186.699 52.7936 184.501 52.6222C182.338 52.4509 179.887 52.1652 179.094 51.9938C178.301 51.851 177.003 51.4225 176.21 51.0512C175.345 50.6513 174.516 49.9943 174.083 49.3088C173.723 48.6804 173.29 47.3379 173.11 46.3381C172.93 45.3098 172.858 43.6246 173.002 42.6248C173.146 41.5965 173.507 40.254 173.867 39.6256C174.228 38.9972 174.876 38.1974 175.345 37.8546C175.85 37.5118 176.859 36.9977 177.652 36.7406Z" fill="#191919"/>
<path d="M94.9279 63.1909V49.7658V36.3407H116.195V42.6248H103.939V63.1909H94.9279Z" fill="#191919"/>
<path d="M128.179 42.7145C128.794 42.2407 129.88 41.7948 130.604 41.6834C131.364 41.5998 132.848 41.5719 133.933 41.6276C135.019 41.7112 136.322 41.9899 136.829 42.2686C137.335 42.5194 138.023 43.1883 138.349 43.7178C138.71 44.2473 139 45.0833 139 46.4768H132.667C129.193 46.4768 126.334 46.421 126.334 46.3374C126.334 46.2538 126.478 45.6128 126.695 44.8604C126.949 43.9965 127.455 43.2719 128.179 42.7145Z" fill="#F5F5F5"/>
<path d="M35.859 52.0505C36.5466 51.9111 38.4285 51.6882 40.0208 51.5489C41.6132 51.4095 43.3503 51.2702 43.8931 51.2423C44.9065 51.2144 44.9065 51.2144 44.9065 53.0816C44.9065 54.8374 44.8341 55.0324 43.9293 55.5619C43.3503 55.8964 42.1922 56.4259 41.2875 56.7882C40.3827 57.1226 38.7542 57.4849 37.6685 57.5685C36.2571 57.6521 35.3523 57.5685 34.4838 57.2341C33.76 56.9554 33.2533 56.5095 33.1086 56.0078C32.9638 55.5898 32.9638 54.8095 33.1086 54.28C33.2171 53.7505 33.6152 53.0816 33.9771 52.8029C34.3028 52.5243 35.1714 52.1898 35.859 52.0505Z" fill="#F5F5F5"/>
</svg>
