<svg width="224" height="64" viewBox="0 0 224 64" fill="none" xmlns="http://www.w3.org/2000/svg">
<path fill-rule="evenodd" clip-rule="evenodd" d="M61.4764 34.0007C61.6146 33.9922 61.9517 34.0603 62.211 34.1368C62.479 34.2218 62.8593 34.4004 63.0667 34.545C63.2655 34.6811 63.5248 34.9362 63.6459 35.0978C63.7582 35.2594 63.9138 35.5485 63.983 35.7356C64.0521 35.9227 64.104 36.2884 64.1126 36.5435C64.1126 36.7987 64.0607 37.2069 63.9916 37.4365C63.9138 37.7001 63.715 38.0233 63.4903 38.2784C63.2828 38.5081 62.9198 38.7887 62.6864 38.9078C62.3234 39.0949 62.1333 39.1289 61.5196 39.1289C60.9145 39.1374 60.6984 39.0949 60.3181 38.9248C60.0243 38.7972 59.7044 38.5506 59.4711 38.2869C59.2118 38.0035 59.0389 37.7058 58.9525 37.394C58.866 37.0878 58.8315 36.7306 58.8574 36.3734C58.8833 36.0673 58.9698 35.6846 59.0562 35.523C59.134 35.3614 59.2982 35.0978 59.4106 34.9447C59.5229 34.8001 59.7995 34.5705 60.0329 34.4429C60.2576 34.3154 60.612 34.1708 60.8281 34.1113C61.0442 34.0517 61.3381 34.0007 61.4764 34.0007V34.0007ZM103.397 34.0007C103.544 33.9922 103.933 34.0688 104.261 34.1708C104.78 34.3239 104.936 34.4174 105.368 34.8512C105.757 35.2509 105.886 35.455 105.999 35.8462C106.094 36.1523 106.128 36.501 106.102 36.7987C106.077 37.0538 105.981 37.4365 105.886 37.6491C105.791 37.8617 105.584 38.1764 105.42 38.355C105.255 38.5421 104.936 38.7802 104.694 38.8908C104.46 39.0098 104.045 39.1204 103.786 39.1459C103.527 39.1799 103.095 39.1544 102.835 39.1034C102.541 39.0438 102.178 38.8908 101.893 38.6952C101.573 38.474 101.34 38.2274 101.158 37.9042C100.951 37.53 100.89 37.3089 100.865 36.7987C100.839 36.3564 100.865 36.0333 100.96 35.7356C101.037 35.506 101.245 35.1403 101.426 34.9362C101.608 34.7321 101.91 34.4855 102.101 34.3919C102.291 34.2984 102.602 34.1793 102.792 34.1198C102.982 34.0603 103.25 34.0007 103.397 34.0007V34.0007ZM202.321 34.1623L206.945 34.2048L207.032 44.0359L207.464 43.5512C207.706 43.279 208.19 42.8283 208.545 42.5476C208.899 42.2755 209.469 41.9183 209.798 41.7652C210.126 41.6037 210.654 41.4166 210.965 41.3315C211.406 41.2125 211.855 41.1784 213.039 41.1784C214.336 41.1869 214.655 41.2125 215.286 41.374C215.693 41.4846 216.375 41.7397 216.799 41.9438C217.223 42.1479 217.793 42.4711 218.052 42.6582C218.312 42.8538 218.813 43.2875 219.159 43.6277C219.513 43.9594 220.014 44.5632 220.282 44.9629C220.55 45.3626 220.913 46.0089 221.095 46.4086C221.268 46.8084 221.492 47.4377 221.587 47.8119C221.691 48.1861 221.829 48.9515 221.907 49.5128C222.02 50.3632 222.028 50.6949 221.942 51.5113C221.89 52.0471 221.76 52.838 221.665 53.2547C221.57 53.6714 221.371 54.3092 221.233 54.6579C221.095 55.0066 220.836 55.5424 220.663 55.8485C220.49 56.1547 220.127 56.665 219.859 56.9966C219.599 57.3283 219.15 57.796 218.865 58.0512C218.588 58.3063 218.121 58.6635 217.836 58.8506C217.551 59.0462 217.084 59.3013 216.799 59.4289C216.514 59.565 215.926 59.7691 215.503 59.8966C214.889 60.0667 214.465 60.1262 213.515 60.1688C212.719 60.1943 212.062 60.1773 211.613 60.1007C211.233 60.0412 210.645 59.9051 210.316 59.7861C209.988 59.6755 209.478 59.4544 209.193 59.2928C208.908 59.1397 208.475 58.8421 208.233 58.638C207.991 58.4339 207.637 58.0937 207.438 57.8726C207.239 57.643 207.049 57.4644 207.015 57.4559C206.971 57.4559 206.885 57.7535 206.799 58.1192C206.721 58.4849 206.617 59.0037 206.47 59.7606H202.321V34.1623ZM209.668 45.7878C209.21 46.0089 208.838 46.2811 208.432 46.6808C208.035 47.0805 207.758 47.4547 207.551 47.8799C207.386 48.2201 207.179 48.7474 207.101 49.045C206.997 49.4277 206.945 49.9295 206.945 50.6608C206.945 51.4007 206.997 51.894 207.101 52.2767C207.179 52.5828 207.386 53.1186 207.559 53.4673C207.793 53.935 208.043 54.2667 208.493 54.7004C208.882 55.0831 209.314 55.3978 209.668 55.5764C209.971 55.721 210.533 55.9081 210.896 55.9761C211.267 56.0441 211.769 56.1037 212.019 56.1037C212.27 56.1037 212.728 56.0696 213.039 56.0186C213.359 55.9676 213.912 55.7805 214.336 55.5849C214.915 55.3128 215.2 55.1086 215.693 54.6069C216.133 54.1647 216.41 53.799 216.617 53.3652C216.782 53.0251 216.981 52.4723 217.05 52.1321C217.127 51.7919 217.188 51.1371 217.179 50.6864C217.179 50.2271 217.127 49.5893 217.05 49.2576C216.981 48.9345 216.808 48.4157 216.661 48.1095C216.514 47.8119 216.229 47.3526 216.021 47.089C215.822 46.8339 215.442 46.4597 215.191 46.2641C214.932 46.0685 214.509 45.8133 214.249 45.6943C213.981 45.5752 213.497 45.4221 213.169 45.3541C212.832 45.2776 212.304 45.2265 212.002 45.2265C211.691 45.235 211.181 45.2861 210.878 45.3541C210.567 45.4221 210.023 45.6177 209.668 45.7878V45.7878ZM10.2985 37.2409C10.4195 37.2579 10.4714 37.3259 10.4541 37.4365C10.4368 37.53 10.3158 37.8957 10.1775 38.2444C10.0479 38.6016 9.85771 39.1884 9.77128 39.5626C9.65027 40.0814 9.6157 40.5576 9.62434 41.5611C9.62434 42.7347 9.65027 42.9644 9.85771 43.6447C9.98737 44.0699 10.2899 44.7928 10.5233 45.2605C10.7566 45.7283 11.2147 46.4597 11.5345 46.8764C11.8457 47.3016 12.5631 48.084 13.1076 48.6198C13.6608 49.1641 14.5338 49.9295 15.0524 50.3207C15.571 50.7204 16.686 51.6133 17.5331 52.3022C18.3801 52.9911 19.2531 53.7735 19.4692 54.0456C19.6853 54.3092 19.9965 54.8025 20.1607 55.1257C20.3249 55.4573 20.541 56.0526 20.6447 56.4438C20.7917 57.0391 20.8176 57.3368 20.783 58.1022C20.7571 58.7911 20.6793 59.2163 20.5151 59.718C20.3941 60.0922 20.1434 60.645 19.9619 60.9512C19.789 61.2488 19.3482 61.7846 18.9938 62.1418C18.5357 62.5925 18.1381 62.8902 17.6541 63.1368C17.2738 63.3324 16.6687 63.5705 16.3144 63.6641C15.9513 63.7491 15.2944 63.8767 14.845 63.9362C14.1794 64.0213 13.8596 64.0213 13.2027 63.9362C12.7446 63.8767 12.1482 63.7746 11.863 63.7151C11.5778 63.6471 11.0851 63.511 10.7826 63.4174C10.4714 63.3154 9.98737 63.1283 9.70213 63.0007C9.4169 62.8732 8.90694 62.618 8.57849 62.4224C8.24139 62.2353 7.66228 61.8526 7.28197 61.572C6.90166 61.2913 6.29662 60.7811 5.95088 60.4324C5.5965 60.0922 5.10382 59.5394 4.85316 59.2078C4.6025 58.8846 4.2049 58.2723 3.96289 57.8471C3.72087 57.4303 3.35785 56.665 3.14176 56.1462C2.93432 55.6359 2.64908 54.7515 2.50215 54.1902C2.35521 53.6289 2.17369 52.6339 2.0959 51.979C1.98354 51.0095 1.9749 50.5928 2.04404 49.6828C2.0959 49.079 2.19098 48.2541 2.26877 47.8544C2.33792 47.4632 2.4935 46.7913 2.61451 46.3661C2.73552 45.9494 2.94296 45.3541 3.06397 45.0479C3.18498 44.7503 3.46157 44.155 3.66901 43.7298C3.8851 43.313 4.23083 42.7007 4.44692 42.3691C4.66301 42.0459 5.12975 41.4166 5.49278 40.9743C5.8558 40.5406 6.43491 39.9283 6.76336 39.6136C7.10046 39.3075 7.67092 38.8397 8.01666 38.5676C8.37104 38.3039 8.99337 37.8872 9.39097 37.6491C9.79721 37.411 10.2035 37.2324 10.2985 37.2409V37.2409ZM114.331 34.1623V59.7606H109.664L109.646 47.021C109.638 40.0133 109.664 34.2559 109.707 34.2218C109.741 34.1878 110.804 34.1623 114.331 34.1623V34.1623ZM48.5112 41.1444C49.2286 41.1444 50.0151 41.1869 50.456 41.2635C50.8536 41.3315 51.4759 41.4846 51.8389 41.6037C52.1933 41.7312 52.6773 41.9353 52.9193 42.0714C53.1527 42.2075 53.559 42.4796 53.8269 42.6837C54.0862 42.8963 54.4838 43.2875 54.6999 43.5682C54.9246 43.8488 55.2444 44.3591 55.4087 44.7078C55.5815 45.0649 55.7285 45.4221 55.7458 45.5072C55.763 45.6603 55.5642 45.7283 53.9566 46.128C52.9539 46.3746 52.0809 46.5787 52.0118 46.5787C51.934 46.5872 51.7352 46.3831 51.5537 46.1365C51.3808 45.8899 51.1129 45.5922 50.9486 45.4647C50.7931 45.3456 50.551 45.184 50.4127 45.116C50.2658 45.0394 49.9719 44.9374 49.7645 44.8864C49.5484 44.8268 49.0039 44.7843 48.5544 44.7843C48.0704 44.7843 47.5518 44.8438 47.3011 44.9204C47.0591 44.9884 46.722 45.15 46.5405 45.2605C46.3676 45.3796 46.1429 45.6262 46.0478 45.8133C45.9527 46.0004 45.8749 46.3151 45.8663 46.5192C45.8663 46.7573 45.9354 46.9784 46.0651 47.174C46.1775 47.3441 46.4627 47.5823 46.6961 47.7098C46.9294 47.8374 47.5345 48.0755 48.0358 48.2371C48.5285 48.3987 49.5052 48.6708 50.1967 48.8409C50.8795 49.011 51.934 49.3001 52.5304 49.4872C53.1181 49.6828 53.8183 49.938 54.0862 50.0655C54.3455 50.2016 54.769 50.4652 55.037 50.6523C55.2963 50.8479 55.642 51.1711 55.7976 51.3667C55.9618 51.5623 56.1606 51.8685 56.2557 52.0471C56.3421 52.2172 56.4718 52.5998 56.5496 52.8975C56.6187 53.1867 56.6706 53.8075 56.6706 54.2752C56.6706 54.7515 56.6187 55.3723 56.5409 55.6784C56.4632 55.9846 56.2471 56.5374 56.0483 56.9116C55.8408 57.2943 55.4778 57.7875 55.2099 58.0597C54.9419 58.3233 54.5357 58.6635 54.3023 58.8251C54.0603 58.9867 53.559 59.2588 53.1786 59.4374C52.7983 59.6075 52.1501 59.8371 51.7525 59.9391C51.1993 60.0752 50.6375 60.1347 49.5484 60.1688C48.3902 60.2028 47.8802 60.1773 47.1715 60.0667C46.6701 59.9817 45.97 59.8201 45.6156 59.7095C45.2526 59.5905 44.6562 59.3353 44.2845 59.1397C43.9129 58.9441 43.3424 58.5699 43.0312 58.3148C42.7114 58.0512 42.2706 57.6174 42.0459 57.3368C41.8212 57.0562 41.5014 56.5799 41.3371 56.2737C41.1816 55.9761 40.9828 55.4913 40.905 55.2107C40.8272 54.9301 40.7753 54.7004 40.7926 54.6919C40.8012 54.6834 41.7088 54.5389 42.8065 54.3688C43.8956 54.2072 44.8377 54.0626 44.8982 54.0626C44.9587 54.0626 45.123 54.2497 45.2613 54.4708C45.3995 54.6919 45.7626 55.1086 46.0565 55.3978C46.4108 55.7295 46.8257 56.0186 47.2147 56.2057C47.8111 56.4864 47.8197 56.4864 49.073 56.4864C50.067 56.4864 50.3868 56.4523 50.6461 56.3333C50.8276 56.2567 51.1302 56.0441 51.3289 55.874C51.5277 55.6954 51.7611 55.3978 51.8476 55.2107C51.934 55.0236 52.0031 54.7004 52.0031 54.4878C52.0031 54.2837 51.934 53.952 51.8476 53.765C51.7611 53.5779 51.5969 53.3397 51.4759 53.2377C51.3635 53.1356 50.8881 52.9145 50.4127 52.7444C49.9374 52.5743 48.8656 52.2682 48.0358 52.0641C47.1974 51.8685 46.1342 51.5793 45.6589 51.4262C45.1835 51.2817 44.4228 50.984 43.9734 50.7629C43.3511 50.4652 43.0053 50.2356 42.5731 49.8189C42.1842 49.4362 41.9162 49.0875 41.7347 48.7048C41.5878 48.4072 41.4236 47.9224 41.3717 47.6418C41.3112 47.3611 41.2939 46.8254 41.3198 46.4512C41.3458 46.077 41.4495 45.5242 41.5446 45.218C41.6397 44.9204 41.8644 44.4271 42.0459 44.138C42.2274 43.8488 42.5818 43.3896 42.8497 43.1259C43.109 42.8623 43.4807 42.5391 43.6709 42.4116C43.861 42.284 44.25 42.0714 44.5352 41.9268C44.8204 41.7908 45.244 41.6122 45.486 41.5356C45.7194 41.4591 46.2293 41.34 46.6096 41.272C46.9899 41.2125 47.8456 41.1529 48.5112 41.1444V41.1444ZM77.873 41.1444C78.4348 41.1444 79.1695 41.1954 79.5152 41.255C79.861 41.323 80.3968 41.4676 80.708 41.5866C81.0105 41.6972 81.5032 41.9353 81.7884 42.1139C82.0737 42.2925 82.5058 42.6327 82.7479 42.8708C82.9899 43.1089 83.3356 43.5512 83.8629 44.3761L84.0876 44.0529C84.2086 43.8743 84.5371 43.5086 84.8223 43.2365C85.0989 42.9644 85.5397 42.5902 85.8076 42.4201C86.0669 42.2415 86.4559 42.0119 86.672 41.9013C86.8794 41.7993 87.2684 41.6377 87.5363 41.5441C87.7956 41.4591 88.271 41.3315 88.5908 41.2635C88.9279 41.1954 89.628 41.1359 90.2331 41.1359C90.9418 41.1444 91.5642 41.1954 92.1174 41.306C92.6705 41.4166 93.2064 41.6037 93.7596 41.8673C94.4424 42.199 94.7017 42.3946 95.3241 42.9984C95.9637 43.6362 96.1193 43.8573 96.4996 44.6227C96.7416 45.116 97.0182 45.8218 97.1133 46.196C97.2083 46.5702 97.3293 47.174 97.3812 47.5397C97.4417 47.9479 97.4763 50.3972 97.4763 59.7606H92.8088L92.7829 54.0881C92.757 48.994 92.7397 48.3562 92.61 47.8969C92.5236 47.6163 92.3421 47.157 92.2038 46.8764C92.0655 46.5957 91.8321 46.2215 91.6852 46.0515C91.5382 45.8644 91.1925 45.6177 90.8813 45.4732C90.5529 45.3116 90.1121 45.184 89.7404 45.1415C89.386 45.099 88.8761 45.099 88.5303 45.1415C88.15 45.1925 87.7178 45.3201 87.3635 45.4902C87.0437 45.6432 86.5942 45.9664 86.3435 46.2215C86.0669 46.4937 85.7731 46.9019 85.5916 47.2846C85.4273 47.6248 85.2199 48.1691 85.1421 48.4922C85.0124 49.0195 84.9952 49.7509 84.9433 59.7606H80.2758L80.2499 54.1306C80.224 48.7133 80.2153 48.4667 80.0425 47.8544C79.9474 47.5057 79.7745 47.0465 79.6622 46.8339C79.5584 46.6298 79.2905 46.2726 79.0744 46.043C78.8497 45.8218 78.4694 45.5412 78.2187 45.4306C77.968 45.3116 77.5013 45.184 77.1815 45.1415C76.8617 45.099 76.3517 45.099 76.0406 45.133C75.7294 45.1755 75.2972 45.2691 75.0898 45.3456C74.8737 45.4221 74.5452 45.5922 74.3551 45.7283C74.1649 45.8559 73.8365 46.145 73.629 46.3746C73.4216 46.6042 73.1623 46.9699 73.0586 47.174C72.9462 47.3866 72.7647 47.8289 72.4535 48.7474L72.4103 59.7606H67.6564V41.5611L71.8485 41.6037L72.0214 42.7262C72.1164 43.3386 72.2115 43.8658 72.2374 43.8913C72.2547 43.9254 72.393 43.7893 72.54 43.5937C72.6783 43.3981 73.0153 43.0409 73.2833 42.8028C73.5512 42.5647 73.9834 42.25 74.2341 42.0969C74.4934 41.9438 74.9515 41.7227 75.2626 41.5952C75.5652 41.4761 76.0578 41.323 76.3431 41.2635C76.6283 41.2039 77.3198 41.1529 77.873 41.1444V41.1444ZM126.216 41.1784C127.305 41.2039 127.728 41.2465 128.247 41.391C128.601 41.4931 129.163 41.7142 129.5 41.8758C129.829 42.0374 130.295 42.318 130.529 42.4881C130.762 42.6582 131.168 43.0324 131.436 43.33C131.704 43.6192 131.946 43.8318 131.981 43.7978C132.024 43.7638 132.05 43.245 132.05 41.5611H136.718V59.7606L132.525 59.718L132.379 58.9101C132.292 58.4679 132.18 57.8981 132.033 57.1667L131.765 57.5069C131.618 57.694 131.298 58.0342 131.056 58.2638C130.814 58.4849 130.33 58.8676 129.976 59.1057C129.613 59.3438 129.111 59.6245 128.852 59.7265C128.584 59.8371 128.039 59.9817 127.642 60.0667C127.063 60.1773 126.631 60.2028 125.611 60.1688C124.556 60.1262 124.167 60.0837 123.554 59.8966C123.139 59.7776 122.534 59.5479 122.214 59.3949C121.894 59.2418 121.375 58.9441 121.073 58.74C120.762 58.5359 120.234 58.1022 119.897 57.7705C119.56 57.4389 119.111 56.9201 118.886 56.6139C118.67 56.3163 118.333 55.755 118.143 55.3808C117.953 55.0066 117.702 54.4198 117.581 54.0626C117.46 53.7139 117.304 53.0846 117.227 52.6594C117.14 52.1916 117.08 51.4092 117.08 50.6183C117.08 49.6573 117.123 49.1301 117.261 48.4752C117.356 47.9905 117.555 47.2846 117.702 46.9019C117.849 46.5107 118.108 45.9494 118.272 45.6432C118.445 45.3456 118.774 44.8438 118.998 44.5377C119.223 44.24 119.655 43.7553 119.958 43.4746C120.26 43.1855 120.744 42.8028 121.03 42.6157C121.315 42.4201 121.816 42.1309 122.153 41.9693C122.482 41.8078 122.949 41.6122 123.191 41.5356C123.424 41.4591 123.891 41.34 124.228 41.272C124.66 41.1784 125.222 41.1529 126.216 41.1784V41.1784ZM124.66 45.7368C124.228 45.9409 123.856 46.213 123.389 46.6638C122.888 47.1485 122.655 47.4547 122.421 47.9394C122.248 48.2966 122.05 48.8069 121.98 49.0875C121.894 49.4022 121.842 49.9805 121.834 50.5758C121.834 51.2221 121.885 51.7579 121.98 52.1491C122.058 52.4808 122.266 53.0336 122.439 53.3823C122.663 53.833 122.931 54.1987 123.363 54.6239C123.821 55.0916 124.141 55.3128 124.703 55.5849C125.144 55.789 125.663 55.9676 126 56.0186C126.302 56.0696 126.769 56.1037 127.037 56.1037C127.296 56.1037 127.78 56.0441 128.117 55.9761C128.446 55.9081 128.99 55.721 129.327 55.5594C129.734 55.3638 130.114 55.0831 130.52 54.6919C130.9 54.3092 131.22 53.884 131.445 53.4673C131.627 53.1186 131.843 52.5658 131.929 52.2342C132.015 51.8685 132.076 51.2902 132.076 50.7034C132.076 50.1931 132.033 49.5383 131.972 49.2576C131.912 48.977 131.713 48.4412 131.531 48.067C131.333 47.6588 130.996 47.174 130.693 46.8424C130.416 46.5447 129.958 46.145 129.673 45.9664C129.388 45.7878 128.895 45.5582 128.593 45.4647C128.264 45.3711 127.685 45.2861 127.21 45.2605C126.717 45.2435 126.164 45.2691 125.827 45.3371C125.516 45.3966 124.988 45.5837 124.66 45.7368ZM190.869 41.1444C191.508 41.1444 192.304 41.1869 192.727 41.2635C193.125 41.3315 193.747 41.4846 194.11 41.6037C194.464 41.7312 194.992 41.9438 195.277 42.0884C195.562 42.233 196.029 42.5051 196.314 42.6922C196.599 42.8878 197.118 43.3386 197.481 43.6957C197.835 44.0529 198.328 44.6737 198.579 45.0649C198.829 45.4562 199.175 46.1195 199.348 46.5362C199.521 46.9614 199.737 47.6503 199.832 48.067C199.953 48.6538 199.996 49.1726 199.988 50.2611C199.988 51.0435 199.962 51.7239 199.944 51.7664C199.91 51.8259 197.524 51.8515 186.158 51.8515L186.21 52.1746C186.236 52.3447 186.314 52.7104 186.383 52.9825C186.443 53.2462 186.625 53.7054 186.772 54.0031C186.927 54.3092 187.264 54.7515 187.576 55.0491C187.895 55.3638 188.319 55.6699 188.665 55.84C188.967 55.9846 189.494 56.1632 189.831 56.2312C190.16 56.2993 190.644 56.3588 190.912 56.3588C191.171 56.3588 191.638 56.3078 191.949 56.2397C192.252 56.1802 192.641 56.0611 192.813 55.9761C192.978 55.8996 193.315 55.6869 193.565 55.4998C193.833 55.3128 194.17 54.9386 194.758 54.0626H199.469L199.417 54.2582C199.382 54.3603 199.244 54.7174 199.115 55.0406C198.976 55.3723 198.674 55.9251 198.449 56.2737C198.216 56.6309 197.758 57.1922 197.429 57.5409C197.101 57.8896 196.599 58.3403 196.314 58.5529C196.029 58.7655 195.406 59.1227 194.931 59.3438C194.456 59.5735 193.712 59.8456 193.289 59.9477C192.597 60.1262 192.312 60.1433 190.825 60.1433C189.278 60.1347 189.062 60.1177 188.276 59.9051C187.8 59.7776 187.1 59.5309 186.72 59.3523C186.34 59.1738 185.804 58.8846 185.527 58.7145C185.259 58.5444 184.758 58.1447 184.412 57.8301C184.075 57.5154 183.6 57.0051 183.366 56.699C183.133 56.4013 182.752 55.7635 182.519 55.2957C182.286 54.828 182.001 54.0881 181.888 53.6374C181.767 53.1952 181.629 52.3702 181.586 51.8089C181.516 51.1116 181.516 50.4823 181.577 49.8104C181.629 49.2746 181.724 48.5858 181.793 48.2796C181.862 47.982 182.009 47.4802 182.104 47.174C182.208 46.8764 182.441 46.3151 182.631 45.9409C182.822 45.5667 183.141 45.0309 183.349 44.7503C183.548 44.4696 184.023 43.9509 184.395 43.5937C184.766 43.2365 185.363 42.7603 185.726 42.5391C186.08 42.3095 186.659 42.0034 187.022 41.8588C187.377 41.7142 187.843 41.5441 188.06 41.4846C188.267 41.4336 188.734 41.3315 189.097 41.272C189.451 41.2039 190.246 41.1529 190.869 41.1444V41.1444ZM188.578 45.5242C188.319 45.6603 187.895 45.9664 187.627 46.2045C187.334 46.4767 187.031 46.8594 186.832 47.2251C186.659 47.5482 186.478 47.9479 186.435 48.1095C186.383 48.2796 186.322 48.5177 186.296 48.6453L186.244 48.8749H195.234C195.234 48.4497 195.156 48.0755 195.061 47.7693C194.974 47.4717 194.741 46.9869 194.551 46.7063C194.361 46.4257 194.041 46.0685 193.833 45.9069C193.626 45.7453 193.28 45.5242 193.073 45.4136C192.857 45.3031 192.468 45.1585 192.208 45.0905C191.932 45.0224 191.379 44.9714 190.912 44.9714C190.402 44.9799 189.892 45.0309 189.572 45.1245C189.287 45.201 188.837 45.3881 188.578 45.5242V45.5242ZM59.0994 41.5611H63.8533V59.7606H59.0994V41.5611ZM101.107 41.5611H105.774V59.7606H101.107V41.5611ZM140.434 41.5611H142.552C144.185 41.5611 144.669 41.5866 144.669 41.6717C144.669 41.7312 144.765 42.4371 144.868 43.245C144.972 44.0614 145.093 44.7078 145.136 44.6908C145.188 44.6822 145.456 44.3591 145.75 43.9849C146.035 43.6107 146.545 43.0834 146.874 42.8113C147.202 42.5391 147.729 42.1905 148.04 42.0374C148.343 41.8843 148.87 41.7142 149.207 41.6547C149.536 41.6037 149.959 41.5611 150.487 41.6037L151.117 43.7723C151.463 44.9714 151.748 45.9664 151.748 45.9834C151.757 46.0089 151.161 46.0515 150.435 46.0855C149.665 46.1195 148.887 46.2045 148.559 46.2896C148.248 46.3661 147.747 46.5532 147.444 46.6978C147.107 46.8594 146.718 47.1485 146.441 47.4292C146.191 47.6928 145.888 48.0925 145.767 48.3221C145.646 48.5603 145.482 48.977 145.396 49.2576C145.257 49.7169 145.24 50.2611 145.188 59.7606H140.434V41.5611ZM157.808 41.5611L158.101 42.8198C158.266 43.5086 158.948 46.3916 159.623 49.2151C160.297 52.0471 160.867 54.3858 160.893 54.4028C160.911 54.4283 160.954 54.4028 160.988 54.3518C161.023 54.2922 161.844 51.3922 164.593 41.5611H169.779L171.551 47.9054C172.519 51.3922 173.348 54.2922 173.383 54.3518C173.409 54.4028 173.452 54.4283 173.478 54.4028C173.495 54.3858 174.204 51.4943 176.607 41.6037L181.231 41.5611L181.179 41.7993C181.153 41.9268 179.969 46.0004 178.543 50.8564C177.117 55.704 175.959 59.701 175.959 59.718C175.959 59.7435 174.844 59.7606 173.495 59.7606C172.138 59.7606 171.032 59.7435 171.032 59.718C171.032 59.701 170.185 56.7245 169.165 53.1101C168.136 49.4957 167.263 46.4852 167.229 46.4086C167.177 46.3151 167.134 46.3576 167.065 46.5787C167.013 46.7488 166.157 49.7594 165.154 53.2802C164.152 56.801 163.339 59.701 163.339 59.718C163.339 59.7435 162.242 59.7606 158.456 59.7691L155.828 50.7714C154.385 45.8218 153.183 41.7312 153.157 41.6717C153.123 41.5866 153.615 41.5611 157.808 41.5611V41.5611Z" fill="#092540"/>
<path d="M17.4764 36.3971C17.7098 36.278 18.1852 36.108 18.5137 36.0229C18.8421 35.9379 19.4126 35.8698 19.767 35.8613C20.1213 35.8613 20.7869 35.9209 21.2364 35.9974C21.6858 36.0739 22.4464 36.2695 22.9218 36.4311C23.3972 36.5927 24.0023 36.8393 24.2616 36.9669C24.5209 37.0945 25.1605 37.4857 25.6877 37.8258C26.336 38.2511 26.9756 38.7783 27.6844 39.4757C28.2635 40.037 28.9809 40.8194 29.2748 41.2191C29.5686 41.6188 30.0095 42.2651 30.2428 42.6648C30.4848 43.0645 30.8219 43.7109 31.0035 44.1106C31.185 44.5103 31.4443 45.1821 31.5912 45.5989C31.7295 46.0156 31.9283 46.764 32.032 47.2572C32.1357 47.7505 32.2568 48.6434 32.3 49.2557C32.3605 50.0211 32.3605 50.693 32.3 51.4244C32.2481 52.0112 32.1271 52.8701 32.032 53.3379C31.9369 53.8056 31.7209 54.588 31.5566 55.0813C31.3924 55.5745 31.0553 56.3739 30.8219 56.8672C30.5799 57.3604 30.1391 58.1258 29.8452 58.5681C29.5427 59.0103 29.171 59.5291 29.0241 59.7161C28.8685 59.9032 28.3672 60.4305 27.9091 60.8983C27.451 61.3575 26.6817 62.0208 26.2063 62.3695C25.7309 62.7182 25.2469 63.0244 25.1259 63.0499C24.9876 63.0754 24.858 63.0414 24.7802 62.9563C24.6678 62.8373 24.6678 62.7862 24.8147 62.4631C24.9012 62.259 25.0654 61.8678 25.1691 61.5871C25.2815 61.3065 25.463 60.6771 25.5667 60.1839C25.7482 59.4185 25.7742 59.0698 25.7655 57.7601C25.7655 56.4845 25.7309 56.1018 25.5667 55.464C25.463 55.0472 25.2123 54.3499 25.0049 53.9332C24.7975 53.5164 24.3826 52.8446 24.0887 52.4449C23.7862 52.0452 23.1898 51.3648 22.7576 50.9226C22.3254 50.4889 21.6167 49.834 21.1931 49.4769C20.7696 49.1112 19.8102 48.3458 19.0755 47.7675C18.3408 47.1977 17.2258 46.2197 16.6121 45.6074C15.7478 44.7484 15.4107 44.3572 15.1686 43.898C14.9958 43.5748 14.771 43.0305 14.6673 42.7074C14.5377 42.2906 14.4772 41.8739 14.4772 41.3041C14.4685 40.8619 14.5117 40.2836 14.5809 40.0285C14.6414 39.7733 14.8143 39.2886 14.9612 38.9654C15.1168 38.6423 15.4107 38.149 15.6181 37.8769C15.8342 37.6047 16.2404 37.205 16.5257 36.9924C16.8109 36.7798 17.2344 36.5077 17.4764 36.3971Z" fill="#F4732A"/>
</svg>
