<svg width="64" height="64" viewBox="0 0 64 64" fill="none" xmlns="http://www.w3.org/2000/svg">
<circle cx="32" cy="32" r="26" fill="#191919"/>
<path d="M16.834 41.0526C18.4837 43.6906 20.7904 45.8547 23.5282 47.333C26.2659 48.8112 29.3407 49.5529 32.4513 49.4853C35.562 49.5552 38.6374 48.8157 41.3763 47.3393C44.1152 45.863 46.4236 43.7004 48.0752 41.0635C47.9943 38.7856 46.1634 36.8731 42.5827 35.3261C39.3994 33.8692 35.9514 33.0802 32.4513 33.0078C28.9574 33.0771 25.5127 33.8447 22.32 35.2655C18.7392 36.7634 16.9105 38.6924 16.834 41.0526ZM37.9438 14.8186C37.2351 14.0776 36.3822 13.4896 35.4376 13.0909C34.4929 12.6922 33.4766 12.4912 32.4513 12.5003C31.426 12.4912 30.4097 12.6922 29.4651 13.0909C28.5204 13.4896 27.6675 14.0776 26.9588 14.8186C26.2178 15.5273 25.6298 16.3803 25.2311 17.3249C24.8324 18.2695 24.6314 19.2858 24.6405 20.3111C24.6314 21.3364 24.8324 22.3527 25.2311 23.2974C25.6298 24.242 26.2178 25.095 26.9588 25.8036C27.6675 26.5446 28.5204 27.1326 29.4651 27.5314C30.4097 27.9301 31.426 28.1311 32.4513 28.122C33.4766 28.1311 34.4929 27.9301 35.4376 27.5314C36.3822 27.1326 37.2351 26.5446 37.9438 25.8036C38.6848 25.095 39.2728 24.242 39.6716 23.2974C40.0703 22.3527 40.2713 21.3364 40.2622 20.3111C40.2713 19.2858 40.0703 18.2695 39.6716 17.3249C39.2728 16.3803 38.6848 15.5273 37.9438 14.8186Z" fill="white"/>
</svg>
