<svg width="224" height="64" viewBox="0 0 224 64" fill="none" xmlns="http://www.w3.org/2000/svg">
<path fill-rule="evenodd" clip-rule="evenodd" d="M117.432 26.0032C118.739 26.0135 119.506 26.0444 120.004 26.1011C120.393 26.1475 121.007 26.2299 121.369 26.2866C121.731 26.3484 122.345 26.4618 122.734 26.5494C123.122 26.6318 123.82 26.807 124.282 26.9358C124.744 27.0697 125.426 27.2861 125.804 27.4201C126.182 27.554 126.723 27.7652 127.011 27.8837C127.3 28.0022 127.909 28.2856 128.366 28.5072C128.817 28.7338 129.505 29.0996 129.882 29.3212C130.266 29.5479 130.853 29.9137 131.184 30.1455C131.515 30.3722 132.013 30.7329 132.286 30.9492C132.559 31.1656 133.068 31.5881 133.41 31.8921C133.756 32.1961 134.307 32.7319 134.633 33.0874C134.963 33.4429 135.425 33.9735 135.661 34.2724C135.897 34.566 136.275 35.0761 136.905 35.9983L136.931 31.619L137.094 31.3357C137.189 31.1656 137.362 30.975 137.514 30.8617C137.656 30.7586 137.855 30.6401 137.955 30.6041C138.107 30.5525 141.923 30.5371 158.546 30.5268C169.767 30.5165 178.948 30.5268 178.948 30.5474C178.948 30.5731 174.544 35.1534 159.375 50.8879L179 50.9137V59.2343L178.848 59.5434C178.764 59.7134 178.617 59.9195 178.517 60.002C178.423 60.0844 178.223 60.2081 177.819 60.3935L157.428 60.3781C143.225 60.3729 137.036 60.3523 137.036 60.3111C137.036 60.2853 141.409 55.7309 146.747 50.1924C152.09 44.6538 156.462 40.1045 156.472 40.0839C156.478 40.0633 152.504 40.0427 147.639 40.0427C140.59 40.0427 138.8 40.0582 138.816 40.1045C138.826 40.1406 138.921 40.5064 139.026 40.9186C139.131 41.3307 139.262 41.9335 139.32 42.2581C139.372 42.5827 139.451 43.0825 139.482 43.3658C139.524 43.6646 139.551 44.4272 139.551 45.1948C139.545 46.1222 139.519 46.7044 139.456 47.1784C139.409 47.5442 139.309 48.1367 139.241 48.4922C139.167 48.8477 139.015 49.4711 138.894 49.8832C138.779 50.2954 138.574 50.9085 138.443 51.2485C138.312 51.5886 138.039 52.2017 137.839 52.6138C137.64 53.026 137.273 53.6958 137.021 54.108C136.769 54.5201 136.37 55.1229 136.123 55.4475C135.882 55.7721 135.467 56.2976 135.199 56.6067C134.932 56.9159 134.339 57.5341 133.882 57.972C133.42 58.4151 132.727 59.0231 132.339 59.3322C131.95 59.6362 131.263 60.1256 130.817 60.4193C130.371 60.7078 129.72 61.1045 129.373 61.3003C129.027 61.4909 128.413 61.8052 128.009 61.9958C127.604 62.1865 126.885 62.4904 126.408 62.6759C125.93 62.8614 125.222 63.1087 124.833 63.2272C124.445 63.3405 123.862 63.5054 123.547 63.5878C123.232 63.6651 122.671 63.7939 121.631 64H112.709L112.037 63.866C111.669 63.7939 111.05 63.6548 110.662 63.5518C110.273 63.4539 109.596 63.2581 109.166 63.119C108.73 62.9747 108.084 62.7429 107.722 62.5986C107.36 62.4544 106.709 62.171 106.279 61.9701C105.843 61.764 105.229 61.4497 104.914 61.2745C104.599 61.0942 104.032 60.749 103.655 60.5069C103.277 60.2647 102.736 59.8938 102.447 59.6774C102.159 59.4661 101.686 59.0849 101.398 58.8427C101.109 58.5954 100.699 58.2348 100.495 58.039C100.285 57.8484 99.9122 57.4671 99.6602 57.1992C99.4136 56.9313 99.0251 56.4882 98.8047 56.2203C98.5843 55.9524 98.2326 55.4887 98.0226 55.1899C97.8074 54.8911 97.482 54.4016 97.2983 54.0925C97.1146 53.7885 96.8154 53.2579 96.6422 52.9075C96.4638 52.5623 96.2118 52.0214 96.0806 51.7122C95.9546 51.398 95.7657 50.9137 95.666 50.6303C95.5662 50.3469 95.4088 49.8008 95.309 49.4195C95.2093 49.0383 95.1201 48.6776 95.1148 48.621C95.1043 48.5643 95.0886 51.1816 95.0466 60.3678L90.7951 60.3832C87.1788 60.3935 86.5069 60.3832 86.3075 60.3162C86.1763 60.275 85.9558 60.1411 85.8193 60.0226C85.6671 59.8938 85.5044 59.6825 85.284 59.2343L85.2315 45.0557L77.6996 53.2939C73.5583 57.8278 70.1309 61.5682 70.0889 61.6094C70.0207 61.6764 69.1336 60.7284 54.7889 45.0506L54.7364 59.2343L54.5947 59.5177C54.5159 59.6825 54.3532 59.8938 54.201 60.0226C54.0646 60.1411 53.8441 60.275 53.7129 60.3162C53.5134 60.3832 52.8416 60.3935 45 60.3935V30.5113H48.7004C51.099 30.5113 52.5424 30.5319 52.8101 30.568C53.0306 30.5989 53.4137 30.6813 53.6604 30.7483C53.9071 30.8204 54.2955 30.9699 54.5264 31.0781C54.7574 31.1862 55.0986 31.3769 55.2875 31.5005C55.4765 31.619 55.8124 31.8921 56.0328 32.1085C56.2533 32.3197 59.4865 35.8334 63.2131 39.9139C66.9449 43.9944 70.0049 47.3329 70.0154 47.3329C70.0259 47.3329 73.0912 43.9841 76.8335 39.8882C80.5759 35.7922 83.7986 32.2888 83.998 32.093C84.2027 31.9024 84.5702 31.6139 84.8221 31.4542C85.0793 31.2944 85.4729 31.0781 85.7039 30.9853C85.9348 30.8874 86.3495 30.7483 87.121 30.5371H95.0466L95.0781 41.8202L95.2146 41.2535C95.2828 40.9392 95.4823 40.2797 95.6502 39.7851C95.8129 39.2905 96.0964 38.5589 96.2748 38.1622C96.4585 37.7655 96.7787 37.1266 96.9991 36.7454C97.2143 36.3641 97.5922 35.7613 97.8284 35.4058C98.0699 35.0503 98.4688 34.5197 98.7102 34.2208C98.9517 33.922 99.3978 33.4171 99.697 33.0925C99.9962 32.7679 100.516 32.2579 100.846 31.9591C101.177 31.6654 101.676 31.2429 101.949 31.0265C102.222 30.8101 102.673 30.4753 102.946 30.2846C103.219 30.094 103.718 29.7643 104.048 29.5582C104.379 29.3572 104.935 29.0327 105.282 28.8523C105.628 28.6669 106.253 28.3577 106.673 28.1671C107.092 27.9816 107.801 27.6931 108.247 27.5283C108.693 27.3634 109.297 27.1573 109.586 27.0697C109.874 26.9821 110.383 26.843 110.714 26.7554C111.045 26.6678 111.669 26.5287 112.105 26.4463C112.535 26.3587 113.26 26.2454 113.706 26.1836C114.152 26.1269 114.756 26.0599 115.044 26.0341C115.333 26.0084 116.409 25.9929 117.432 26.0032V26.0032ZM114.519 35.8747C114.231 35.9313 113.674 36.0859 113.286 36.2095C112.898 36.3383 112.22 36.6114 111.79 36.8175C111.354 37.0287 110.756 37.3585 110.452 37.5594C110.147 37.7603 109.638 38.1416 109.323 38.4095C109.008 38.6774 108.536 39.1359 108.279 39.4296C108.021 39.7233 107.67 40.1715 107.497 40.4291C107.329 40.6816 107.082 41.0989 106.951 41.3565C106.82 41.609 106.636 42.016 106.541 42.2581C106.447 42.5003 106.31 42.9382 106.237 43.237C106.163 43.5358 106.074 44.0047 106.048 44.2777C106.016 44.556 105.99 44.9578 105.99 45.1691C105.99 45.3803 106.016 45.7822 106.043 46.0552C106.074 46.3334 106.158 46.792 106.226 47.0753C106.295 47.3587 106.436 47.8224 106.541 48.1058C106.652 48.3891 106.82 48.7807 106.924 48.9816C107.024 49.1774 107.224 49.5277 107.371 49.7544C107.512 49.9811 107.738 50.3057 107.869 50.4757C108.006 50.6457 108.352 51.027 108.641 51.3207C108.929 51.6143 109.344 51.9904 109.559 52.1656C109.775 52.3356 110.2 52.6396 110.504 52.8354C110.809 53.0312 111.36 53.3403 111.738 53.5206C112.115 53.7009 112.751 53.9534 113.155 54.0874C113.559 54.2213 114.157 54.381 114.477 54.448C114.803 54.515 115.37 54.6077 115.737 54.6489C116.11 54.6901 116.75 54.7262 117.17 54.7262C117.59 54.7262 118.235 54.6901 118.613 54.6489C118.991 54.6026 119.569 54.5098 119.899 54.4377C120.23 54.3656 120.823 54.2007 121.212 54.077C121.6 53.9482 122.225 53.6958 122.602 53.5155C122.98 53.3351 123.531 53.026 123.836 52.8302C124.14 52.6396 124.597 52.3047 124.859 52.0883C125.122 51.8771 125.521 51.5061 125.752 51.2691C125.983 51.0322 126.282 50.6973 126.413 50.5272C126.549 50.3572 126.78 50.0326 126.933 49.806C127.08 49.5793 127.316 49.1619 127.457 48.8786C127.594 48.5952 127.783 48.1521 127.872 47.8997C127.961 47.6421 128.082 47.2247 128.14 46.9723C128.198 46.7147 128.271 46.1943 128.308 45.8131C128.355 45.2773 128.355 44.9733 128.308 44.4735C128.271 44.118 128.187 43.5977 128.119 43.3143C128.045 43.0309 127.914 42.5879 127.825 42.3354C127.73 42.0778 127.547 41.6605 127.421 41.408C127.29 41.1504 127.074 40.7795 126.943 40.5837C126.817 40.3828 126.565 40.0376 126.382 39.8109C126.203 39.5842 125.825 39.172 125.536 38.8938C125.253 38.6156 124.754 38.1931 124.439 37.9613C124.125 37.7243 123.684 37.4306 123.468 37.3018C123.253 37.173 122.881 36.9721 122.639 36.8536C122.403 36.7402 121.967 36.5496 121.668 36.4311C121.374 36.3177 120.86 36.1426 120.529 36.0498C120.199 35.9571 119.632 35.8283 119.269 35.7665C118.739 35.6737 118.372 35.648 117.354 35.6325C116.467 35.6222 115.937 35.6377 115.569 35.6892C115.28 35.7304 114.808 35.8128 114.519 35.8747V35.8747Z" fill="#24ABE2"/>
</svg>
