<svg width="224" height="64" viewBox="0 0 224 64" fill="none" xmlns="http://www.w3.org/2000/svg">
<path fill-rule="evenodd" clip-rule="evenodd" d="M37.311 34.0595L38.9741 34.5519C39.8843 34.8156 41.3023 35.3783 42.125 35.8003C42.9478 36.2399 44.0857 36.9784 44.6633 37.4532C45.241 37.9279 46.1338 38.8598 46.6415 39.5104C47.1666 40.1786 47.8843 41.3567 48.252 42.1304C48.6196 42.9041 49.0572 44.0118 49.1973 44.5921C49.3548 45.1724 49.5474 46.3153 49.6349 47.1417C49.7049 47.9681 49.7224 49.2693 49.6524 50.043C49.5824 50.8167 49.3548 52.0651 49.1447 52.8212C48.9347 53.5597 48.497 54.7554 48.1469 55.4412C47.7968 56.1445 47.1841 57.1995 46.764 57.7798C46.3614 58.36 45.5561 59.2744 44.9959 59.8019C44.4183 60.3294 43.438 61.1031 42.8253 61.5251C42.1951 61.9295 41.0572 62.5098 40.287 62.8087C39.5167 63.1076 38.1338 63.512 37.2235 63.7054C35.7881 64.0044 35.0879 64.0395 32.1469 63.9692C30.1338 63.9165 28.0857 63.7582 27.1579 63.5999C26.3001 63.4417 24.7946 63.1076 23.8318 62.8614C22.869 62.6153 21.2935 62.1581 20.3307 61.824C19.3679 61.5075 17.5999 60.8217 16.392 60.2942C15.1841 59.7843 13.3111 58.8348 12.2082 58.2194C11.1229 57.5864 9.70493 56.6544 9.05722 56.1445C8.42703 55.6346 7.81433 55.0192 7.72681 54.7906C7.60427 54.4741 7.60427 54.2982 7.77932 54.14C7.93687 53.9641 9.23228 53.8938 17.1798 53.7356L17.2148 53.3311C17.2673 52.997 16.9872 52.8036 15.1141 51.8541C13.9412 51.2739 11.9981 50.2364 10.7903 49.5507C9.58239 48.8825 7.49924 47.5989 6.15132 46.7197C4.80339 45.8229 2.96532 44.4866 2.07254 43.7481C1.19727 43.0096 0.339501 42.2183 0.199458 42.0073C0.0419084 41.7787 -0.0456189 41.3567 0.0244029 40.5479L9.3023 40.5127C17.4073 40.4775 18.6152 40.4424 18.7903 40.1962C18.9128 40.0555 18.9828 39.8269 18.9653 39.7214C18.9303 39.5984 18.2826 39.2291 17.5124 38.895C16.7596 38.5785 15.4117 37.9455 14.5539 37.5235C13.6787 37.0839 12.4533 36.3806 11.7881 35.9586C10.8253 35.3255 10.6152 35.097 10.5802 34.6925C10.5627 34.4112 10.6327 34.1299 10.7027 34.0595C10.7903 33.9892 16.8121 33.9716 37.311 34.0595V34.0595ZM31.8844 39.2291C31.4992 39.3522 30.624 39.739 29.9587 40.0907C29.1885 40.4775 28.3132 41.1457 27.5955 41.8666C26.9303 42.5524 26.2301 43.4843 25.88 44.1525C25.5649 44.7855 25.1973 45.735 25.0572 46.2625C24.9172 46.79 24.7946 47.9681 24.7946 48.8649C24.7946 50.1133 24.8997 50.7991 25.2323 51.8541C25.4598 52.5926 25.9675 53.6828 26.3526 54.2631C26.7202 54.8433 27.4555 55.7225 27.9806 56.1973C28.5058 56.6896 29.4686 57.3754 30.1338 57.727C30.8165 58.0787 31.8668 58.5007 32.497 58.6414C33.1272 58.7996 34.2301 58.9227 34.9478 58.9227C35.6655 58.9227 36.7334 58.7996 37.311 58.6414C37.8887 58.4831 38.869 58.1139 39.4992 57.8149C40.2695 57.4281 41.0572 56.8303 41.95 55.9335C42.8428 55.0543 43.4555 54.2455 43.8231 53.4718C44.1382 52.8388 44.5058 51.8541 44.6458 51.2739C44.8034 50.6936 44.9259 49.5858 44.9259 48.8122C44.9259 48.0385 44.8034 46.9307 44.6633 46.3505C44.5058 45.7702 44.1557 44.8207 43.8756 44.2404C43.578 43.6602 42.9828 42.7634 42.5102 42.2359C42.055 41.7084 41.2148 40.9699 40.6371 40.583C40.0594 40.1962 39.0791 39.6863 38.4489 39.4401C37.8187 39.2115 36.7509 38.9653 36.0857 38.895C35.4029 38.8423 34.3351 38.8423 33.7224 38.895C33.0922 38.9653 32.2695 39.106 31.8844 39.2291V39.2291Z" fill="#FF642D"/>
<path fill-rule="evenodd" clip-rule="evenodd" d="M203.519 39.2433H208.07L208.158 46.5405L219.799 46.6284V39.2433H224V58.4094H219.799V51.0243H208.07V58.4094H203.519V39.2433ZM67.9388 38.9092C69.2867 38.9092 70.9322 38.9795 71.6149 39.0674C72.2976 39.1729 73.453 39.4015 74.2057 39.5949C74.9409 39.7884 75.9913 40.14 77.4792 40.8258V42.9358C77.4792 44.87 77.4617 45.0283 77.1641 44.9403C77.0066 44.87 76.0963 44.5535 75.1685 44.237C74.2232 43.9029 72.7178 43.5161 71.825 43.3578C70.9497 43.1996 69.3567 43.0589 68.2889 43.0413C67.221 43.0413 65.9256 43.0765 65.4005 43.1468C64.8753 43.2347 64.1576 43.4633 63.825 43.6919C63.4924 43.9205 63.1423 44.3073 63.0372 44.5711C62.8972 44.9579 62.9322 45.1338 63.2298 45.5206C63.4224 45.8019 63.79 46.1184 64.0175 46.224C64.2451 46.347 66.1357 46.6108 68.2013 46.8042C70.267 46.9976 72.4377 47.2262 73.0153 47.3141C73.593 47.4196 74.5383 47.6834 75.0985 47.8944C75.6762 48.123 76.4639 48.5802 76.849 48.9318C77.2517 49.2659 77.7418 49.8989 77.9519 50.3385C78.162 50.7605 78.3895 51.5518 78.4595 52.0793C78.5471 52.765 78.4946 53.3453 78.267 54.1014C78.1094 54.6817 77.7243 55.4905 77.4092 55.9125C77.1116 56.3345 76.4814 56.9499 75.9913 57.284C75.5186 57.6181 74.5033 58.0753 73.7681 58.3215C73.0153 58.5676 71.6324 58.849 70.7046 58.9545C69.7593 59.06 68.3589 59.0951 67.5887 59.0248C66.8184 58.9721 65.558 58.7962 64.7878 58.6731C64.0175 58.5325 62.8447 58.2335 62.162 58.005C61.4792 57.7764 60.4464 57.3368 58.7484 56.4752V54.2772C58.7484 53.064 58.8009 52.0793 58.8884 52.0793C58.9585 52.0793 59.256 52.2375 59.5361 52.431C59.8162 52.6068 60.6915 53.0112 61.4617 53.3277C62.232 53.6266 63.6149 54.0838 64.5252 54.33C65.9256 54.6992 66.5908 54.7696 68.814 54.7872C70.5646 54.7989 71.7024 54.7227 72.2276 54.5586C72.6652 54.4355 73.2254 54.0838 73.5055 53.8201C73.7681 53.5387 73.9781 53.1167 73.9781 52.8705C73.9781 52.6244 73.9081 52.2727 73.8031 52.0793C73.6981 51.8859 73.383 51.6045 73.1029 51.4639C72.7703 51.3056 71.3873 51.0946 69.4792 50.9364C67.7637 50.7957 65.7331 50.5847 64.9628 50.4792C64.1926 50.3737 63.0897 50.1451 62.5121 49.9693C61.9344 49.7934 61.0766 49.3714 60.5865 49.0549C60.0788 48.7208 59.5011 48.123 59.186 47.6131C58.7309 46.8745 58.6434 46.5229 58.6083 45.3272C58.5558 44.2722 58.6259 43.7095 58.8534 43.1117C59.0285 42.6721 59.5361 41.916 59.9913 41.4412C60.5164 40.8785 61.2342 40.351 62.0044 39.9994C62.6696 39.6829 63.7199 39.3136 64.3501 39.1729C65.0153 39.0147 66.5033 38.9092 67.9388 38.9092V38.9092ZM190.915 38.9619C193.295 39.0147 194.556 39.1378 195.641 39.3839C196.464 39.5774 197.689 39.9642 199.58 40.7555L199.632 42.9007C199.65 44.0788 199.65 45.0459 199.632 45.0459C199.597 45.0459 199.125 44.8524 198.582 44.6063C198.022 44.3601 196.831 43.9733 195.956 43.7447C195.063 43.5161 193.383 43.2172 192.228 43.1117C190.635 42.9358 189.724 42.9358 188.429 43.0941C187.484 43.1996 186.468 43.4106 186.171 43.5512C185.856 43.6919 185.505 43.9908 185.383 44.2018C185.243 44.4304 185.138 44.7469 185.138 44.9052C185.138 45.081 185.33 45.4503 185.575 45.7492C185.908 46.1536 186.241 46.3119 186.941 46.435C187.431 46.5405 189.339 46.7339 191.177 46.8921C193.015 47.0504 195.011 47.279 195.641 47.4021C196.271 47.5427 197.234 47.8592 197.812 48.1406C198.372 48.4219 199.125 48.967 199.457 49.3538C199.807 49.7407 200.193 50.3385 200.35 50.6726C200.508 51.0419 200.613 51.8507 200.613 52.6947C200.63 53.8376 200.543 54.2596 200.193 54.9806C199.965 55.4553 199.457 56.1763 199.055 56.5807C198.67 56.9675 197.847 57.5302 197.217 57.8291C196.586 58.128 195.449 58.5149 194.678 58.6907C193.698 58.9193 192.578 59.0072 190.915 59.0072C189.479 58.9896 187.974 58.8841 187.063 58.7083C186.241 58.55 185.015 58.2335 184.35 58.005C183.685 57.7764 182.635 57.3368 180.937 56.4752V54.2772C180.937 53.064 180.989 52.0793 181.077 52.0793C181.147 52.0793 181.427 52.2375 181.724 52.431C182.022 52.6068 182.88 53.0112 183.65 53.3277C184.42 53.6266 185.803 54.0838 186.713 54.33C188.114 54.6992 188.779 54.7696 191.002 54.7872C192.613 54.7872 193.926 54.7168 194.381 54.5762C194.783 54.4707 195.344 54.1717 195.641 53.9256C196.009 53.6091 196.166 53.3277 196.166 52.9585C196.166 52.6595 196.079 52.2727 195.991 52.0793C195.904 51.8859 195.589 51.6045 195.291 51.4639C194.976 51.3056 193.575 51.0946 191.65 50.9364C189.952 50.7957 187.921 50.5847 187.151 50.4792C186.381 50.3737 185.278 50.1451 184.7 49.9517C184.123 49.7758 183.265 49.3714 182.792 49.0549C182.319 48.7384 181.742 48.1933 181.532 47.8592C181.322 47.5251 181.059 46.9273 180.937 46.5405C180.796 46.1184 180.744 45.3448 180.796 44.6063C180.849 43.8678 181.024 43.0941 181.234 42.6721C181.427 42.2852 181.987 41.6171 182.442 41.1775C182.915 40.7555 183.772 40.1752 184.35 39.9114C184.928 39.6477 185.908 39.296 186.538 39.1553C187.396 38.9619 188.464 38.9092 190.915 38.9619V38.9619ZM99.2735 39.3312V43.1996L85.8819 43.2875V46.6284H99.011V50.6726H85.8819V54.541L99.2735 54.6289L99.3611 58.4094H81.5055L81.4705 48.9494C81.453 43.7447 81.5055 39.4191 81.593 39.3664C81.6806 39.296 85.6893 39.2609 99.2735 39.3312ZM103.212 39.2433L111.335 39.3312L113.891 47.2262C115.291 51.5694 116.516 55.1564 116.604 55.1916C116.691 55.2092 117.584 52.6595 118.582 49.4769C119.58 46.3119 120.7 42.7248 121.768 39.2433H129.646V58.4094H125.269V50.6726C125.269 45.6261 125.217 42.9358 125.094 42.9358C125.007 42.9358 123.781 46.3998 119.895 58.3215H112.77L110.319 50.6374C108.954 46.4174 107.781 42.9007 107.711 42.8127C107.641 42.7424 107.589 46.2064 107.589 58.4094H103.212V39.2433ZM157.094 39.2433H161.681V44.2194C161.681 46.9449 161.751 49.6703 161.856 50.2858C161.943 50.8836 162.206 51.7628 162.433 52.22C162.661 52.6771 163.116 53.275 163.449 53.5563C163.764 53.8376 164.394 54.2245 164.832 54.4179C165.252 54.6113 166.162 54.8047 166.845 54.8575C167.702 54.9278 168.368 54.8575 169.12 54.6465C169.698 54.4707 170.503 54.1014 170.906 53.8201C171.326 53.5387 171.869 52.9409 172.131 52.4837C172.394 52.0265 172.709 51.1649 172.832 50.5847C172.972 49.8813 173.042 47.8065 173.059 39.2433H177.435L177.365 45.4503C177.33 50.4616 177.26 51.7979 177.05 52.431C176.893 52.8705 176.578 53.6266 176.333 54.1014C176.088 54.5937 175.632 55.2971 175.335 55.6839C175.02 56.0708 174.319 56.7214 173.777 57.1434C173.234 57.5478 172.271 58.0753 171.659 58.3039C171.028 58.55 169.838 58.8314 169.033 58.9369C167.93 59.0951 167.125 59.0951 165.917 58.9545C165.024 58.849 163.851 58.6028 163.291 58.3918C162.748 58.1808 161.873 57.7412 161.365 57.4247C160.858 57.0906 160.123 56.4928 159.702 56.0708C159.3 55.6312 158.705 54.7872 158.39 54.1717C158.092 53.5563 157.689 52.5716 157.532 51.9914C157.287 51.1298 157.217 49.8813 157.164 45.0986L157.094 39.2433ZM134.022 39.4191H141.584C147.764 39.4191 149.339 39.4719 150.162 39.6829C150.722 39.8235 151.387 40.0697 151.65 40.2455C151.912 40.4038 152.438 40.8258 152.805 41.1599C153.173 41.5116 153.663 42.1446 153.891 42.5841C154.101 43.0237 154.381 43.8853 154.503 44.5183C154.608 45.1514 154.643 46.0481 154.591 46.5405C154.521 47.0152 154.276 47.8241 154.048 48.334C153.821 48.8439 153.26 49.6176 152.84 50.0572C152.403 50.4968 151.632 51.0419 151.125 51.288C150.617 51.5166 150.074 51.7276 149.899 51.7276C149.742 51.7276 149.567 51.7804 149.532 51.8507C149.479 51.921 150.582 53.3805 151.983 55.0685C153.365 56.7565 154.503 58.2335 154.503 58.3566C154.503 58.5325 153.856 58.5852 149.339 58.5852L144.175 52.0793H138.748V58.5852H134.022V39.4191ZM138.748 48.0351C147.449 48.0351 148.481 47.9823 148.989 47.7713C149.322 47.6306 149.724 47.279 149.899 47.0152C150.092 46.6811 150.162 46.2767 150.109 45.6261C150.057 44.9228 149.917 44.6063 149.514 44.1667C149.217 43.8678 148.709 43.5512 148.376 43.4633C148.026 43.3578 145.733 43.2875 143.247 43.2875H138.748V48.0351Z" fill="#191919"/>
<path d="M33.98 42.4956C33.98 41.9681 34.085 41.4406 34.2251 41.2823C34.3768 41.083 34.7269 40.9834 35.2754 40.9834C35.713 40.9834 36.5883 41.1417 37.2185 41.3351C37.8487 41.5285 38.6539 41.8626 39.004 42.0736C39.3717 42.3022 40.0894 42.8824 40.5795 43.3748C41.0872 43.8847 41.7174 44.6759 41.98 45.1331C42.2426 45.6079 42.5752 46.4695 42.7152 47.0497C42.8728 47.63 42.9953 48.3333 42.9953 48.6323C42.9953 48.9312 42.9078 49.3004 42.7852 49.4763C42.6102 49.74 42.3126 49.8104 41.3673 49.8279C40.352 49.8631 40.1244 49.8104 39.9143 49.5114C39.7918 49.318 39.5992 48.7202 39.4942 48.1927C39.3892 47.6652 39.0916 46.8211 38.8115 46.3464C38.4964 45.7837 38.0062 45.2562 37.4636 44.9045C36.9209 44.5353 36.2207 44.2715 35.5555 44.1484C34.9778 44.0429 34.3826 43.8495 34.2426 43.7089C34.0675 43.533 33.98 43.0934 33.98 42.4956Z" fill="#FF642D"/>
</svg>
